<svg width="40" height="18" viewBox="0 0 40 18" fill="none" xmlns="http://www.w3.org/2000/svg">
<path d="M14.2714 7.7837L9.54261 0.913502C9.50364 0.855032 9.45491 0.796563 9.39644 0.738093L9.3867 0.730784C9.33797 0.682059 9.2795 0.643079 9.22103 0.6041C9.21129 0.6041 9.21129 0.594355 9.20154 0.594355C9.17231 0.574865 9.15282 0.56512 9.12358 0.54563C9.09435 0.52614 9.05537 0.516395 9.02613 0.496905C9.02613 0.496905 9.02613 0.496905 9.01639 0.496905C8.94817 0.46767 8.87996 0.44818 8.81174 0.438435C8.81174 0.438435 8.81174 0.438435 8.802 0.438435C8.73378 0.42869 8.66557 0.418945 8.59735 0.418945H8.58761C8.51939 0.418945 8.45118 0.42869 8.39271 0.438435C8.38297 0.438435 8.37322 0.438435 8.37322 0.438435C8.30501 0.44818 8.24654 0.477415 8.17832 0.496905C8.16858 0.496905 8.16858 0.496905 8.15883 0.50665C8.09062 0.535885 8.0224 0.574865 7.96393 0.613845C7.90546 0.652824 7.84699 0.701549 7.79827 0.760019L7.78852 0.769764C7.7398 0.818489 7.70082 0.876958 7.66184 0.935428C7.66184 0.945173 7.65209 0.945173 7.65209 0.954918C7.6326 0.984153 7.62286 1.00364 7.60337 1.03288L0.124112 15.626C-0.158492 16.1814 0.0558971 16.8709 0.621105 17.1535C0.786769 17.2412 0.962178 17.2802 1.13759 17.2802C1.54688 17.2802 1.94398 17.056 2.14863 16.6565L8.76546 3.7639L12.4149 9.0676C12.6391 9.38918 12.9899 9.56459 13.348 9.56459C13.5722 9.56459 13.7963 9.49638 13.9912 9.35995C14.4955 9.00913 14.6295 8.30993 14.2714 7.7837Z" fill="white"/>
<path d="M20.5762 10.2152C22.4545 9.26259 24.5838 8.17115 24.5838 5.2233C24.5838 2.39239 22.1914 0 19.3581 0C17.1192 0 15.1361 1.43007 14.4149 3.55204C14.2103 4.14648 14.5319 4.79696 15.1263 4.99186C15.7208 5.1965 16.3712 4.87492 16.5661 4.28047C16.9754 3.08428 18.0937 2.27545 19.3581 2.27545C20.9246 2.27545 22.3059 3.64705 22.3059 5.2233C22.3059 6.71184 21.4118 7.23807 19.5432 8.19064C17.2653 9.3576 14.1348 10.9436 14.1348 16.1498V17.2876H23.4363C24.0698 17.2876 24.5741 16.7808 24.5741 16.1498C24.5741 15.5164 24.0673 15.0121 23.4363 15.0121H16.4687C16.839 12.1325 18.5906 11.2384 20.5762 10.2152Z" fill="white"/>
<path d="M38.0193 0.4193C37.3858 0.4193 36.8815 0.926037 36.8815 1.55702V12.4836L28.9126 0.904111C28.63 0.494823 28.1159 0.309669 27.6384 0.465588C27.1609 0.611763 26.8418 1.05029 26.8418 1.55459V16.1525C26.8418 16.786 27.3485 17.2903 27.9795 17.2903C28.6129 17.2903 29.1172 16.7835 29.1172 16.1525V5.21626L37.0862 16.7933C37.3006 17.1051 37.6611 17.2903 38.0193 17.2903C38.1362 17.2903 38.2434 17.2708 38.3603 17.2415C38.8378 17.0954 39.157 16.6568 39.157 16.1525V1.55702C39.157 0.923601 38.6527 0.4193 38.0193 0.4193Z" fill="white"/>
</svg>
