<svg width="62" height="387" viewBox="0 0 62 387" fill="none" xmlns="http://www.w3.org/2000/svg">
<path fill-rule="evenodd" clip-rule="evenodd" d="M61.2777 14.9574C59.3819 15.4741 57.3137 16.3352 55.2455 17.3685C53.8667 18.0574 52.488 18.7463 51.1092 19.4352C50.5922 19.6075 50.0751 19.9519 49.7304 20.1241C49.5581 20.2964 49.5581 20.2964 49.3857 20.4686C49.2134 20.4686 49.041 20.4686 48.8687 20.6408C48.0069 20.813 47.4899 21.5019 46.9728 22.0186C46.6282 22.3631 46.1111 22.8797 45.7664 23.2242C44.9047 24.0853 44.3876 24.9464 43.6983 25.8076C42.3195 25.6353 41.2854 25.1186 39.7343 25.2909C38.8725 25.4631 38.1831 25.6353 37.8385 26.152C37.4938 26.4964 37.1491 27.3576 36.8044 27.5298C36.2873 27.702 35.2532 27.1854 35.0809 26.8409C34.9085 26.6687 34.9085 26.4965 34.7362 26.3242C34.5638 25.9798 33.7021 24.9464 33.3574 24.9464C33.0127 24.9464 32.668 25.2909 32.4957 25.2909C32.3233 25.4631 32.151 25.8075 31.9786 26.152C31.8063 26.4964 31.6339 26.8409 31.4616 27.0131C31.1169 27.3576 30.2551 27.3576 29.7381 27.5298C29.2211 27.702 28.8764 27.8743 28.187 28.0465C28.0146 27.5298 28.0146 26.6687 27.3252 26.6687C26.9805 26.6687 26.9805 27.3576 26.8082 27.702C26.8082 28.2187 26.9805 28.7354 26.8082 29.0798C26.8082 29.2521 26.4635 29.5965 26.2911 29.7687C26.1188 30.1132 25.9465 30.2854 25.7741 30.4576C25.4294 30.9743 25.2571 31.6632 24.9124 32.0076C24.3953 31.491 23.5336 31.8354 23.5336 32.5243C22.4995 31.3188 21.4654 30.2854 19.3973 30.4576C17.8461 30.6298 16.6397 31.3187 15.6056 32.0076C14.5715 32.6965 13.5375 33.3855 12.8481 34.2466C12.5034 34.7633 12.1587 35.2799 11.9863 35.6244C11.6416 36.141 11.1246 36.4855 10.7799 36.83C9.91814 37.6911 9.05641 38.38 8.36702 39.2411C8.36702 39.4133 8.36702 39.5855 8.36702 39.7578C8.19468 39.7578 8.19468 39.7578 8.02233 39.7578C6.8159 41.6522 5.95415 43.7189 4.74772 45.6134C3.71363 45.9579 2.33486 46.6468 1.47313 47.3357C0.956083 47.6801 0.266688 48.1968 0.956078 48.7135C1.12843 48.7135 1.30078 48.5412 1.47313 48.369C1.47313 48.1968 1.47313 48.0246 1.47313 47.8523C2.50721 47.1635 3.71365 46.4745 5.09243 45.9579C6.47121 44.0634 7.50529 41.9967 8.88407 40.1022C8.88407 39.93 8.88407 39.93 8.88407 39.7578C9.74581 39.7578 10.2628 39.2411 10.7799 38.7244C11.1246 38.38 11.4693 37.8633 11.9863 37.6911C11.9863 38.8967 11.814 40.7911 12.8481 41.48C13.7098 42.1689 15.2609 41.6522 16.6397 41.48C16.6397 42.3411 15.778 42.6856 16.1227 43.8912C15.9503 43.8912 15.9503 44.0634 15.778 44.0634C15.4333 45.9579 15.0886 48.0246 14.9162 50.0913C14.2268 50.7802 13.7098 51.8135 13.0204 52.6746C12.6757 53.1913 11.9863 53.5358 12.6757 54.0524C13.0204 53.8802 13.1927 53.708 13.0204 53.1913C13.7098 52.3302 14.2268 51.2968 15.0886 50.4357C15.0886 49.919 15.2609 49.4024 15.4333 48.8857C15.6056 47.8523 15.9503 46.819 16.1227 45.7856C16.295 45.269 16.4674 44.2356 16.295 43.8912C17.5014 43.3745 17.5014 41.8245 18.3632 40.9634C18.7079 40.6189 19.2249 40.4467 19.742 40.1022C20.7761 39.5856 21.6378 39.2411 22.3272 38.7244C22.6719 38.38 23.0166 38.0355 23.3612 37.8633C23.7059 38.0355 23.706 38.38 24.0507 38.5522C24.74 38.7244 25.7741 38.38 25.9465 37.8633C26.2912 37.0022 25.2571 36.6577 25.0847 35.9688C25.2571 35.7966 25.6018 35.6244 25.7741 35.4521C25.4294 37.1744 27.3252 37.3466 28.0146 36.1411C28.3593 35.6244 28.0146 35.1077 28.3593 34.591C29.5658 34.9355 29.3934 37.1744 30.5998 37.3466C30.4275 37.8633 30.5998 38.2077 30.7722 38.7244C31.2892 40.4467 32.3233 41.6523 33.185 42.8578C33.7021 43.5467 34.0468 44.2356 34.9085 44.2356C35.0809 43.7189 34.3915 43.3745 34.0468 43.03C33.5297 42.5134 33.1851 41.8245 32.668 41.48C32.668 40.7911 32.151 40.4467 31.9786 39.7578C31.6339 38.8966 31.4616 37.8633 30.9446 37.3466C31.8063 37.1744 31.2892 35.7966 30.9446 35.1077C32.8404 34.9355 34.3915 34.0743 35.2532 33.041C35.4256 32.8688 35.9426 32.1799 36.115 32.1799C36.2873 32.1799 36.4596 32.5243 36.632 32.6966C37.149 33.041 37.8384 33.3855 38.5278 33.3855C38.5278 33.3855 38.5278 33.5577 38.5278 33.7299C39.2172 34.4188 39.7343 35.2799 40.2513 35.9688C40.9407 36.6577 41.6301 37.3466 42.1471 37.8633C42.6642 37.6911 43.1812 38.0355 43.6983 38.0355C44.0429 38.0355 44.56 37.8633 44.3876 37.3466C43.6982 37.3466 43.1812 37.1744 42.4918 37.3466C41.2854 35.9688 40.2513 34.4188 39.0449 33.041C39.0449 33.041 38.7002 33.2132 38.7002 33.041C38.5278 32.3521 38.0108 32.1799 37.6661 31.8354C37.3214 31.491 36.8044 31.3188 36.8044 30.9743C36.8044 30.6299 37.149 29.941 37.4937 29.7687C38.1831 30.9743 39.7343 32.1799 41.4577 32.1799C41.9748 32.1799 42.4918 32.1799 43.0089 32.1799C43.8706 32.3521 45.2494 32.5243 46.1111 32.3521C47.1452 32.1799 47.6623 31.3187 47.3176 30.2854C46.9729 29.2521 45.7664 28.3909 45.4217 27.3576C46.4558 27.0131 47.6622 25.9798 48.8687 25.8076C49.3857 25.8076 49.9028 25.6353 50.4198 25.8076C50.7645 25.8076 50.9368 26.152 51.2815 25.9798C51.4539 25.9798 51.4539 25.6353 51.4539 25.4631C50.5922 25.1187 49.7304 24.9464 48.524 25.2909C48.0069 25.4631 47.4899 25.8076 46.9728 25.9798C46.4558 26.3242 45.077 26.8409 44.7323 26.152C44.56 25.6353 45.2494 24.7742 45.4217 24.4297C46.4558 23.2242 47.6622 22.1908 48.8687 21.3297C49.2134 20.9853 49.7304 20.813 49.9028 20.4686C50.9369 19.7797 51.9709 19.263 53.1774 18.7463C55.4179 17.5408 58.0031 16.3352 60.416 15.4741C60.933 15.3018 61.6224 15.3018 61.7947 14.7852C61.6224 14.9574 61.4501 14.9574 61.2777 14.9574ZM25.9465 34.9355C26.1188 34.7633 25.9465 34.4188 25.9465 34.0744C26.4635 34.2466 26.2912 34.9355 25.9465 34.9355ZM32.8404 26.8409C32.8404 26.3242 33.0127 26.152 33.0127 25.6353C33.5298 25.9798 33.8745 26.6687 34.3915 27.0131C33.8745 27.0131 33.1851 27.0131 32.8404 26.8409Z" fill="#7768D5"/>
<path fill-rule="evenodd" clip-rule="evenodd" d="M61.2777 81.4364C59.3819 81.9531 57.3137 82.8142 55.2455 83.8475C53.8667 84.5364 52.488 85.2253 51.1092 85.9142C50.5922 86.0865 50.0751 86.4309 49.7304 86.6031C49.5581 86.7754 49.5581 86.7754 49.3857 86.9476C49.2134 86.9476 49.041 86.9476 48.8687 87.1198C48.0069 87.292 47.4899 87.9809 46.9728 88.4976C46.6282 88.8421 46.1111 89.3587 45.7664 89.7032C44.9047 90.5643 44.3876 91.4254 43.6983 92.2866C42.3195 92.1143 41.2854 91.5977 39.7343 91.7699C38.8725 91.9421 38.1831 92.1144 37.8385 92.631C37.4938 92.9755 37.1491 93.8366 36.8044 94.0088C36.2873 94.181 35.2532 93.6644 35.0809 93.3199C34.9085 93.1477 34.9085 92.9755 34.7362 92.8033C34.5638 92.4588 33.7021 91.4254 33.3574 91.4254C33.0127 91.4254 32.668 91.7699 32.4957 91.7699C32.3233 91.9421 32.151 92.2866 31.9786 92.631C31.8063 92.9755 31.6339 93.3199 31.4616 93.4922C31.1169 93.8366 30.2551 93.8366 29.7381 94.0088C29.2211 94.181 28.8764 94.3533 28.187 94.5255C28.0146 94.0088 28.0146 93.1477 27.3252 93.1477C26.9805 93.1477 26.9805 93.8366 26.8082 94.181C26.8082 94.6977 26.9805 95.2144 26.8082 95.5589C26.8082 95.7311 26.4635 96.0755 26.2911 96.2478C26.1188 96.5922 25.9465 96.7644 25.7741 96.9367C25.4294 97.4533 25.2571 98.1422 24.9124 98.4867C24.3953 97.97 23.5336 98.3145 23.5336 99.0034C22.4995 97.7978 21.4654 96.7644 19.3973 96.9367C17.8461 97.1089 16.6397 97.7978 15.6056 98.4867C14.5715 99.1756 13.5375 99.8645 12.8481 100.726C12.5034 101.242 12.1587 101.759 11.9863 102.103C11.6416 102.62 11.1246 102.965 10.7799 103.309C9.91814 104.17 9.05641 104.859 8.36702 105.72C8.36702 105.892 8.36702 106.065 8.36702 106.237C8.19468 106.237 8.19468 106.237 8.02233 106.237C6.8159 108.131 5.95415 110.198 4.74772 112.092C3.71363 112.437 2.33486 113.126 1.47313 113.815C0.956083 114.159 0.266688 114.676 0.956078 115.193C1.12843 115.193 1.30078 115.02 1.47313 114.848C1.47313 114.676 1.47313 114.504 1.47313 114.331C2.50721 113.642 3.71365 112.954 5.09243 112.437C6.47121 110.542 7.50529 108.476 8.88407 106.581C8.88407 106.409 8.88407 106.409 8.88407 106.237C9.74581 106.237 10.2628 105.72 10.7799 105.203C11.1246 104.859 11.4693 104.342 11.9863 104.17C11.9863 105.376 11.814 107.27 12.8481 107.959C13.7098 108.648 15.2609 108.131 16.6397 107.959C16.6397 108.82 15.778 109.165 16.1227 110.37C15.9503 110.37 15.9503 110.542 15.778 110.542C15.4333 112.437 15.0886 114.504 14.9162 116.57C14.2268 117.259 13.7098 118.293 13.0204 119.154C12.6757 119.67 11.9863 120.015 12.6757 120.531C13.0204 120.359 13.1927 120.187 13.0204 119.67C13.7098 118.809 14.2268 117.776 15.0886 116.915C15.0886 116.398 15.2609 115.881 15.4333 115.365C15.6056 114.331 15.9503 113.298 16.1227 112.265C16.295 111.748 16.4674 110.715 16.295 110.37C17.5014 109.854 17.5014 108.304 18.3632 107.442C18.7079 107.098 19.2249 106.926 19.742 106.581C20.7761 106.065 21.6378 105.72 22.3272 105.203C22.6719 104.859 23.0166 104.515 23.3612 104.342C23.7059 104.515 23.706 104.859 24.0507 105.031C24.74 105.203 25.7741 104.859 25.9465 104.342C26.2912 103.481 25.2571 103.137 25.0847 102.448C25.2571 102.276 25.6018 102.103 25.7741 101.931C25.4294 103.653 27.3252 103.826 28.0146 102.62C28.3593 102.103 28.0146 101.587 28.3593 101.07C29.5658 101.415 29.3934 103.653 30.5998 103.826C30.4275 104.342 30.5998 104.687 30.7722 105.203C31.2892 106.926 32.3233 108.131 33.185 109.337C33.7021 110.026 34.0468 110.715 34.9085 110.715C35.0809 110.198 34.3915 109.854 34.0468 109.509C33.5297 108.992 33.1851 108.304 32.668 107.959C32.668 107.27 32.151 106.926 31.9786 106.237C31.6339 105.376 31.4616 104.342 30.9446 103.826C31.8063 103.653 31.2892 102.276 30.9446 101.587C32.8404 101.415 34.3915 100.553 35.2532 99.52C35.4256 99.3478 35.9426 98.6589 36.115 98.6589C36.2873 98.6589 36.4596 99.0034 36.632 99.1756C37.149 99.52 37.8384 99.8645 38.5278 99.8645C38.5278 99.8645 38.5278 100.037 38.5278 100.209C39.2172 100.898 39.7343 101.759 40.2513 102.448C40.9407 103.137 41.6301 103.826 42.1471 104.342C42.6642 104.17 43.1812 104.515 43.6983 104.515C44.0429 104.515 44.56 104.342 44.3876 103.826C43.6982 103.826 43.1812 103.653 42.4918 103.826C41.2854 102.448 40.2513 100.898 39.0449 99.52C39.0449 99.52 38.7002 99.6923 38.7002 99.52C38.5278 98.8311 38.0108 98.6589 37.6661 98.3145C37.3214 97.97 36.8044 97.7978 36.8044 97.4533C36.8044 97.1089 37.149 96.42 37.4937 96.2478C38.1831 97.4533 39.7343 98.6589 41.4577 98.6589C41.9748 98.6589 42.4918 98.6589 43.0089 98.6589C43.8706 98.8311 45.2494 99.0034 46.1111 98.8311C47.1452 98.6589 47.6623 97.7978 47.3176 96.7644C46.9729 95.7311 45.7664 94.87 45.4217 93.8366C46.4558 93.4921 47.6622 92.4588 48.8687 92.2866C49.3857 92.2866 49.9028 92.1143 50.4198 92.2866C50.7645 92.2866 50.9368 92.631 51.2815 92.4588C51.4539 92.4588 51.4539 92.1144 51.4539 91.9421C50.5922 91.5977 49.7304 91.4255 48.524 91.7699C48.0069 91.9421 47.4899 92.2866 46.9728 92.4588C46.4558 92.8032 45.077 93.3199 44.7323 92.631C44.56 92.1144 45.2494 91.2532 45.4217 90.9088C46.4558 89.7032 47.6622 88.6698 48.8687 87.8087C49.2134 87.4643 49.7304 87.292 49.9028 86.9476C50.9369 86.2587 51.9709 85.742 53.1774 85.2253C55.4179 84.0198 58.0031 82.8142 60.416 81.9531C60.933 81.7808 61.6224 81.7808 61.7947 81.2642C61.6224 81.2642 61.4501 81.4364 61.2777 81.4364ZM25.9465 101.415C26.1188 101.242 25.9465 100.898 25.9465 100.553C26.4635 100.726 26.2912 101.415 25.9465 101.415ZM32.8404 93.3199C32.8404 92.8032 33.0127 92.631 33.0127 92.1143C33.5298 92.4588 33.8745 93.1477 34.3915 93.4922C33.8745 93.4922 33.1851 93.4921 32.8404 93.3199Z" fill="#7768D5"/>
<path fill-rule="evenodd" clip-rule="evenodd" d="M61.2777 280.873C59.3819 281.39 57.3137 282.251 55.2455 283.284C53.8667 283.973 52.488 284.662 51.1092 285.351C50.5922 285.523 50.0751 285.867 49.7304 286.04C49.5581 286.212 49.5581 286.212 49.3857 286.384C49.2134 286.384 49.041 286.384 48.8687 286.556C48.0069 286.729 47.4899 287.417 46.9728 287.934C46.6282 288.279 46.1111 288.795 45.7664 289.14C44.9047 290.001 44.3876 290.862 43.6983 291.723C42.3195 291.551 41.2854 291.034 39.7343 291.206C38.8725 291.379 38.1831 291.551 37.8385 292.068C37.4938 292.412 37.1491 293.273 36.8044 293.445C36.2873 293.618 35.2532 293.101 35.0809 292.756C34.9085 292.584 34.9085 292.412 34.7362 292.24C34.5638 291.895 33.7021 290.862 33.3574 290.862C33.0127 290.862 32.668 291.206 32.4957 291.206C32.3233 291.379 32.151 291.723 31.9786 292.068C31.8063 292.412 31.6339 292.756 31.4616 292.929C31.1169 293.273 30.2551 293.273 29.7381 293.445C29.2211 293.618 28.8764 293.79 28.187 293.962C28.0146 293.445 28.0146 292.584 27.3252 292.584C26.9805 292.584 26.9805 293.273 26.8082 293.618C26.8082 294.134 26.9805 294.651 26.8082 294.995C26.8082 295.168 26.4635 295.512 26.2911 295.684C26.1188 296.029 25.9465 296.201 25.7741 296.373C25.4294 296.89 25.2571 297.579 24.9124 297.923C24.3953 297.406 23.5336 297.751 23.5336 298.44C22.4995 297.234 21.4654 296.201 19.3973 296.373C17.8461 296.545 16.6397 297.234 15.6056 297.923C14.5715 298.612 13.5375 299.301 12.8481 300.162C12.5034 300.679 12.1587 301.195 11.9863 301.54C11.6416 302.057 11.1246 302.401 10.7799 302.745C9.91814 303.607 9.05641 304.295 8.36702 305.157C8.36702 305.329 8.36702 305.501 8.36702 305.673C8.19468 305.673 8.19468 305.673 8.02233 305.673C6.8159 307.568 5.95415 309.634 4.74772 311.529C3.71363 311.873 2.33486 312.562 1.47313 313.251C0.956083 313.596 0.266688 314.112 0.956078 314.629C1.12843 314.629 1.30078 314.457 1.47313 314.285C1.47313 314.112 1.47313 313.94 1.47313 313.768C2.50721 313.079 3.71365 312.39 5.09243 311.873C6.47121 309.979 7.50529 307.912 8.88407 306.018C8.88407 305.845 8.88407 305.845 8.88407 305.673C9.74581 305.673 10.2628 305.157 10.7799 304.64C11.1246 304.295 11.4693 303.779 11.9863 303.607C11.9863 304.812 11.814 306.707 12.8481 307.396C13.7098 308.084 15.2609 307.568 16.6397 307.396C16.6397 308.257 15.778 308.601 16.1227 309.807C15.9503 309.807 15.9503 309.979 15.778 309.979C15.4333 311.873 15.0886 313.94 14.9162 316.007C14.2268 316.696 13.7098 317.729 13.0204 318.59C12.6757 319.107 11.9863 319.451 12.6757 319.968C13.0204 319.796 13.1927 319.623 13.0204 319.107C13.7098 318.246 14.2268 317.212 15.0886 316.351C15.0886 315.835 15.2609 315.318 15.4333 314.801C15.6056 313.768 15.9503 312.734 16.1227 311.701C16.295 311.184 16.4674 310.151 16.295 309.807C17.5014 309.29 17.5014 307.74 18.3632 306.879C18.7079 306.534 19.2249 306.362 19.742 306.018C20.7761 305.501 21.6378 305.157 22.3272 304.64C22.6719 304.295 23.0166 303.951 23.3612 303.779C23.7059 303.951 23.706 304.295 24.0507 304.468C24.74 304.64 25.7741 304.295 25.9465 303.779C26.2912 302.918 25.2571 302.573 25.0847 301.884C25.2571 301.712 25.6018 301.54 25.7741 301.368C25.4294 303.09 27.3252 303.262 28.0146 302.057C28.3593 301.54 28.0146 301.023 28.3593 300.507C29.5658 300.851 29.3934 303.09 30.5998 303.262C30.4275 303.779 30.5998 304.123 30.7722 304.64C31.2892 306.362 32.3233 307.568 33.185 308.773C33.7021 309.462 34.0468 310.151 34.9085 310.151C35.0809 309.634 34.3915 309.29 34.0468 308.946C33.5297 308.429 33.1851 307.74 32.668 307.396C32.668 306.707 32.151 306.362 31.9786 305.673C31.6339 304.812 31.4616 303.779 30.9446 303.262C31.8063 303.09 31.2892 301.712 30.9446 301.023C32.8404 300.851 34.3915 299.99 35.2532 298.957C35.4256 298.784 35.9426 298.095 36.115 298.095C36.2873 298.095 36.4596 298.44 36.632 298.612C37.149 298.956 37.8384 299.301 38.5278 299.301C38.5278 299.301 38.5278 299.473 38.5278 299.645C39.2172 300.334 39.7343 301.195 40.2513 301.884C40.9407 302.573 41.6301 303.262 42.1471 303.779C42.6642 303.607 43.1812 303.951 43.6983 303.951C44.0429 303.951 44.56 303.779 44.3876 303.262C43.6982 303.262 43.1812 303.09 42.4918 303.262C41.2854 301.884 40.2513 300.334 39.0449 298.957C39.0449 298.957 38.7002 299.129 38.7002 298.957C38.5278 298.268 38.0108 298.095 37.6661 297.751C37.3214 297.406 36.8044 297.234 36.8044 296.89C36.8044 296.545 37.149 295.856 37.4937 295.684C38.1831 296.89 39.7343 298.095 41.4577 298.095C41.9748 298.095 42.4918 298.095 43.0089 298.095C43.8706 298.268 45.2494 298.44 46.1111 298.268C47.1452 298.095 47.6623 297.234 47.3176 296.201C46.9729 295.168 45.7664 294.306 45.4217 293.273C46.4558 292.929 47.6622 291.895 48.8687 291.723C49.3857 291.723 49.9028 291.551 50.4198 291.723C50.7645 291.723 50.9368 292.068 51.2815 291.895C51.4539 291.895 51.4539 291.551 51.4539 291.379C50.5922 291.034 49.7304 290.862 48.524 291.206C48.0069 291.379 47.4899 291.723 46.9728 291.895C46.4558 292.24 45.077 292.756 44.7323 292.068C44.56 291.551 45.2494 290.69 45.4217 290.345C46.4558 289.14 47.6622 288.106 48.8687 287.245C49.2134 286.901 49.7304 286.729 49.9028 286.384C50.9369 285.695 51.9709 285.179 53.1774 284.662C55.4179 283.456 58.0031 282.251 60.416 281.39C60.933 281.217 61.6224 281.217 61.7947 280.701C61.6224 280.701 61.4501 280.873 61.2777 280.873ZM25.9465 300.851C26.1188 300.679 25.9465 300.334 25.9465 299.99C26.4635 300.162 26.2912 300.679 25.9465 300.851ZM32.8404 292.756C32.8404 292.24 33.0127 292.068 33.0127 291.551C33.5298 291.895 33.8745 292.584 34.3915 292.929C33.8745 292.929 33.1851 292.929 32.8404 292.756Z" fill="#7768D5"/>
<path fill-rule="evenodd" clip-rule="evenodd" d="M61.2777 347.351C59.3819 347.868 57.3137 348.729 55.2455 349.763C53.8667 350.451 52.488 351.14 51.1092 351.829C50.5922 352.001 50.0751 352.346 49.7304 352.518C49.5581 352.69 49.5581 352.69 49.3857 352.863C49.2134 352.863 49.041 352.863 48.8687 353.035C48.0069 353.207 47.4899 353.896 46.9728 354.413C46.6282 354.757 46.1111 355.274 45.7664 355.618C44.9047 356.479 44.3876 357.34 43.6983 358.202C42.3195 358.029 41.2854 357.513 39.7343 357.685C38.8725 357.857 38.1831 358.029 37.8385 358.546C37.4938 358.891 37.1491 359.752 36.8044 359.924C36.2873 360.096 35.2532 359.579 35.0809 359.235C34.9085 359.063 34.9085 358.89 34.7362 358.718C34.5638 358.374 33.7021 357.34 33.3574 357.34C33.0127 357.34 32.668 357.685 32.4957 357.685C32.3233 357.857 32.151 358.202 31.9786 358.546C31.8063 358.891 31.6339 359.235 31.4616 359.407C31.1169 359.752 30.2551 359.752 29.7381 359.924C29.2211 360.096 28.8764 360.268 28.187 360.441C28.0146 359.924 28.0146 359.063 27.3252 359.063C26.9805 359.063 26.9805 359.752 26.8082 360.096C26.8082 360.613 26.9805 361.129 26.8082 361.474C26.8082 361.646 26.4635 361.991 26.2911 362.163C26.1188 362.507 25.9465 362.679 25.7741 362.852C25.4294 363.368 25.2571 364.057 24.9124 364.402C24.3953 363.885 23.5336 364.229 23.5336 364.918C22.4995 363.713 21.4654 362.679 19.3973 362.852C17.8461 363.024 16.6397 363.713 15.6056 364.402C14.5715 365.091 13.5375 365.78 12.8481 366.641C12.5034 367.157 12.1587 367.674 11.9863 368.018C11.6416 368.535 11.1246 368.88 10.7799 369.224C9.91814 370.085 9.05641 370.774 8.36702 371.635C8.36702 371.807 8.36702 371.98 8.36702 372.152C8.19468 372.152 8.19468 372.152 8.02233 372.152C6.8159 374.046 5.95415 376.113 4.74772 378.008C3.71363 378.352 2.33486 379.041 1.47313 379.73C0.956083 380.074 0.266688 380.591 0.956078 381.108C1.12843 381.108 1.30078 380.935 1.47313 380.763C1.47313 380.591 1.47313 380.419 1.47313 380.246C2.50721 379.558 3.71365 378.869 5.09243 378.352C6.47121 376.458 7.50529 374.391 8.88407 372.496C8.88407 372.324 8.88407 372.324 8.88407 372.152C9.74581 372.152 10.2628 371.635 10.7799 371.119C11.1246 370.774 11.4693 370.257 11.9863 370.085C11.9863 371.291 11.814 373.185 12.8481 373.874C13.7098 374.563 15.2609 374.046 16.6397 373.874C16.6397 374.735 15.778 375.08 16.1227 376.285C15.9503 376.285 15.9503 376.458 15.778 376.458C15.4333 378.352 15.0886 380.419 14.9162 382.485C14.2268 383.174 13.7098 384.208 13.0204 385.069C12.6757 385.585 11.9863 385.93 12.6757 386.447C13.0204 386.274 13.1927 386.102 13.0204 385.585C13.7098 384.724 14.2268 383.691 15.0886 382.83C15.0886 382.313 15.2609 381.796 15.4333 381.28C15.6056 380.246 15.9503 379.213 16.1227 378.18C16.295 377.663 16.4674 376.63 16.295 376.285C17.5014 375.769 17.5014 374.219 18.3632 373.357C18.7079 373.013 19.2249 372.841 19.742 372.496C20.7761 371.98 21.6378 371.635 22.3272 371.119C22.6719 370.774 23.0166 370.43 23.3612 370.257C23.7059 370.43 23.706 370.774 24.0507 370.946C24.74 371.119 25.7741 370.774 25.9465 370.257C26.2912 369.396 25.2571 369.052 25.0847 368.363C25.2571 368.191 25.6018 368.018 25.7741 367.846C25.4294 369.568 27.3252 369.741 28.0146 368.535C28.3593 368.018 28.0146 367.502 28.3593 366.985C29.5658 367.33 29.3934 369.569 30.5998 369.741C30.4275 370.257 30.5998 370.602 30.7722 371.119C31.2892 372.841 32.3233 374.046 33.185 375.252C33.7021 375.941 34.0468 376.63 34.9085 376.63C35.0809 376.113 34.3915 375.769 34.0468 375.424C33.5297 374.907 33.1851 374.219 32.668 373.874C32.668 373.185 32.151 372.841 31.9786 372.152C31.6339 371.291 31.4616 370.257 30.9446 369.741C31.8063 369.569 31.2892 368.191 30.9446 367.502C32.8404 367.33 34.3915 366.468 35.2532 365.435C35.4256 365.263 35.9426 364.574 36.115 364.574C36.2873 364.574 36.4596 364.918 36.632 365.091C37.149 365.435 37.8384 365.78 38.5278 365.78C38.5278 365.78 38.5278 365.952 38.5278 366.124C39.2172 366.813 39.7343 367.674 40.2513 368.363C40.9407 369.052 41.6301 369.741 42.1471 370.257C42.6642 370.085 43.1812 370.43 43.6983 370.43C44.0429 370.43 44.56 370.257 44.3876 369.741C43.6982 369.741 43.1812 369.569 42.4918 369.741C41.2854 368.363 40.2513 366.813 39.0449 365.435C39.0449 365.435 38.7002 365.607 38.7002 365.435C38.5278 364.746 38.0108 364.574 37.6661 364.23C37.3214 363.885 36.8044 363.713 36.8044 363.368C36.8044 363.024 37.149 362.335 37.4937 362.163C38.1831 363.368 39.7343 364.574 41.4577 364.574C41.9748 364.574 42.4918 364.574 43.0089 364.574C43.8706 364.746 45.2494 364.918 46.1111 364.746C47.1452 364.574 47.6623 363.713 47.3176 362.679C46.9729 361.646 45.7664 360.785 45.4217 359.752C46.4558 359.407 47.6622 358.374 48.8687 358.202C49.3857 358.202 49.9028 358.029 50.4198 358.202C50.7645 358.202 50.9368 358.546 51.2815 358.374C51.4539 358.374 51.4539 358.029 51.4539 357.857C50.5922 357.513 49.7304 357.341 48.524 357.685C48.0069 357.857 47.4899 358.202 46.9728 358.374C46.4558 358.718 45.077 359.235 44.7323 358.546C44.56 358.029 45.2494 357.168 45.4217 356.824C46.4558 355.618 47.6622 354.585 48.8687 353.724C49.2134 353.379 49.7304 353.207 49.9028 352.863C50.9369 352.174 51.9709 351.657 53.1774 351.14C55.4179 349.935 58.0031 348.729 60.416 347.868C60.933 347.696 61.6224 347.696 61.7947 347.179C61.6224 347.179 61.4501 347.351 61.2777 347.351ZM25.9465 367.33C26.1188 367.157 25.9465 366.813 25.9465 366.468C26.4635 366.641 26.2912 367.157 25.9465 367.33ZM32.8404 359.235C32.8404 358.718 33.0127 358.546 33.0127 358.029C33.5298 358.374 33.8745 359.063 34.3915 359.407C33.8745 359.407 33.1851 359.407 32.8404 359.235Z" fill="#7768D5"/>
<path fill-rule="evenodd" clip-rule="evenodd" d="M61.2777 147.915C59.3819 148.432 57.3137 149.293 55.2455 150.326C53.8667 151.015 52.488 151.704 51.1092 152.393C50.5922 152.565 50.0751 152.91 49.7304 153.082C49.5581 153.254 49.5581 153.254 49.3857 153.426C49.2134 153.426 49.041 153.426 48.8687 153.599C48.0069 153.771 47.4899 154.46 46.9728 154.976C46.6282 155.321 46.1111 155.837 45.7664 156.182C44.9047 157.043 44.3876 157.904 43.6983 158.765C42.3195 158.593 41.2854 158.076 39.7343 158.249C38.8725 158.421 38.1831 158.593 37.8385 159.11C37.4938 159.454 37.1491 160.315 36.8044 160.488C36.2873 160.66 35.2532 160.143 35.0809 159.799C34.9085 159.626 34.9085 159.454 34.7362 159.282C34.5638 158.938 33.7021 157.904 33.3574 157.904C33.0127 157.904 32.668 158.249 32.4957 158.249C32.3233 158.421 32.151 158.765 31.9786 159.11C31.8063 159.454 31.6339 159.799 31.4616 159.971C31.1169 160.315 30.2551 160.315 29.7381 160.488C29.2211 160.66 28.8764 160.832 28.187 161.004C28.0146 160.488 28.0146 159.626 27.3252 159.626C26.9805 159.626 26.9805 160.315 26.8082 160.66C26.8082 161.176 26.9805 161.693 26.8082 162.038C26.8082 162.21 26.4635 162.554 26.2911 162.727C26.1188 163.071 25.9465 163.243 25.7741 163.415C25.4294 163.932 25.2571 164.621 24.9124 164.965C24.3953 164.449 23.5336 164.793 23.5336 165.482C22.4995 164.277 21.4654 163.243 19.3973 163.415C17.8461 163.588 16.6397 164.277 15.6056 164.965C14.5715 165.654 13.5375 166.343 12.8481 167.204C12.5034 167.721 12.1587 168.238 11.9863 168.582C11.6416 169.099 11.1246 169.443 10.7799 169.788C9.91814 170.649 9.05641 171.338 8.36702 172.199C8.36702 172.371 8.36702 172.543 8.36702 172.716C8.19468 172.716 8.19468 172.716 8.02233 172.716C6.8159 174.61 5.95415 176.677 4.74772 178.571C3.71363 178.916 2.33486 179.605 1.47313 180.293C0.956083 180.638 0.266688 181.155 0.956078 181.671C1.12843 181.671 1.30078 181.499 1.47313 181.327C1.47313 181.155 1.47313 180.982 1.47313 180.81C2.50721 180.121 3.71365 179.432 5.09243 178.916C6.47121 177.021 7.50529 174.955 8.88407 173.06C8.88407 172.888 8.88407 172.888 8.88407 172.716C9.74581 172.716 10.2628 172.199 10.7799 171.682C11.1246 171.338 11.4693 170.821 11.9863 170.649C11.9863 171.854 11.814 173.749 12.8481 174.438C13.7098 175.127 15.2609 174.61 16.6397 174.438C16.6397 175.299 15.778 175.643 16.1227 176.849C15.9503 176.849 15.9503 177.021 15.778 177.021C15.4333 178.916 15.0886 180.982 14.9162 183.049C14.2268 183.738 13.7098 184.771 13.0204 185.632C12.6757 186.149 11.9863 186.494 12.6757 187.01C13.0204 186.838 13.1927 186.666 13.0204 186.149C13.7098 185.288 14.2268 184.255 15.0886 183.394C15.0886 182.877 15.2609 182.36 15.4333 181.844C15.6056 180.81 15.9503 179.777 16.1227 178.743C16.295 178.227 16.4674 177.193 16.295 176.849C17.5014 176.332 17.5014 174.782 18.3632 173.921C18.7079 173.577 19.2249 173.404 19.742 173.06C20.7761 172.543 21.6378 172.199 22.3272 171.682C22.6719 171.338 23.0166 170.993 23.3612 170.821C23.7059 170.993 23.706 171.338 24.0507 171.51C24.74 171.682 25.7741 171.338 25.9465 170.821C26.2912 169.96 25.2571 169.616 25.0847 168.927C25.2571 168.754 25.6018 168.582 25.7741 168.41C25.4294 170.132 27.3252 170.304 28.0146 169.099C28.3593 168.582 28.0146 168.066 28.3593 167.549C29.5658 167.893 29.3934 170.132 30.5998 170.304C30.4275 170.821 30.5998 171.166 30.7722 171.682C31.2892 173.404 32.3233 174.61 33.185 175.816C33.7021 176.505 34.0468 177.193 34.9085 177.193C35.0809 176.677 34.3915 176.332 34.0468 175.988C33.5297 175.471 33.1851 174.782 32.668 174.438C32.668 173.749 32.151 173.404 31.9786 172.716C31.6339 171.854 31.4616 170.821 30.9446 170.304C31.8063 170.132 31.2892 168.754 30.9446 168.066C32.8404 167.893 34.3915 167.032 35.2532 165.999C35.4256 165.827 35.9426 165.138 36.115 165.138C36.2873 165.138 36.4596 165.482 36.632 165.654C37.149 165.999 37.8384 166.343 38.5278 166.343C38.5278 166.343 38.5278 166.515 38.5278 166.688C39.2172 167.377 39.7343 168.238 40.2513 168.927C40.9407 169.616 41.6301 170.304 42.1471 170.821C42.6642 170.649 43.1812 170.993 43.6983 170.993C44.0429 170.993 44.56 170.821 44.3876 170.304C43.6982 170.304 43.1812 170.132 42.4918 170.304C41.2854 168.927 40.2513 167.377 39.0449 165.999C39.0449 165.999 38.7002 166.171 38.7002 165.999C38.5278 165.31 38.0108 165.138 37.6661 164.793C37.3214 164.449 36.8044 164.277 36.8044 163.932C36.8044 163.588 37.149 162.899 37.4937 162.727C38.1831 163.932 39.7343 165.138 41.4577 165.138C41.9748 165.138 42.4918 165.138 43.0089 165.138C43.8706 165.31 45.2494 165.482 46.1111 165.31C47.1452 165.138 47.6623 164.277 47.3176 163.243C46.9729 162.21 45.7664 161.349 45.4217 160.315C46.4558 159.971 47.6622 158.938 48.8687 158.765C49.3857 158.765 49.9028 158.593 50.4198 158.765C50.7645 158.765 50.9368 159.11 51.2815 158.938C51.4539 158.938 51.4539 158.593 51.4539 158.421C50.5922 158.076 49.7304 157.904 48.524 158.249C48.0069 158.421 47.4899 158.765 46.9728 158.938C46.4558 159.282 45.077 159.799 44.7323 159.11C44.56 158.593 45.2494 157.732 45.4217 157.388C46.4558 156.182 47.6622 155.149 48.8687 154.287C49.2134 153.943 49.7304 153.771 49.9028 153.426C50.9369 152.737 51.9709 152.221 53.1774 151.704C55.4179 150.499 58.0031 149.293 60.416 148.432C60.933 148.26 61.6224 148.26 61.7947 147.743C61.6224 147.743 61.4501 147.915 61.2777 147.915ZM25.9465 167.893C26.1188 167.721 25.9465 167.377 25.9465 167.032C26.4635 167.204 26.2912 167.893 25.9465 167.893ZM32.8404 159.799C32.8404 159.282 33.0127 159.11 33.0127 158.593C33.5298 158.938 33.8745 159.626 34.3915 159.971C33.8745 159.971 33.1851 159.971 32.8404 159.799Z" fill="#7768D5"/>
<path fill-rule="evenodd" clip-rule="evenodd" d="M61.2777 214.394C59.3819 214.911 57.3137 215.772 55.2455 216.805C53.8667 217.494 52.488 218.183 51.1092 218.872C50.5922 219.044 50.0751 219.388 49.7304 219.561C49.5581 219.733 49.5581 219.733 49.3857 219.905C49.2134 219.905 49.041 219.905 48.8687 220.077C48.0069 220.25 47.4899 220.938 46.9728 221.455C46.6282 221.8 46.1111 222.316 45.7664 222.661C44.9047 223.522 44.3876 224.383 43.6983 225.244C42.3195 225.072 41.2854 224.555 39.7343 224.727C38.8725 224.9 38.1831 225.072 37.8385 225.589C37.4938 225.933 37.1491 226.794 36.8044 226.966C36.2873 227.139 35.2532 226.622 35.0809 226.277C34.9085 226.105 34.9085 225.933 34.7362 225.761C34.5638 225.416 33.7021 224.383 33.3574 224.383C33.0127 224.383 32.668 224.727 32.4957 224.727C32.3233 224.9 32.151 225.244 31.9786 225.589C31.8063 225.933 31.6339 226.277 31.4616 226.45C31.1169 226.794 30.2551 226.794 29.7381 226.966C29.2211 227.139 28.8764 227.311 28.187 227.483C28.0146 226.966 28.0146 226.105 27.3252 226.105C26.9805 226.105 26.9805 226.794 26.8082 227.139C26.8082 227.655 26.9805 228.172 26.8082 228.516C26.8082 228.689 26.4635 229.033 26.2911 229.205C26.1188 229.55 25.9465 229.722 25.7741 229.894C25.4294 230.411 25.2571 231.1 24.9124 231.444C24.3953 230.928 23.5336 231.272 23.5336 231.961C22.4995 230.755 21.4654 229.722 19.3973 229.894C17.8461 230.066 16.6397 230.755 15.6056 231.444C14.5715 232.133 13.5375 232.822 12.8481 233.683C12.5034 234.2 12.1587 234.716 11.9863 235.061C11.6416 235.578 11.1246 235.922 10.7799 236.267C9.91814 237.128 9.05641 237.817 8.36702 238.678C8.36702 238.85 8.36702 239.022 8.36702 239.194C8.19468 239.194 8.19468 239.194 8.02233 239.194C6.8159 241.089 5.95415 243.156 4.74772 245.05C3.71363 245.394 2.33486 246.083 1.47313 246.772C0.956083 247.117 0.266688 247.633 0.956078 248.15C1.12843 248.15 1.30078 247.978 1.47313 247.806C1.47313 247.633 1.47313 247.461 1.47313 247.289C2.50721 246.6 3.71365 245.911 5.09243 245.394C6.47121 243.5 7.50529 241.433 8.88407 239.539C8.88407 239.367 8.88407 239.367 8.88407 239.194C9.74581 239.194 10.2628 238.678 10.7799 238.161C11.1246 237.817 11.4693 237.3 11.9863 237.128C11.9863 238.333 11.814 240.228 12.8481 240.917C13.7098 241.605 15.2609 241.089 16.6397 240.917C16.6397 241.778 15.778 242.122 16.1227 243.328C15.9503 243.328 15.9503 243.5 15.778 243.5C15.4333 245.394 15.0886 247.461 14.9162 249.528C14.2268 250.217 13.7098 251.25 13.0204 252.111C12.6757 252.628 11.9863 252.972 12.6757 253.489C13.0204 253.317 13.1927 253.145 13.0204 252.628C13.7098 251.767 14.2268 250.733 15.0886 249.872C15.0886 249.356 15.2609 248.839 15.4333 248.322C15.6056 247.289 15.9503 246.256 16.1227 245.222C16.295 244.706 16.4674 243.672 16.295 243.328C17.5014 242.811 17.5014 241.261 18.3632 240.4C18.7079 240.055 19.2249 239.883 19.742 239.539C20.7761 239.022 21.6378 238.678 22.3272 238.161C22.6719 237.817 23.0166 237.472 23.3612 237.3C23.7059 237.472 23.706 237.817 24.0507 237.989C24.74 238.161 25.7741 237.817 25.9465 237.3C26.2912 236.439 25.2571 236.094 25.0847 235.405C25.2571 235.233 25.6018 235.061 25.7741 234.889C25.4294 236.611 27.3252 236.783 28.0146 235.578C28.3593 235.061 28.0146 234.544 28.3593 234.028C29.5658 234.372 29.3934 236.611 30.5998 236.783C30.4275 237.3 30.5998 237.644 30.7722 238.161C31.2892 239.883 32.3233 241.089 33.185 242.294C33.7021 242.983 34.0468 243.672 34.9085 243.672C35.0809 243.156 34.3915 242.811 34.0468 242.467C33.5297 241.95 33.1851 241.261 32.668 240.917C32.668 240.228 32.151 239.883 31.9786 239.194C31.6339 238.333 31.4616 237.3 30.9446 236.783C31.8063 236.611 31.2892 235.233 30.9446 234.544C32.8404 234.372 34.3915 233.511 35.2532 232.478C35.4256 232.305 35.9426 231.616 36.115 231.616C36.2873 231.616 36.4596 231.961 36.632 232.133C37.149 232.478 37.8384 232.822 38.5278 232.822C38.5278 232.822 38.5278 232.994 38.5278 233.166C39.2172 233.855 39.7343 234.716 40.2513 235.405C40.9407 236.094 41.6301 236.783 42.1471 237.3C42.6642 237.128 43.1812 237.472 43.6983 237.472C44.0429 237.472 44.56 237.3 44.3876 236.783C43.6982 236.783 43.1812 236.611 42.4918 236.783C41.2854 235.405 40.2513 233.855 39.0449 232.478C39.0449 232.478 38.7002 232.65 38.7002 232.478C38.5278 231.789 38.0108 231.616 37.6661 231.272C37.3214 230.928 36.8044 230.755 36.8044 230.411C36.8044 230.066 37.149 229.378 37.4937 229.205C38.1831 230.411 39.7343 231.616 41.4577 231.616C41.9748 231.616 42.4918 231.616 43.0089 231.616C43.8706 231.789 45.2494 231.961 46.1111 231.789C47.1452 231.616 47.6623 230.755 47.3176 229.722C46.9729 228.689 45.7664 227.827 45.4217 226.794C46.4558 226.45 47.6622 225.416 48.8687 225.244C49.3857 225.244 49.9028 225.072 50.4198 225.244C50.7645 225.244 50.9368 225.589 51.2815 225.416C51.4539 225.416 51.4539 225.072 51.4539 224.9C50.5922 224.555 49.7304 224.383 48.524 224.727C48.0069 224.9 47.4899 225.244 46.9728 225.416C46.4558 225.761 45.077 226.277 44.7323 225.589C44.56 225.072 45.2494 224.211 45.4217 223.866C46.4558 222.661 47.6622 221.627 48.8687 220.766C49.2134 220.422 49.7304 220.25 49.9028 219.905C50.9369 219.216 51.9709 218.7 53.1774 218.183C55.4179 216.977 58.0031 215.772 60.416 214.911C60.933 214.738 61.6224 214.738 61.7947 214.222C61.6224 214.222 61.4501 214.394 61.2777 214.394ZM25.9465 234.372C26.1188 234.2 25.9465 233.855 25.9465 233.511C26.4635 233.683 26.2912 234.2 25.9465 234.372ZM32.8404 226.277C32.8404 225.761 33.0127 225.589 33.0127 225.072C33.5298 225.416 33.8745 226.105 34.3915 226.45C33.8745 226.45 33.1851 226.45 32.8404 226.277Z" fill="#7768D5"/>
</svg>
