<svg width="46" height="420" viewBox="0 0 46 420" fill="none" xmlns="http://www.w3.org/2000/svg">
<path fill-rule="evenodd" clip-rule="evenodd" d="M-15.1562 48.1968C-14.8116 48.7135 -14.2945 48.7135 -13.7775 48.8857C-11.3646 49.9191 -8.77938 50.9524 -6.53886 52.158C-5.33243 52.6747 -4.29835 53.3636 -3.26427 53.8803C-3.09192 54.2247 -2.74721 54.3969 -2.23017 54.7414C-1.02374 55.6025 0.355045 56.6358 1.21678 57.8414C1.56148 58.1859 2.07851 59.047 1.90616 59.5637C1.73382 60.2526 0.355056 59.5637 -0.334335 59.3914C-0.851378 59.2192 -1.36844 58.8748 -1.88548 58.7025C-3.09191 58.3581 -3.95365 58.5303 -4.81539 58.8748C-4.81539 59.2192 -4.81538 59.3914 -4.64303 59.3914C-4.29833 59.5637 -4.12599 59.2192 -3.78129 59.2192C-3.26425 59.047 -2.74721 59.2192 -2.23017 59.2192C-1.02374 59.3914 0.182697 60.4248 1.21678 60.7692C0.872087 61.8026 -0.334356 62.4915 -0.679051 63.6971C-1.02375 64.7304 -0.506683 65.5915 0.527404 65.7638C1.56149 65.936 2.7679 65.7638 3.62964 65.5915C4.14668 65.4193 4.66374 65.5915 5.18079 65.5915C6.90426 65.4193 8.4554 64.386 9.14479 63.1804C9.48948 63.3526 9.83417 64.0415 9.83417 64.386C9.83417 64.7304 9.31713 65.0749 8.97243 65.2471C8.45539 65.5915 7.93834 65.7638 7.93834 66.4527C7.93834 66.6249 7.59365 66.4527 7.59365 66.4527C6.38721 67.8305 5.35312 69.3805 4.14669 70.7583C3.4573 70.5861 2.94027 70.7583 2.25088 70.7583C2.25088 71.275 2.59557 71.275 2.94026 71.4472C3.4573 71.4472 3.97434 71.1027 4.49138 71.275C5.18077 70.5861 5.87017 70.0694 6.38721 69.3805C7.07661 68.6916 7.59365 67.8305 8.11069 67.1416C8.11069 66.9693 8.28304 66.9693 8.11069 66.7971C8.80008 66.9693 9.48948 66.4527 10.0065 66.1082C10.1789 65.936 10.3512 65.5915 10.5236 65.5915C10.6959 65.5915 11.2129 66.1082 11.3853 66.4527C12.247 67.486 13.7982 68.3471 15.694 68.5194C15.3493 69.036 15.0046 70.4138 15.694 70.7583C15.1769 71.275 15.0046 72.3083 14.6599 73.1694C14.3152 73.8583 13.9705 74.375 13.9705 74.8917C13.4535 75.2361 13.1088 75.925 12.5917 76.4417C12.247 76.7862 11.5577 77.1306 11.73 77.6473C12.5917 77.6473 12.9364 76.9584 13.4535 76.2695C14.3152 75.0639 15.3493 73.8583 15.8663 72.1361C16.0387 71.7916 16.211 71.275 16.0387 70.7583C17.2451 70.5861 17.0728 68.3471 18.2792 68.0027C18.6239 68.5194 18.2792 68.8638 18.6239 69.5527C19.3133 70.7583 21.2091 70.5861 20.8644 68.8638C21.0368 68.8638 21.3815 69.2083 21.5538 69.3805C21.5538 70.0694 20.5197 70.4138 20.6921 71.275C20.8644 71.7916 21.8985 72.1361 22.5879 71.9639C22.9326 71.7916 22.9326 71.4472 23.2773 71.275C23.7943 71.4472 23.9667 71.7916 24.3114 72.1361C25.0008 72.6528 26.0348 73.1694 26.8966 73.5139C27.4136 73.6861 28.103 74.0306 28.2754 74.375C29.1371 75.2361 29.1371 76.9584 30.3435 77.3028C30.1712 77.6473 30.5159 78.6806 30.5159 79.1973C30.6882 80.2307 30.8606 81.264 31.2053 82.2974C31.3776 82.814 31.55 83.3307 31.55 83.8474C32.4117 84.7085 32.9288 85.7419 33.6182 86.603C33.4458 87.1197 33.7905 87.2919 33.9629 87.4641C34.6522 87.1197 34.1352 86.603 33.6182 86.0863C32.9288 85.2252 32.4117 84.1918 31.7223 83.5029C31.3776 81.4362 31.2053 79.3695 30.8606 77.4751C30.8606 77.4751 30.6882 77.3028 30.5159 77.3028C30.8606 76.2695 29.9988 75.7528 29.9988 74.8917C31.3776 75.0639 32.9288 75.5806 33.7905 74.8917C34.6522 74.2028 34.6522 72.3083 34.6522 71.1027C34.9969 71.275 35.3416 71.7916 35.8587 72.1361C36.3757 72.6528 36.8928 73.1694 37.7545 73.1694C37.7545 73.3417 37.7545 73.3417 37.7545 73.5139C38.9609 75.4084 40.1674 77.4751 41.5461 79.3695C42.9249 79.8862 44.1314 80.4029 45.1655 81.264C45.1655 81.4362 45.1655 81.6085 45.1655 81.7807C45.3378 81.9529 45.3378 82.1251 45.6825 82.1251C46.3719 81.6085 45.6825 81.0918 45.1655 80.7473C44.3037 80.0584 42.9249 79.3695 41.8909 79.0251C40.6844 77.1306 39.8227 74.8917 38.6162 73.1694C38.4439 73.1694 38.4439 73.1694 38.2715 73.1694C38.2715 72.9972 38.2715 72.825 38.2715 72.6528C37.5822 71.7916 36.7204 70.9305 35.8587 70.2416C35.3416 69.8972 34.9969 69.3805 34.6522 69.036C34.3075 68.5194 34.1352 68.0027 33.7905 67.6582C33.1011 66.7971 32.2394 66.1082 31.0329 65.4193C29.9989 64.7304 28.7924 64.0415 27.2413 63.8693C25.3455 63.6971 24.139 64.7304 23.1049 65.936C23.1049 65.2471 22.4155 64.9026 21.7262 65.4193C21.3815 65.0749 21.2091 64.386 20.8644 63.8693C20.6921 63.6971 20.5197 63.3526 20.3474 63.1804C20.175 63.0082 19.8303 62.6637 19.8303 62.4915C19.8303 62.147 19.8303 61.6304 19.8303 61.1137C19.8303 60.7692 19.658 60.2526 19.3133 60.0803C18.7963 59.9081 18.6239 60.9415 18.4516 61.4581C17.7622 61.2859 17.4175 61.1137 16.9004 60.9415C16.5557 60.7692 15.694 60.7692 15.177 60.4248C15.0046 60.2526 14.8323 59.9081 14.6599 59.5637C14.4876 59.2192 14.3152 58.8748 14.1429 58.7025C13.9705 58.5303 13.4535 58.1859 13.2811 58.3581C12.9364 58.3581 12.0747 59.3914 11.9023 59.7359C11.73 59.9081 11.73 60.0803 11.5576 60.2526C11.3853 60.4248 10.3512 61.1137 9.83417 60.9415C9.31713 60.7692 9.14477 59.9081 8.80007 59.5637C8.28303 59.047 7.59365 58.8748 6.90426 58.7025C5.18079 58.5303 4.31904 59.047 2.94026 59.2192C2.25087 58.5303 1.56149 57.497 0.872093 56.6358C0.527398 56.2914 0.0103607 55.7747 -0.334335 55.4303C-0.851378 54.9136 -1.36843 54.2247 -2.23017 54.0525C-2.40252 54.0525 -2.57487 54.0525 -2.74722 53.8803C-2.91957 53.8803 -2.91956 53.708 -3.09191 53.5358C-3.4366 53.1913 -3.95365 53.0191 -4.4707 52.8469C-5.84948 52.158 -7.22825 51.4691 -8.60703 50.7802C-10.5029 49.9191 -12.571 49.0579 -14.6392 48.369C-14.8115 48.1968 -14.9839 48.0246 -15.1562 48.1968ZM20.6921 67.486C20.6921 67.6582 20.5197 68.1749 20.6921 68.3471C20.3474 68.1749 20.175 67.486 20.6921 67.486ZM12.247 60.2526C12.7641 59.9081 13.1088 59.2192 13.6258 58.8748C13.6258 59.3914 13.7982 59.5637 13.7982 60.0803C13.4535 60.2526 12.7641 60.2526 12.247 60.2526Z" fill="#7768D5"/>
<path fill-rule="evenodd" clip-rule="evenodd" d="M-15.1562 114.676C-14.8116 115.193 -14.2945 115.193 -13.7775 115.365C-11.3646 116.398 -8.77938 117.432 -6.53886 118.637C-5.33243 119.154 -4.29835 119.843 -3.26427 120.359C-3.09192 120.704 -2.74721 120.876 -2.23017 121.221C-1.02374 122.082 0.355045 123.115 1.21678 124.321C1.56148 124.665 2.07851 125.526 1.90616 126.043C1.73382 126.732 0.355056 126.043 -0.334335 125.871C-0.851378 125.698 -1.36844 125.354 -1.88548 125.182C-3.09191 124.837 -3.95365 125.01 -4.81539 125.354C-4.81539 125.698 -4.81538 125.871 -4.64303 125.871C-4.29833 126.043 -4.12599 125.698 -3.78129 125.698C-3.26425 125.526 -2.74721 125.698 -2.23017 125.698C-1.02374 125.871 0.182697 126.904 1.21678 127.248C0.872087 128.282 -0.334356 128.971 -0.679051 130.176C-1.02375 131.21 -0.506683 132.071 0.527404 132.243C1.56149 132.415 2.7679 132.243 3.62964 132.071C4.14668 131.899 4.66374 132.071 5.18079 132.071C6.90426 131.899 8.4554 130.865 9.14479 129.66C9.48948 129.832 9.83417 130.521 9.83417 130.865C9.83417 131.21 9.31713 131.554 8.97243 131.726C8.45539 132.071 7.93834 132.243 7.93834 132.932C7.93834 133.104 7.59365 132.932 7.59365 132.932C6.38721 134.31 5.35312 135.86 4.14669 137.238C3.4573 137.065 2.94027 137.238 2.25088 137.238C2.25088 137.754 2.59557 137.754 2.94026 137.926C3.4573 137.926 3.97434 137.582 4.49138 137.754C5.18077 137.065 5.87017 136.549 6.38721 135.86C7.07661 135.171 7.59365 134.31 8.11069 133.621C8.11069 133.449 8.28304 133.449 8.11069 133.276C8.80008 133.449 9.48948 132.932 10.0065 132.587C10.1789 132.415 10.3512 132.071 10.5236 132.071C10.6959 132.071 11.2129 132.587 11.3853 132.932C12.247 133.965 13.7982 134.826 15.694 134.999C15.3493 135.515 15.0046 136.893 15.694 137.238C15.1769 137.754 15.0046 138.788 14.6599 139.649C14.3152 140.338 13.9705 140.854 13.9705 141.371C13.4535 141.715 13.1088 142.404 12.5917 142.921C12.247 143.265 11.5577 143.61 11.73 144.127C12.5917 144.127 12.9364 143.438 13.4535 142.749C14.3152 141.543 15.3493 140.338 15.8663 138.615C16.0387 138.271 16.211 137.754 16.0387 137.238C17.2451 137.065 17.0728 134.826 18.2792 134.482C18.6239 134.999 18.2792 135.343 18.6239 136.032C19.3133 137.238 21.2091 137.065 20.8644 135.343C21.0368 135.343 21.3815 135.688 21.5538 135.86C21.5538 136.549 20.5197 136.893 20.6921 137.754C20.8644 138.271 21.8985 138.615 22.5879 138.443C22.9326 138.271 22.9326 137.926 23.2773 137.754C23.7943 137.926 23.9667 138.271 24.3114 138.615C25.0008 139.132 26.0348 139.649 26.8966 139.993C27.4136 140.165 28.103 140.51 28.2754 140.854C29.1371 141.715 29.1371 143.438 30.3435 143.782C30.1712 144.127 30.5159 145.16 30.5159 145.677C30.6882 146.71 30.8606 147.743 31.2053 148.777C31.3776 149.293 31.55 149.81 31.55 150.327C32.4117 151.188 32.9288 152.221 33.6182 153.082C33.4458 153.599 33.7905 153.771 33.9629 153.943C34.6522 153.599 34.1352 153.082 33.6182 152.566C32.9288 151.704 32.4117 150.671 31.7223 149.982C31.3776 147.916 31.2053 145.849 30.8606 143.954C30.8606 143.954 30.6882 143.782 30.5159 143.782C30.8606 142.749 29.9988 142.232 29.9988 141.371C31.3776 141.543 32.9288 142.06 33.7905 141.371C34.6522 140.682 34.6522 138.788 34.6522 137.582C34.9969 137.754 35.3416 138.271 35.8587 138.615C36.3757 139.132 36.8928 139.649 37.7545 139.649C37.7545 139.821 37.7545 139.821 37.7545 139.993C38.9609 141.888 40.1674 143.954 41.5461 145.849C42.9249 146.365 44.1314 146.882 45.1655 147.743C45.1655 147.916 45.1655 148.088 45.1655 148.26C45.3378 148.432 45.3378 148.604 45.6825 148.604C46.3719 148.088 45.6825 147.571 45.1655 147.227C44.3037 146.538 42.9249 145.849 41.8909 145.504C40.6844 143.61 39.8227 141.371 38.6162 139.649C38.4439 139.649 38.4439 139.649 38.2715 139.649C38.2715 139.476 38.2715 139.304 38.2715 139.132C37.5822 138.271 36.7204 137.41 35.8587 136.721C35.3416 136.376 34.9969 135.86 34.6522 135.515C34.3075 134.999 34.1352 134.482 33.7905 134.137C33.1011 133.276 32.2394 132.587 31.0329 131.899C29.9989 131.21 28.7924 130.521 27.2413 130.349C25.3455 130.176 24.139 131.21 23.1049 132.415C23.1049 131.726 22.4155 131.382 21.7262 131.899C21.3815 131.554 21.2091 130.865 20.8644 130.349C20.6921 130.176 20.5197 129.832 20.3474 129.66C20.175 129.487 19.8303 129.143 19.8303 128.971C19.8303 128.626 19.8303 128.11 19.8303 127.593C19.8303 127.249 19.658 126.732 19.3133 126.56C18.7963 126.387 18.6239 127.421 18.4516 127.937C17.7622 127.765 17.4175 127.593 16.9004 127.421C16.5557 127.248 15.694 127.248 15.177 126.904C15.0046 126.732 14.8323 126.387 14.6599 126.043C14.4876 125.698 14.3152 125.354 14.1429 125.182C13.9705 125.01 13.4535 124.665 13.2811 124.837C12.9364 124.837 12.0747 125.871 11.9023 126.215C11.73 126.387 11.73 126.56 11.5576 126.732C11.3853 126.904 10.3512 127.593 9.83417 127.421C9.31713 127.248 9.14477 126.387 8.80007 126.043C8.28303 125.526 7.59365 125.354 6.90426 125.182C5.18079 125.01 4.31904 125.526 2.94026 125.698C2.25087 125.01 1.56149 123.976 0.872093 123.115C0.527398 122.771 0.0103607 122.254 -0.334335 121.91C-0.851378 121.393 -1.36843 120.704 -2.23017 120.532C-2.40252 120.532 -2.57487 120.532 -2.74722 120.359C-2.91957 120.359 -2.91956 120.187 -3.09191 120.015C-3.4366 119.671 -3.95365 119.498 -4.4707 119.326C-5.84948 118.637 -7.22825 117.948 -8.60703 117.259C-10.5029 116.398 -12.571 115.537 -14.6392 114.848C-14.8115 114.676 -14.9839 114.504 -15.1562 114.676ZM20.6921 133.793C20.6921 133.965 20.5197 134.482 20.6921 134.654C20.3474 134.654 20.175 133.965 20.6921 133.793ZM12.247 126.732C12.7641 126.387 13.1088 125.698 13.6258 125.354C13.6258 125.871 13.7982 126.043 13.7982 126.56C13.4535 126.732 12.7641 126.732 12.247 126.732Z" fill="#7768D5"/>
<path fill-rule="evenodd" clip-rule="evenodd" d="M-15.1562 -18.2817C-14.8116 -17.7651 -14.2945 -17.7651 -13.7775 -17.5928C-11.3646 -16.5595 -8.77938 -15.5261 -6.53886 -14.3206C-5.33243 -13.8039 -4.29835 -13.115 -3.26427 -12.5983C-3.09192 -12.2539 -2.74721 -12.0816 -2.23017 -11.7372C-1.02374 -10.8761 0.355045 -9.84272 1.21678 -8.63715C1.56148 -8.2927 2.07851 -7.43157 1.90616 -6.9149C1.73382 -6.226 0.355056 -6.91489 -0.334335 -7.08712C-0.851378 -7.25934 -1.36844 -7.6038 -1.88548 -7.77602C-3.09191 -8.12047 -3.95365 -7.94825 -4.81539 -7.6038C-4.81539 -7.25935 -4.81538 -7.08712 -4.64303 -7.08712C-4.29833 -6.91489 -4.12599 -7.25934 -3.78129 -7.25934C-3.26425 -7.43157 -2.74721 -7.25934 -2.23017 -7.25934C-1.02374 -7.08712 0.182697 -6.05378 1.21678 -5.70933C0.872087 -4.67598 -0.334356 -3.98707 -0.679051 -2.7815C-1.02375 -1.74815 -0.506683 -0.887028 0.527404 -0.714802C1.56149 -0.542578 2.7679 -0.7148 3.62964 -0.887024C4.14668 -1.05925 4.66374 -0.887024 5.18079 -0.887024C6.90426 -1.05925 8.4554 -2.0926 9.14479 -3.29818C9.48948 -3.12595 9.83417 -2.43704 9.83417 -2.09259C9.83417 -1.74814 9.31713 -1.40369 8.97243 -1.23147C8.45539 -0.88702 7.93834 -0.7148 7.93834 -0.0258999C7.93834 0.146324 7.59365 -0.0258999 7.59365 -0.0258999C6.38721 1.3519 5.35312 2.90192 4.14669 4.27972C3.4573 4.1075 2.94027 4.27972 2.25088 4.27972C2.25088 4.7964 2.59557 4.7964 2.94026 4.96863C3.4573 4.96863 3.97434 4.62418 4.49138 4.7964C5.18077 4.1075 5.87017 3.59082 6.38721 2.90192C7.07661 2.21302 7.59365 1.3519 8.11069 0.663002C8.11069 0.490778 8.28304 0.49077 8.11069 0.318544C8.80008 0.49077 9.48948 -0.0258942 10.0065 -0.370344C10.1789 -0.54257 10.3512 -0.887024 10.5236 -0.887024C10.6959 -0.887024 11.2129 -0.37035 11.3853 -0.0258999C12.247 1.00745 13.7982 1.86857 15.694 2.04079C15.3493 2.55747 15.0046 3.93527 15.694 4.27972C15.1769 4.7964 15.0046 5.82975 14.6599 6.69087C14.3152 7.37977 13.9705 7.89645 13.9705 8.41312C13.4535 8.75757 13.1088 9.44648 12.5917 9.96315C12.247 10.3076 11.5577 10.652 11.73 11.1687C12.5917 11.1687 12.9364 10.4798 13.4535 9.79091C14.3152 8.58534 15.3493 7.37978 15.8663 5.65753C16.0387 5.31308 16.211 4.7964 16.0387 4.27972C17.2451 4.1075 17.0728 1.86858 18.2792 1.52413C18.6239 2.0408 18.2792 2.38525 18.6239 3.07415C19.3133 4.27973 21.2091 4.1075 20.8644 2.38525C21.0368 2.38525 21.3815 2.72969 21.5538 2.90192C21.5538 3.59082 20.5197 3.93528 20.6921 4.7964C20.8644 5.31308 21.8985 5.65752 22.5879 5.48529C22.9326 5.31307 22.9326 4.96863 23.2773 4.7964C23.7943 4.96863 23.9667 5.31308 24.3114 5.65753C25.0008 6.1742 26.0348 6.69087 26.8966 7.03532C27.4136 7.20754 28.103 7.55199 28.2754 7.89644C29.1371 8.75757 29.1371 10.4798 30.3435 10.8243C30.1712 11.1687 30.5159 12.2021 30.5159 12.7187C30.6882 13.7521 30.8606 14.7854 31.2053 15.8188C31.3776 16.3355 31.55 16.8521 31.55 17.3688C32.4117 18.2299 32.9288 19.2633 33.6182 20.1244C33.4458 20.6411 33.7905 20.8133 33.9629 20.9855C34.6522 20.6411 34.1352 20.1244 33.6182 19.6077C32.9288 18.7466 32.4117 17.7133 31.7223 17.0244C31.3776 14.9577 31.2053 12.891 30.8606 10.9965C30.8606 10.9965 30.6882 10.8243 30.5159 10.8243C30.8606 9.79093 29.9988 9.27425 29.9988 8.41312C31.3776 8.58535 32.9288 9.10202 33.7905 8.41312C34.6522 7.72422 34.6522 5.82974 34.6522 4.62417C34.9969 4.79639 35.3416 5.31308 35.8587 5.65753C36.3757 6.1742 36.8928 6.69087 37.7545 6.69087C37.7545 6.8631 37.7545 6.86309 37.7545 7.03532C38.9609 8.92979 40.1674 10.9965 41.5461 12.891C42.9249 13.4076 44.1314 13.9243 45.1655 14.7854C45.1655 14.9577 45.1655 15.1299 45.1655 15.3021C45.3378 15.4743 45.3378 15.6466 45.6825 15.6466C46.3719 15.1299 45.6825 14.6132 45.1655 14.2688C44.3037 13.5799 42.9249 12.891 41.8909 12.5465C40.6844 10.6521 39.8227 8.41312 38.6162 6.69087C38.4439 6.69087 38.4439 6.69087 38.2715 6.69087C38.2715 6.51865 38.2715 6.34642 38.2715 6.17419C37.5822 5.31307 36.7204 4.45194 35.8587 3.76304C35.3416 3.41859 34.9969 2.90192 34.6522 2.55747C34.3075 2.0408 34.1352 1.52412 33.7905 1.17967C33.1011 0.318544 32.2394 -0.370348 31.0329 -1.05925C29.9989 -1.74815 28.7924 -2.43705 27.2413 -2.60927C25.3455 -2.7815 24.139 -1.74815 23.1049 -0.54258C23.1049 -1.23148 22.4155 -1.57592 21.7262 -1.05925C21.3815 -1.4037 21.2091 -2.0926 20.8644 -2.60927C20.6921 -2.7815 20.5197 -3.12595 20.3474 -3.29818C20.175 -3.4704 19.8303 -3.81485 19.8303 -3.98708C19.8303 -4.33153 19.8303 -4.8482 19.8303 -5.36487C19.8303 -5.70932 19.658 -6.22599 19.3133 -6.39822C18.7963 -6.57044 18.6239 -5.5371 18.4516 -5.02042C17.7622 -5.19265 17.4175 -5.36487 16.9004 -5.53709C16.5557 -5.70932 15.694 -5.70932 15.177 -6.05377C15.0046 -6.226 14.8323 -6.57045 14.6599 -6.9149C14.4876 -7.25935 14.3152 -7.6038 14.1429 -7.77602C13.9705 -7.94825 13.4535 -8.2927 13.2811 -8.12047C12.9364 -8.12047 12.0747 -7.08712 11.9023 -6.74267C11.73 -6.57045 11.73 -6.39822 11.5576 -6.22599C11.3853 -6.05377 10.3512 -5.36487 9.83417 -5.53709C9.31713 -5.70932 9.14477 -6.57045 8.80007 -6.9149C8.28303 -7.43157 7.59365 -7.6038 6.90426 -7.77602C5.18079 -7.94825 4.31904 -7.43157 2.94026 -7.25934C2.25087 -7.94824 1.56149 -8.9816 0.872093 -9.84272C0.527398 -10.1872 0.0103607 -10.7038 -0.334335 -11.0483C-0.851378 -11.565 -1.36843 -12.2539 -2.23017 -12.4261C-2.40252 -12.4261 -2.57487 -12.4261 -2.74722 -12.5983C-2.91957 -12.5983 -2.91956 -12.7705 -3.09191 -12.9428C-3.4366 -13.2872 -3.95365 -13.4594 -4.4707 -13.6317C-5.84948 -14.3206 -7.22825 -15.0095 -8.60703 -15.6984C-10.5029 -16.5595 -12.571 -17.4206 -14.6392 -18.1095C-14.8115 -18.2817 -14.9839 -18.2817 -15.1562 -18.2817ZM20.6921 1.00745C20.6921 1.17967 20.5197 1.69635 20.6921 1.86857C20.3474 1.69635 20.175 1.00745 20.6921 1.00745ZM12.247 -6.22599C12.7641 -6.57044 13.1088 -7.25935 13.6258 -7.6038C13.6258 -7.08712 13.7982 -6.91489 13.7982 -6.39822C13.4535 -6.22599 12.7641 -6.22599 12.247 -6.22599Z" fill="#7768D5"/>
<path fill-rule="evenodd" clip-rule="evenodd" d="M-15.1562 314.112C-14.8116 314.629 -14.2945 314.629 -13.7775 314.801C-11.3646 315.834 -8.77938 316.868 -6.53886 318.073C-5.33243 318.59 -4.29835 319.279 -3.26427 319.796C-3.09192 320.14 -2.74721 320.312 -2.23017 320.657C-1.02374 321.518 0.355045 322.551 1.21678 323.757C1.56148 324.101 2.07851 324.962 1.90616 325.479C1.73382 326.168 0.355056 325.479 -0.334335 325.307C-0.851378 325.135 -1.36844 324.79 -1.88548 324.618C-3.09191 324.273 -3.95365 324.446 -4.81539 324.79C-4.81539 325.135 -4.81538 325.307 -4.64303 325.307C-4.29833 325.479 -4.12599 325.135 -3.78129 325.135C-3.26425 324.962 -2.74721 325.135 -2.23017 325.135C-1.02374 325.307 0.182697 326.34 1.21678 326.685C0.872087 327.718 -0.334356 328.407 -0.679051 329.612C-1.02375 330.646 -0.506683 331.507 0.527404 331.679C1.56149 331.851 2.7679 331.679 3.62964 331.507C4.14668 331.335 4.66374 331.507 5.18079 331.507C6.90426 331.335 8.4554 330.301 9.14479 329.096C9.48948 329.268 9.83417 329.957 9.83417 330.301C9.83417 330.646 9.31713 330.99 8.97243 331.162C8.45539 331.507 7.93834 331.679 7.93834 332.368C7.93834 332.54 7.59365 332.368 7.59365 332.368C6.38721 333.746 5.35312 335.296 4.14669 336.674C3.4573 336.501 2.94027 336.674 2.25088 336.674C2.25088 337.19 2.59557 337.19 2.94026 337.363C3.4573 337.363 3.97434 337.018 4.49138 337.19C5.18077 336.501 5.87017 335.985 6.38721 335.296C7.07661 334.607 7.59365 333.746 8.11069 333.057C8.11069 332.885 8.28304 332.885 8.11069 332.712C8.80008 332.885 9.48948 332.368 10.0065 332.024C10.1789 331.851 10.3512 331.507 10.5236 331.507C10.6959 331.507 11.2129 332.024 11.3853 332.368C12.247 333.401 13.7982 334.262 15.694 334.435C15.3493 334.951 15.0046 336.329 15.694 336.674C15.1769 337.19 15.0046 338.224 14.6599 339.085C14.3152 339.774 13.9705 340.29 13.9705 340.807C13.4535 341.151 13.1088 341.84 12.5917 342.357C12.247 342.701 11.5577 343.046 11.73 343.563C12.5917 343.563 12.9364 342.874 13.4535 342.185C14.3152 340.979 15.3493 339.774 15.8663 338.051C16.0387 337.707 16.211 337.19 16.0387 336.674C17.2451 336.501 17.0728 334.262 18.2792 333.918C18.6239 334.435 18.2792 334.779 18.6239 335.468C19.3133 336.674 21.2091 336.501 20.8644 334.779C21.0368 334.779 21.3815 335.124 21.5538 335.296C21.5538 335.985 20.5197 336.329 20.6921 337.19C20.8644 337.707 21.8985 338.051 22.5879 337.879C22.9326 337.707 22.9326 337.363 23.2773 337.19C23.7943 337.363 23.9667 337.707 24.3114 338.051C25.0008 338.568 26.0348 339.085 26.8966 339.429C27.4136 339.601 28.103 339.946 28.2754 340.29C29.1371 341.151 29.1371 342.874 30.3435 343.218C30.1712 343.563 30.5159 344.596 30.5159 345.113C30.6882 346.146 30.8606 347.179 31.2053 348.213C31.3776 348.729 31.55 349.246 31.55 349.763C32.4117 350.624 32.9288 351.657 33.6182 352.518C33.4458 353.035 33.7905 353.207 33.9629 353.379C34.6522 353.035 34.1352 352.518 33.6182 352.002C32.9288 351.141 32.4117 350.107 31.7223 349.418C31.3776 347.352 31.2053 345.285 30.8606 343.39C30.8606 343.39 30.6882 343.218 30.5159 343.218C30.8606 342.185 29.9988 341.668 29.9988 340.807C31.3776 340.979 32.9288 341.496 33.7905 340.807C34.6522 340.118 34.6522 338.224 34.6522 337.018C34.9969 337.19 35.3416 337.707 35.8587 338.051C36.3757 338.568 36.8928 339.085 37.7545 339.085C37.7545 339.257 37.7545 339.257 37.7545 339.429C38.9609 341.324 40.1674 343.39 41.5461 345.285C42.9249 345.802 44.1314 346.318 45.1655 347.179C45.1655 347.352 45.1655 347.524 45.1655 347.696C45.3378 347.868 45.3378 348.04 45.6825 348.04C46.3719 347.524 45.6825 347.007 45.1655 346.663C44.3037 345.974 42.9249 345.285 41.8909 344.94C40.6844 343.046 39.8227 340.807 38.6162 339.085C38.4439 339.085 38.4439 339.085 38.2715 339.085C38.2715 338.913 38.2715 338.74 38.2715 338.568C37.5822 337.707 36.7204 336.846 35.8587 336.157C35.3416 335.813 34.9969 335.296 34.6522 334.951C34.3075 334.435 34.1352 333.918 33.7905 333.574C33.1011 332.712 32.2394 332.024 31.0329 331.335C29.9989 330.646 28.7924 329.957 27.2413 329.785C25.3455 329.612 24.139 330.646 23.1049 331.851C23.1049 331.162 22.4155 330.818 21.7262 331.335C21.3815 330.99 21.2091 330.301 20.8644 329.785C20.6921 329.612 20.5197 329.268 20.3474 329.096C20.175 328.923 19.8303 328.579 19.8303 328.407C19.8303 328.062 19.8303 327.546 19.8303 327.029C19.8303 326.685 19.658 326.168 19.3133 325.996C18.7963 325.823 18.6239 326.857 18.4516 327.373C17.7622 327.201 17.4175 327.029 16.9004 326.857C16.5557 326.685 15.694 326.685 15.177 326.34C15.0046 326.168 14.8323 325.823 14.6599 325.479C14.4876 325.135 14.3152 324.79 14.1429 324.618C13.9705 324.446 13.4535 324.101 13.2811 324.273C12.9364 324.273 12.0747 325.307 11.9023 325.651C11.73 325.823 11.73 325.996 11.5576 326.168C11.3853 326.34 10.3512 327.029 9.83417 326.857C9.31713 326.685 9.14477 325.823 8.80007 325.479C8.28303 324.962 7.59365 324.79 6.90426 324.618C5.18079 324.446 4.31904 324.962 2.94026 325.135C2.25087 324.446 1.56149 323.412 0.872093 322.551C0.527398 322.207 0.0103607 321.69 -0.334335 321.346C-0.851378 320.829 -1.36843 320.14 -2.23017 319.968C-2.40252 319.968 -2.57487 319.968 -2.74722 319.796C-2.91957 319.796 -2.91956 319.623 -3.09191 319.451C-3.4366 319.107 -3.95365 318.934 -4.4707 318.762C-5.84948 318.073 -7.22825 317.384 -8.60703 316.695C-10.5029 315.834 -12.571 314.973 -14.6392 314.284C-14.8115 314.112 -14.9839 313.94 -15.1562 314.112ZM20.6921 333.229C20.6921 333.401 20.5197 333.918 20.6921 334.09C20.3474 333.918 20.175 333.401 20.6921 333.229ZM12.247 325.996C12.7641 325.651 13.1088 324.962 13.6258 324.618C13.6258 325.135 13.7982 325.307 13.7982 325.823C13.4535 326.168 12.7641 326.168 12.247 325.996Z" fill="#7768D5"/>
<path fill-rule="evenodd" clip-rule="evenodd" d="M-15.1562 380.591C-14.8116 381.108 -14.2945 381.108 -13.7775 381.28C-11.3646 382.313 -8.77938 383.346 -6.53886 384.552C-5.33243 385.069 -4.29835 385.758 -3.26427 386.274C-3.09192 386.619 -2.74721 386.791 -2.23017 387.135C-1.02374 387.997 0.355045 389.03 1.21678 390.236C1.56148 390.58 2.07851 391.441 1.90616 391.958C1.73382 392.647 0.355056 391.958 -0.334335 391.786C-0.851378 391.613 -1.36844 391.269 -1.88548 391.097C-3.09191 390.752 -3.95365 390.924 -4.81539 391.269C-4.81539 391.613 -4.81538 391.786 -4.64303 391.786C-4.29833 391.958 -4.12599 391.613 -3.78129 391.613C-3.26425 391.441 -2.74721 391.613 -2.23017 391.613C-1.02374 391.786 0.182697 392.819 1.21678 393.163C0.872087 394.197 -0.334356 394.886 -0.679051 396.091C-1.02375 397.125 -0.506683 397.986 0.527404 398.158C1.56149 398.33 2.7679 398.158 3.62964 397.986C4.14668 397.813 4.66374 397.986 5.18079 397.986C6.90426 397.813 8.4554 396.78 9.14479 395.575C9.48948 395.747 9.83417 396.436 9.83417 396.78C9.83417 397.125 9.31713 397.469 8.97243 397.641C8.45539 397.986 7.93834 398.158 7.93834 398.847C7.93834 399.019 7.59365 398.847 7.59365 398.847C6.38721 400.225 5.35312 401.775 4.14669 403.152C3.4573 402.98 2.94027 403.152 2.25088 403.152C2.25088 403.669 2.59557 403.669 2.94026 403.841C3.4573 403.841 3.97434 403.497 4.49138 403.669C5.18077 402.98 5.87017 402.463 6.38721 401.775C7.07661 401.086 7.59365 400.225 8.11069 399.536C8.11069 399.363 8.28304 399.363 8.11069 399.191C8.80008 399.363 9.48948 398.847 10.0065 398.502C10.1789 398.33 10.3512 397.986 10.5236 397.986C10.6959 397.986 11.2129 398.502 11.3853 398.847C12.247 399.88 13.7982 400.741 15.694 400.913C15.3493 401.43 15.0046 402.808 15.694 403.152C15.1769 403.669 15.0046 404.702 14.6599 405.564C14.3152 406.252 13.9705 406.769 13.9705 407.286C13.4535 407.63 13.1088 408.319 12.5917 408.836C12.247 409.18 11.5577 409.525 11.73 410.041C12.5917 410.041 12.9364 409.353 13.4535 408.664C14.3152 407.458 15.3493 406.252 15.8663 404.53C16.0387 404.186 16.211 403.669 16.0387 403.152C17.2451 402.98 17.0728 400.741 18.2792 400.397C18.6239 400.913 18.2792 401.258 18.6239 401.947C19.3133 403.152 21.2091 402.98 20.8644 401.258C21.0368 401.258 21.3815 401.602 21.5538 401.775C21.5538 402.463 20.5197 402.808 20.6921 403.669C20.8644 404.186 21.8985 404.53 22.5879 404.358C22.9326 404.186 22.9326 403.841 23.2773 403.669C23.7943 403.841 23.9667 404.186 24.3114 404.53C25.0008 405.047 26.0348 405.564 26.8966 405.908C27.4136 406.08 28.103 406.425 28.2754 406.769C29.1371 407.63 29.1371 409.353 30.3435 409.697C30.1712 410.041 30.5159 411.075 30.5159 411.591C30.6882 412.625 30.8606 413.658 31.2053 414.692C31.3776 415.208 31.55 415.725 31.55 416.242C32.4117 417.103 32.9288 418.136 33.6182 418.997C33.4458 419.514 33.7905 419.686 33.9629 419.858C34.6522 419.514 34.1352 418.997 33.6182 418.48C32.9288 417.619 32.4117 416.586 31.7223 415.897C31.3776 413.83 31.2053 411.764 30.8606 409.869C30.8606 409.869 30.6882 409.697 30.5159 409.697C30.8606 408.664 29.9988 408.147 29.9988 407.286C31.3776 407.458 32.9288 407.975 33.7905 407.286C34.6522 406.597 34.6522 404.702 34.6522 403.497C34.9969 403.669 35.3416 404.186 35.8587 404.53C36.3757 405.047 36.8928 405.564 37.7545 405.564C37.7545 405.736 37.7545 405.736 37.7545 405.908C38.9609 407.803 40.1674 409.869 41.5461 411.764C42.9249 412.28 44.1314 412.797 45.1655 413.658C45.1655 413.83 45.1655 414.003 45.1655 414.175C45.3378 414.347 45.3378 414.519 45.6825 414.519C46.3719 414.003 45.6825 413.486 45.1655 413.141C44.3037 412.453 42.9249 411.764 41.8909 411.419C40.6844 409.525 39.8227 407.286 38.6162 405.564C38.4439 405.564 38.4439 405.564 38.2715 405.564C38.2715 405.391 38.2715 405.219 38.2715 405.047C37.5822 404.186 36.7204 403.325 35.8587 402.636C35.3416 402.291 34.9969 401.775 34.6522 401.43C34.3075 400.913 34.1352 400.397 33.7905 400.052C33.1011 399.191 32.2394 398.502 31.0329 397.813C29.9989 397.125 28.7924 396.436 27.2413 396.263C25.3455 396.091 24.139 397.125 23.1049 398.33C23.1049 397.641 22.4155 397.297 21.7262 397.813C21.3815 397.469 21.2091 396.78 20.8644 396.263C20.6921 396.091 20.5197 395.747 20.3474 395.575C20.175 395.402 19.8303 395.058 19.8303 394.886C19.8303 394.541 19.8303 394.024 19.8303 393.508C19.8303 393.163 19.658 392.647 19.3133 392.474C18.7963 392.302 18.6239 393.336 18.4516 393.852C17.7622 393.68 17.4175 393.508 16.9004 393.336C16.5557 393.163 15.694 393.163 15.177 392.819C15.0046 392.647 14.8323 392.302 14.6599 391.958C14.4876 391.613 14.3152 391.269 14.1429 391.097C13.9705 390.924 13.4535 390.58 13.2811 390.752C12.9364 390.752 12.0747 391.786 11.9023 392.13C11.73 392.302 11.73 392.474 11.5576 392.647C11.3853 392.819 10.3512 393.508 9.83417 393.336C9.31713 393.163 9.14477 392.302 8.80007 391.958C8.28303 391.441 7.59365 391.269 6.90426 391.097C5.18079 390.924 4.31904 391.441 2.94026 391.613C2.25087 390.924 1.56149 389.891 0.872093 389.03C0.527398 388.685 0.0103607 388.169 -0.334335 387.824C-0.851378 387.308 -1.36843 386.619 -2.23017 386.447C-2.40252 386.447 -2.57487 386.447 -2.74722 386.274C-2.91957 386.274 -2.91956 386.102 -3.09191 385.93C-3.4366 385.585 -3.95365 385.413 -4.4707 385.241C-5.84948 384.552 -7.22825 383.863 -8.60703 383.174C-10.5029 382.313 -12.571 381.452 -14.6392 380.763C-14.8115 380.591 -14.9839 380.419 -15.1562 380.591ZM20.6921 399.708C20.6921 399.88 20.5197 400.397 20.6921 400.569C20.3474 400.397 20.175 399.708 20.6921 399.708ZM12.247 392.474C12.7641 392.13 13.1088 391.441 13.6258 391.097C13.6258 391.613 13.7982 391.786 13.7982 392.302C13.4535 392.647 12.7641 392.647 12.247 392.474Z" fill="#7768D5"/>
<path fill-rule="evenodd" clip-rule="evenodd" d="M-15.1562 181.154C-14.8116 181.671 -14.2945 181.671 -13.7775 181.843C-11.3646 182.877 -8.77938 183.91 -6.53886 185.116C-5.33243 185.632 -4.29835 186.321 -3.26427 186.838C-3.09192 187.182 -2.74721 187.354 -2.23017 187.699C-1.02374 188.56 0.355045 189.593 1.21678 190.799C1.56148 191.143 2.07851 192.005 1.90616 192.521C1.73382 193.21 0.355056 192.521 -0.334335 192.349C-0.851378 192.177 -1.36844 191.832 -1.88548 191.66C-3.09191 191.316 -3.95365 191.488 -4.81539 191.832C-4.81539 192.177 -4.81538 192.349 -4.64303 192.349C-4.29833 192.521 -4.12599 192.177 -3.78129 192.177C-3.26425 192.005 -2.74721 192.177 -2.23017 192.177C-1.02374 192.349 0.182697 193.382 1.21678 193.727C0.872087 194.76 -0.334356 195.449 -0.679051 196.655C-1.02375 197.688 -0.506683 198.549 0.527404 198.721C1.56149 198.893 2.7679 198.721 3.62964 198.549C4.14668 198.377 4.66374 198.549 5.18079 198.549C6.90426 198.377 8.4554 197.343 9.14479 196.138C9.48948 196.31 9.83417 196.999 9.83417 197.343C9.83417 197.688 9.31713 198.032 8.97243 198.205C8.45539 198.549 7.93834 198.721 7.93834 199.41C7.93834 199.582 7.59365 199.41 7.59365 199.41C6.38721 200.788 5.35312 202.338 4.14669 203.716C3.4573 203.544 2.94027 203.716 2.25088 203.716C2.25088 204.232 2.59557 204.232 2.94026 204.405C3.4573 204.405 3.97434 204.06 4.49138 204.232C5.18077 203.544 5.87017 203.027 6.38721 202.338C7.07661 201.649 7.59365 200.788 8.11069 200.099C8.11069 199.927 8.28304 199.927 8.11069 199.755C8.80008 199.927 9.48948 199.41 10.0065 199.066C10.1789 198.894 10.3512 198.549 10.5236 198.549C10.6959 198.549 11.2129 199.066 11.3853 199.41C12.247 200.444 13.7982 201.305 15.694 201.477C15.3493 201.994 15.0046 203.371 15.694 203.716C15.1769 204.232 15.0046 205.266 14.6599 206.127C14.3152 206.816 13.9705 207.333 13.9705 207.849C13.4535 208.194 13.1088 208.883 12.5917 209.399C12.247 209.744 11.5577 210.088 11.73 210.605C12.5917 210.605 12.9364 209.916 13.4535 209.227C14.3152 208.021 15.3493 206.816 15.8663 205.094C16.0387 204.749 16.211 204.232 16.0387 203.716C17.2451 203.544 17.0728 201.305 18.2792 200.96C18.6239 201.477 18.2792 201.821 18.6239 202.51C19.3133 203.716 21.2091 203.544 20.8644 201.821C21.0368 201.821 21.3815 202.166 21.5538 202.338C21.5538 203.027 20.5197 203.371 20.6921 204.232C20.8644 204.749 21.8985 205.094 22.5879 204.921C22.9326 204.749 22.9326 204.405 23.2773 204.232C23.7943 204.405 23.9667 204.749 24.3114 205.094C25.0008 205.61 26.0348 206.127 26.8966 206.471C27.4136 206.644 28.103 206.988 28.2754 207.333C29.1371 208.194 29.1371 209.916 30.3435 210.26C30.1712 210.605 30.5159 211.638 30.5159 212.155C30.6882 213.188 30.8606 214.222 31.2053 215.255C31.3776 215.772 31.55 216.288 31.55 216.805C32.4117 217.666 32.9288 218.699 33.6182 219.56C33.4458 220.077 33.7905 220.249 33.9629 220.422C34.6522 220.077 34.1352 219.56 33.6182 219.044C32.9288 218.183 32.4117 217.149 31.7223 216.46C31.3776 214.394 31.2053 212.327 30.8606 210.433C30.8606 210.433 30.6882 210.26 30.5159 210.26C30.8606 209.227 29.9988 208.71 29.9988 207.849C31.3776 208.021 32.9288 208.538 33.7905 207.849C34.6522 207.16 34.6522 205.266 34.6522 204.06C34.9969 204.232 35.3416 204.749 35.8587 205.094C36.3757 205.61 36.8928 206.127 37.7545 206.127C37.7545 206.299 37.7545 206.299 37.7545 206.471C38.9609 208.366 40.1674 210.433 41.5461 212.327C42.9249 212.844 44.1314 213.36 45.1655 214.221C45.1655 214.394 45.1655 214.566 45.1655 214.738C45.3378 214.91 45.3378 215.083 45.6825 215.083C46.3719 214.566 45.6825 214.049 45.1655 213.705C44.3037 213.016 42.9249 212.327 41.8909 211.983C40.6844 210.088 39.8227 207.849 38.6162 206.127C38.4439 206.127 38.4439 206.127 38.2715 206.127C38.2715 205.955 38.2715 205.782 38.2715 205.61C37.5822 204.749 36.7204 203.888 35.8587 203.199C35.3416 202.855 34.9969 202.338 34.6522 201.994C34.3075 201.477 34.1352 200.96 33.7905 200.616C33.1011 199.755 32.2394 199.066 31.0329 198.377C29.9989 197.688 28.7924 196.999 27.2413 196.827C25.3455 196.655 24.139 197.688 23.1049 198.894C23.1049 198.205 22.4155 197.86 21.7262 198.377C21.3815 198.032 21.2091 197.343 20.8644 196.827C20.6921 196.655 20.5197 196.31 20.3474 196.138C20.175 195.966 19.8303 195.621 19.8303 195.449C19.8303 195.105 19.8303 194.588 19.8303 194.071C19.8303 193.727 19.658 193.21 19.3133 193.038C18.7963 192.866 18.6239 193.899 18.4516 194.416C17.7622 194.243 17.4175 194.071 16.9004 193.899C16.5557 193.727 15.694 193.727 15.177 193.382C15.0046 193.21 14.8323 192.866 14.6599 192.521C14.4876 192.177 14.3152 191.832 14.1429 191.66C13.9705 191.488 13.4535 191.143 13.2811 191.316C12.9364 191.316 12.0747 192.349 11.9023 192.693C11.73 192.866 11.73 193.038 11.5576 193.21C11.3853 193.382 10.3512 194.071 9.83417 193.899C9.31713 193.727 9.14477 192.866 8.80007 192.521C8.28303 192.005 7.59365 191.832 6.90426 191.66C5.18079 191.488 4.31904 192.005 2.94026 192.177C2.25087 191.488 1.56149 190.454 0.872093 189.593C0.527398 189.249 0.0103607 188.732 -0.334335 188.388C-0.851378 187.871 -1.36843 187.182 -2.23017 187.01C-2.40252 187.01 -2.57487 187.01 -2.74722 186.838C-2.91957 186.838 -2.91956 186.666 -3.09191 186.493C-3.4366 186.149 -3.95365 185.977 -4.4707 185.804C-5.84948 185.116 -7.22825 184.427 -8.60703 183.738C-10.5029 182.877 -12.571 182.015 -14.6392 181.327C-14.8115 181.154 -14.9839 180.982 -15.1562 181.154ZM20.6921 200.271C20.6921 200.444 20.5197 200.96 20.6921 201.132C20.3474 200.96 20.175 200.444 20.6921 200.271ZM12.247 193.038C12.7641 192.693 13.1088 192.005 13.6258 191.66C13.6258 192.177 13.7982 192.349 13.7982 192.866C13.4535 193.21 12.7641 193.21 12.247 193.038Z" fill="#7768D5"/>
<path fill-rule="evenodd" clip-rule="evenodd" d="M-15.1562 247.633C-14.8116 248.15 -14.2945 248.15 -13.7775 248.322C-11.3646 249.356 -8.77938 250.389 -6.53886 251.595C-5.33243 252.111 -4.29835 252.8 -3.26427 253.317C-3.09192 253.661 -2.74721 253.833 -2.23017 254.178C-1.02374 255.039 0.355045 256.072 1.21678 257.278C1.56148 257.622 2.07851 258.484 1.90616 259C1.73382 259.689 0.355056 259 -0.334335 258.828C-0.851378 258.656 -1.36844 258.311 -1.88548 258.139C-3.09191 257.795 -3.95365 257.967 -4.81539 258.311C-4.81539 258.656 -4.81538 258.828 -4.64303 258.828C-4.29833 259 -4.12599 258.656 -3.78129 258.656C-3.26425 258.484 -2.74721 258.656 -2.23017 258.656C-1.02374 258.828 0.182697 259.861 1.21678 260.206C0.872087 261.239 -0.334356 261.928 -0.679051 263.134C-1.02375 264.167 -0.506683 265.028 0.527404 265.2C1.56149 265.373 2.7679 265.2 3.62964 265.028C4.14668 264.856 4.66374 265.028 5.18079 265.028C6.90426 264.856 8.4554 263.822 9.14479 262.617C9.48948 262.789 9.83417 263.478 9.83417 263.822C9.83417 264.167 9.31713 264.511 8.97243 264.684C8.45539 265.028 7.93834 265.2 7.93834 265.889C7.93834 266.061 7.59365 265.889 7.59365 265.889C6.38721 267.267 5.35312 268.817 4.14669 270.195C3.4573 270.023 2.94027 270.195 2.25088 270.195C2.25088 270.711 2.59557 270.711 2.94026 270.884C3.4573 270.884 3.97434 270.539 4.49138 270.711C5.18077 270.023 5.87017 269.506 6.38721 268.817C7.07661 268.128 7.59365 267.267 8.11069 266.578C8.11069 266.406 8.28304 266.406 8.11069 266.234C8.80008 266.406 9.48948 265.889 10.0065 265.545C10.1789 265.373 10.3512 265.028 10.5236 265.028C10.6959 265.028 11.2129 265.545 11.3853 265.889C12.247 266.923 13.7982 267.784 15.694 267.956C15.3493 268.473 15.0046 269.85 15.694 270.195C15.1769 270.711 15.0046 271.745 14.6599 272.606C14.3152 273.295 13.9705 273.812 13.9705 274.328C13.4535 274.673 13.1088 275.362 12.5917 275.878C12.247 276.223 11.5577 276.567 11.73 277.084C12.5917 277.084 12.9364 276.395 13.4535 275.706C14.3152 274.5 15.3493 273.295 15.8663 271.573C16.0387 271.228 16.211 270.711 16.0387 270.195C17.2451 270.023 17.0728 267.784 18.2792 267.439C18.6239 267.956 18.2792 268.3 18.6239 268.989C19.3133 270.195 21.2091 270.023 20.8644 268.3C21.0368 268.3 21.3815 268.645 21.5538 268.817C21.5538 269.506 20.5197 269.85 20.6921 270.711C20.8644 271.228 21.8985 271.573 22.5879 271.4C22.9326 271.228 22.9326 270.884 23.2773 270.711C23.7943 270.884 23.9667 271.228 24.3114 271.573C25.0008 272.089 26.0348 272.606 26.8966 272.95C27.4136 273.123 28.103 273.467 28.2754 273.812C29.1371 274.673 29.1371 276.395 30.3435 276.739C30.1712 277.084 30.5159 278.117 30.5159 278.634C30.6882 279.667 30.8606 280.701 31.2053 281.734C31.3776 282.251 31.55 282.767 31.55 283.284C32.4117 284.145 32.9288 285.178 33.6182 286.04C33.4458 286.556 33.7905 286.728 33.9629 286.901C34.6522 286.556 34.1352 286.04 33.6182 285.523C32.9288 284.662 32.4117 283.628 31.7223 282.939C31.3776 280.873 31.2053 278.806 30.8606 276.912C30.8606 276.912 30.6882 276.739 30.5159 276.739C30.8606 275.706 29.9988 275.189 29.9988 274.328C31.3776 274.5 32.9288 275.017 33.7905 274.328C34.6522 273.639 34.6522 271.745 34.6522 270.539C34.9969 270.711 35.3416 271.228 35.8587 271.573C36.3757 272.089 36.8928 272.606 37.7545 272.606C37.7545 272.778 37.7545 272.778 37.7545 272.95C38.9609 274.845 40.1674 276.912 41.5461 278.806C42.9249 279.323 44.1314 279.839 45.1655 280.701C45.1655 280.873 45.1655 281.045 45.1655 281.217C45.3378 281.389 45.3378 281.562 45.6825 281.562C46.3719 281.045 45.6825 280.528 45.1655 280.184C44.3037 279.495 42.9249 278.806 41.8909 278.462C40.6844 276.567 39.8227 274.328 38.6162 272.606C38.4439 272.606 38.4439 272.606 38.2715 272.606C38.2715 272.434 38.2715 272.262 38.2715 272.089C37.5822 271.228 36.7204 270.367 35.8587 269.678C35.3416 269.334 34.9969 268.817 34.6522 268.473C34.3075 267.956 34.1352 267.439 33.7905 267.095C33.1011 266.234 32.2394 265.545 31.0329 264.856C29.9989 264.167 28.7924 263.478 27.2413 263.306C25.3455 263.134 24.139 264.167 23.1049 265.373C23.1049 264.684 22.4155 264.339 21.7262 264.856C21.3815 264.511 21.2091 263.822 20.8644 263.306C20.6921 263.134 20.5197 262.789 20.3474 262.617C20.175 262.445 19.8303 262.1 19.8303 261.928C19.8303 261.584 19.8303 261.067 19.8303 260.55C19.8303 260.206 19.658 259.689 19.3133 259.517C18.7963 259.345 18.6239 260.378 18.4516 260.895C17.7622 260.722 17.4175 260.55 16.9004 260.378C16.5557 260.206 15.694 260.206 15.177 259.861C15.0046 259.689 14.8323 259.345 14.6599 259C14.4876 258.656 14.3152 258.311 14.1429 258.139C13.9705 257.967 13.4535 257.622 13.2811 257.795C12.9364 257.795 12.0747 258.828 11.9023 259.172C11.73 259.345 11.73 259.517 11.5576 259.689C11.3853 259.861 10.3512 260.55 9.83417 260.378C9.31713 260.206 9.14477 259.345 8.80007 259C8.28303 258.484 7.59365 258.311 6.90426 258.139C5.18079 257.967 4.31904 258.484 2.94026 258.656C2.25087 257.967 1.56149 256.933 0.872093 256.072C0.527398 255.728 0.0103607 255.211 -0.334335 254.867C-0.851378 254.35 -1.36843 253.661 -2.23017 253.489C-2.40252 253.489 -2.57487 253.489 -2.74722 253.317C-2.91957 253.317 -2.91956 253.145 -3.09191 252.972C-3.4366 252.628 -3.95365 252.456 -4.4707 252.283C-5.84948 251.595 -7.22825 250.906 -8.60703 250.217C-10.5029 249.356 -12.571 248.494 -14.6392 247.806C-14.8115 247.633 -14.9839 247.461 -15.1562 247.633ZM20.6921 266.75C20.6921 266.923 20.5197 267.439 20.6921 267.611C20.3474 267.439 20.175 266.923 20.6921 266.75ZM12.247 259.517C12.7641 259.172 13.1088 258.484 13.6258 258.139C13.6258 258.656 13.7982 258.828 13.7982 259.345C13.4535 259.689 12.7641 259.689 12.247 259.517Z" fill="#7768D5"/>
</svg>
