<svg width="110" height="908" viewBox="0 0 110 908" fill="none" xmlns="http://www.w3.org/2000/svg">
<path fill-rule="evenodd" clip-rule="evenodd" d="M109.05 239.522C105.639 240.451 101.918 242.001 98.197 243.86C95.7164 245.099 93.2357 246.339 90.7551 247.578C89.8248 247.888 88.8946 248.508 88.2744 248.817C87.9644 249.127 87.9644 249.127 87.6543 249.437C87.3442 249.437 87.0341 249.437 86.724 249.747C85.1736 250.057 84.2434 251.296 83.3132 252.226C82.693 252.846 81.7628 253.775 81.1426 254.395C79.5922 255.944 78.662 257.493 77.4216 259.043C74.941 258.733 73.0805 257.803 70.2898 258.113C68.7394 258.423 67.4991 258.733 66.8789 259.662C66.2588 260.282 65.6386 261.832 65.0185 262.141C64.0882 262.451 62.2277 261.522 61.9177 260.902C61.6076 260.592 61.6076 260.282 61.2975 259.972C60.9874 259.353 59.437 257.493 58.8169 257.493C58.1967 257.493 57.5765 258.113 57.2665 258.113C56.9564 258.423 56.6463 259.043 56.3362 259.662C56.0261 260.282 55.7161 260.902 55.406 261.212C54.7858 261.832 53.2354 261.832 52.3052 262.141C51.3749 262.451 50.7548 262.761 49.5145 263.071C49.2044 262.141 49.2044 260.592 47.9641 260.592C47.3439 260.592 47.3439 261.832 47.0338 262.451C47.0338 263.381 47.3439 264.31 47.0338 264.93C47.0338 265.24 46.4137 265.86 46.1036 266.17C45.7935 266.789 45.4834 267.099 45.1734 267.409C44.5532 268.339 44.2431 269.578 43.623 270.198C42.6927 269.268 41.1423 269.888 41.1423 271.127C39.2818 268.958 37.4214 267.099 33.7004 267.409C30.9097 267.719 28.7391 268.958 26.8786 270.198C25.0182 271.437 23.1577 272.677 21.9174 274.226C21.6073 275.155 20.9871 276.085 20.6771 277.015C20.0569 277.944 19.1267 278.564 18.5065 279.184C16.9561 280.733 15.4057 281.972 14.1654 283.522C14.1654 283.832 14.1654 284.141 14.1654 284.451C13.8553 284.451 13.8553 284.451 13.5452 284.451C11.0646 287.86 9.2041 291.578 7.34362 294.986C5.48315 295.606 3.00251 296.846 1.45211 298.085C0.521869 298.705 -0.71845 299.634 0.521869 300.564C0.831948 300.564 1.14203 300.254 1.45211 299.944C1.45211 299.634 1.45211 299.325 1.45211 299.015C3.00251 297.775 5.17307 296.846 7.6537 295.916C10.1343 292.508 11.9948 288.789 14.4755 285.381C14.4755 285.071 14.4755 285.071 14.4755 284.761C16.0259 284.761 16.9561 283.832 17.8863 282.902C18.5065 282.282 19.1267 281.353 19.7468 281.043C19.7468 283.212 19.4367 286.62 21.2972 287.86C22.8476 289.099 25.6383 288.17 28.119 287.86C28.119 289.409 26.5686 290.029 27.1887 292.198C26.8786 292.198 26.8786 292.508 26.5686 292.508C25.9484 295.916 25.3283 299.634 25.0182 303.353C23.7779 304.592 22.8476 306.451 21.6073 308.001C20.9871 308.93 19.7468 309.55 20.9871 310.479C21.6073 310.17 21.9174 309.86 21.6073 308.93C22.8476 307.381 23.7778 305.522 25.3282 303.972C25.3282 303.043 25.6383 302.113 25.9484 301.184C26.2585 299.325 26.8786 297.465 27.1887 295.606C27.4988 294.677 27.8089 292.817 27.4988 292.198C29.6694 291.268 29.6694 288.479 31.2198 286.93C31.8399 286.31 32.7702 286.001 33.7004 285.381C35.5609 284.451 37.1113 283.832 38.3516 282.902C38.9718 282.282 39.5919 281.663 40.2121 281.353C40.8322 281.663 40.8322 282.282 41.4524 282.592C42.6927 282.902 44.5532 282.282 44.8633 281.353C45.4834 279.803 43.623 279.184 43.3129 277.944C43.623 277.634 44.2431 277.325 44.5532 277.015C43.933 280.113 47.3439 280.423 48.5842 278.254C49.2044 277.324 48.5842 276.395 49.2044 275.465C51.3749 276.085 51.0649 280.113 53.2354 280.423C52.9254 281.353 53.2354 281.972 53.5455 282.902C54.4757 286.001 56.3362 288.17 57.8866 290.339C58.8169 291.578 59.437 292.817 60.9874 292.817C61.2975 291.888 60.0572 291.268 59.437 290.648C58.5068 289.719 57.8866 288.479 56.9564 287.86C56.9564 286.62 56.0261 286.001 55.7161 284.761C55.0959 283.212 54.7858 281.353 53.8556 280.423C55.406 280.113 54.4757 277.634 53.8556 276.395C57.2665 276.085 60.0572 274.536 61.6076 272.677C61.9177 272.367 62.8479 271.127 63.158 271.127C63.4681 271.127 63.7781 271.747 64.0882 272.057C65.0185 272.677 66.2588 273.296 67.4991 273.296C67.4991 273.296 67.4991 273.606 67.4991 273.916C68.7394 275.155 69.6696 276.705 70.5999 277.944C71.8402 279.184 73.0805 280.423 74.0108 281.353C74.941 281.043 75.8712 281.663 76.8015 281.663C77.4216 281.663 78.3519 281.353 78.0418 280.423C76.8015 280.423 75.8712 280.113 74.6309 280.423C72.4604 277.944 70.5999 275.155 68.4293 272.677C68.4293 272.677 67.8092 272.986 67.8092 272.677C67.4991 271.437 66.5689 271.127 65.9487 270.508C65.3285 269.888 64.3983 269.578 64.3983 268.958C64.3983 268.339 65.0185 267.099 65.6386 266.789C66.8789 268.958 69.6697 271.127 72.7704 271.127C73.7007 271.127 74.6309 271.127 75.5612 271.127C77.1116 271.437 79.5922 271.747 81.1426 271.437C83.0031 271.127 83.9333 269.578 83.3132 267.719C82.693 265.86 80.5224 264.31 79.9023 262.451C81.7628 261.832 83.9333 259.972 86.1039 259.662C87.0341 259.662 87.9644 259.353 88.8946 259.662C89.5148 259.662 89.8248 260.282 90.445 259.972C90.7551 259.972 90.7551 259.353 90.7551 259.043C89.2047 258.423 87.6543 258.113 85.4837 258.733C84.5535 259.043 83.6232 259.663 82.693 259.972C81.7628 260.592 79.2821 261.522 78.662 260.282C78.3519 259.353 79.5922 257.803 79.9023 257.184C81.7628 255.015 83.9333 253.155 86.1039 251.606C86.724 250.986 87.6543 250.677 87.9644 250.057C89.8248 248.817 91.6853 247.888 93.8559 246.958C97.8869 244.789 102.538 242.62 106.879 241.071C107.809 240.761 109.05 240.761 109.36 239.832C109.36 239.522 109.05 239.522 109.05 239.522ZM45.4834 275.465C45.7935 275.155 45.4834 274.536 45.4834 273.916C46.1036 274.226 45.7935 275.465 45.4834 275.465ZM57.8866 260.902C57.8866 259.972 58.1967 259.663 58.1967 258.733C59.1269 259.353 59.7471 260.592 60.6773 261.212C59.437 261.212 58.5068 261.212 57.8866 260.902Z" fill="#1D1D1D"/>
<path fill-rule="evenodd" clip-rule="evenodd" d="M109.05 359.127C105.639 360.057 101.918 361.606 98.197 363.465C95.7163 364.704 93.2357 365.944 90.7551 367.183C89.8248 367.493 88.8946 368.113 88.2744 368.423C87.9643 368.733 87.9643 368.733 87.6543 369.042C87.3442 369.042 87.0341 369.042 86.724 369.352C85.1736 369.662 84.2434 370.902 83.3132 371.831C82.693 372.451 81.7628 373.38 81.1426 374C79.5922 375.549 78.662 377.099 77.4216 378.648C74.941 378.338 73.0805 377.409 70.2898 377.718C68.7394 378.028 67.4991 378.338 66.8789 379.268C66.2588 379.887 65.6386 381.437 65.0184 381.747C64.0882 382.056 62.2277 381.127 61.9177 380.507C61.6076 380.197 61.6076 379.887 61.2975 379.578C60.9874 378.958 59.437 377.099 58.8169 377.099C58.1967 377.099 57.5765 377.718 57.2665 377.718C56.9564 378.028 56.6463 378.648 56.3362 379.268C56.0261 379.887 55.7161 380.507 55.406 380.817C54.7858 381.437 53.2354 381.437 52.3052 381.747C51.3749 382.056 50.7548 382.366 49.5145 382.676C49.2044 381.747 49.2044 380.197 47.9641 380.197C47.3439 380.197 47.3439 381.437 47.0338 382.056C47.0338 382.986 47.3439 383.916 47.0338 384.535C47.0338 384.845 46.4137 385.465 46.1036 385.775C45.7935 386.395 45.4834 386.704 45.1734 387.014C44.5532 387.944 44.2431 389.183 43.623 389.803C42.6927 388.873 41.1423 389.493 41.1423 390.733C39.2818 388.564 37.4214 386.704 33.7004 387.014C30.9097 387.324 28.7391 388.564 26.8786 389.803C25.0182 391.042 23.1577 392.282 21.9174 393.831C21.2972 394.761 20.677 395.69 20.367 396.31C19.7468 397.24 18.8166 397.859 18.1964 398.479C16.646 400.028 15.0956 401.268 13.8553 402.817C13.8553 403.127 13.8553 403.437 13.8553 403.747C13.5452 403.747 13.5452 403.747 13.2351 403.747C11.0646 407.155 9.51418 410.873 7.34362 414.282C5.48314 414.902 3.00251 416.141 1.45211 417.38C0.521869 418 -0.71845 418.93 0.521869 419.859C0.831948 419.859 1.14203 419.549 1.45211 419.24C1.45211 418.93 1.45211 418.62 1.45211 418.31C3.31259 417.071 5.48314 415.831 7.96378 414.902C10.4444 411.493 12.3049 407.775 14.7855 404.366C14.7855 404.056 14.7855 404.056 14.7855 403.747C16.3359 403.747 17.2662 402.817 18.1964 401.887C18.8166 401.268 19.4367 400.338 20.367 400.028C20.367 402.197 20.0569 405.606 21.9174 406.845C23.4678 408.085 26.2585 407.155 28.7391 406.845C28.7391 408.394 27.1887 409.014 27.8089 411.183C27.4988 411.183 27.4988 411.493 27.1887 411.493C26.5686 414.902 25.9484 418.62 25.6383 422.338C24.398 423.578 23.4678 425.437 22.2274 426.986C21.6073 427.916 20.367 428.535 21.6073 429.465C22.2274 429.155 22.5375 428.845 22.2274 427.916C23.4678 426.366 24.398 424.507 25.9484 422.958C25.9484 422.028 26.2585 421.099 26.5686 420.169C26.8786 418.31 27.4988 416.451 27.8089 414.592C28.119 413.662 28.429 411.803 28.119 411.183C30.2895 410.254 30.2895 407.465 31.8399 405.916C32.4601 405.296 33.3903 404.986 34.3206 404.366C36.181 403.437 37.7314 402.817 38.9718 401.887C39.5919 401.268 40.2121 400.648 40.8322 400.338C41.4524 400.648 41.4524 401.268 42.0726 401.578C43.3129 401.887 45.1733 401.268 45.4834 400.338C46.1036 398.789 44.2431 398.169 43.933 396.93C44.2431 396.62 44.8633 396.31 45.1734 396C44.5532 399.099 47.9641 399.409 49.2044 397.24C49.8245 396.31 49.2044 395.38 49.8245 394.451C51.9951 395.071 51.685 399.099 53.8556 399.409C53.5455 400.338 53.8556 400.958 54.1657 401.887C55.0959 404.986 56.9564 407.155 58.5068 409.324C59.437 410.564 60.0572 411.803 61.6076 411.803C61.9177 410.873 60.6773 410.254 60.0572 409.634C59.1269 408.704 58.5068 407.465 57.5765 406.845C57.5765 405.606 56.6463 404.986 56.3362 403.747C55.7161 402.197 55.406 400.338 54.4757 399.409C56.0261 399.099 55.0959 396.62 54.4757 395.38C57.8866 395.071 60.6773 393.521 62.2277 391.662C62.5378 391.352 63.4681 390.113 63.7781 390.113C64.0882 390.113 64.3983 390.733 64.7084 391.042C65.6386 391.662 66.8789 392.282 68.1192 392.282C68.1192 392.282 68.1192 392.592 68.1192 392.902C69.3596 394.141 70.2898 395.69 71.22 396.93C72.4604 398.169 73.7007 399.409 74.6309 400.338C75.5612 400.028 76.4914 400.648 77.4216 400.648C78.0418 400.648 78.972 400.338 78.662 399.409C77.4216 399.409 76.4914 399.099 75.2511 399.409C73.0805 396.93 71.22 394.141 69.0495 391.662C69.0495 391.662 68.4293 391.972 68.4293 391.662C68.1192 390.423 67.189 390.113 66.5688 389.493C65.9487 388.873 65.0184 388.564 65.0184 387.944C65.0184 387.324 65.6386 386.085 66.2588 385.775C67.4991 387.944 70.2898 390.113 73.3906 390.113C74.3208 390.113 75.2511 390.113 76.1813 390.113C77.7317 390.423 80.2124 390.733 81.7628 390.423C83.6232 390.113 84.5535 388.564 83.9333 386.704C83.3132 384.845 81.1426 383.296 80.5224 381.437C82.3829 380.817 84.5535 378.958 86.724 378.648C87.6543 378.648 88.5845 378.338 89.5147 378.648C90.1349 378.648 90.445 379.268 91.0651 378.958C91.3752 378.958 91.3752 378.338 91.3752 378.028C89.8248 377.409 88.2744 377.099 86.1039 377.718C85.1736 378.028 84.2434 378.648 83.3132 378.958C82.3829 379.578 79.9023 380.507 79.2821 379.268C78.972 378.338 80.2124 376.789 80.5224 376.169C82.3829 374 84.5535 372.141 86.724 370.592C87.3442 369.972 88.2744 369.662 88.5845 369.042C90.445 367.803 92.3055 366.873 94.476 365.944C98.5071 363.775 103.158 361.606 107.499 360.056C108.43 359.747 109.67 359.747 109.98 358.817C109.36 358.817 109.05 359.127 109.05 359.127ZM45.4834 395.071C45.7935 394.761 45.4834 394.141 45.4834 393.521C46.1036 393.831 45.7935 395.071 45.4834 395.071ZM57.8866 380.507C57.8866 379.578 58.1967 379.268 58.1967 378.338C59.1269 378.958 59.7471 380.197 60.6773 380.817C59.437 380.817 58.5068 380.817 57.8866 380.507Z" fill="#1D1D1D"/>
<path fill-rule="evenodd" clip-rule="evenodd" d="M109.05 0.30896C105.639 1.23854 101.918 2.78783 98.197 4.64699C95.7164 5.88642 93.2357 7.12586 90.7551 8.3653C89.8248 8.67516 88.8946 9.29487 88.2744 9.60473C87.9644 9.91459 87.9644 9.91459 87.6543 10.2245C87.3442 10.2245 87.0341 10.2245 86.724 10.5343C85.1736 10.8442 84.2434 12.0836 83.3132 13.0132C82.693 13.6329 81.7628 14.5625 81.1426 15.1822C79.5922 16.7315 78.662 18.2808 77.4216 19.8301C74.941 19.5202 73.0805 18.5906 70.2898 18.9005C68.7394 19.2104 67.4991 19.5202 66.8789 20.4498C66.2588 21.0695 65.6386 22.6188 65.0185 22.9287C64.0882 23.2385 62.2277 22.309 61.9177 21.6892C61.6076 21.3794 61.6076 21.0695 61.2975 20.7597C60.9874 20.1399 59.437 18.2808 58.8169 18.2808C58.1967 18.2808 57.5765 18.9005 57.2665 18.9005C56.9564 19.2104 56.6463 19.8301 56.3362 20.4498C55.7161 21.0695 55.406 21.6892 55.0959 21.9991C54.4757 22.6188 52.9253 22.6188 51.9951 22.9287C51.0649 23.2385 50.4447 23.5484 49.2044 23.8583C48.8943 22.9287 48.8943 21.3794 47.654 21.3794C47.0338 21.3794 47.0338 22.6188 46.7238 23.2385C46.7238 24.1681 47.0338 25.0977 46.7238 25.7174C46.7238 26.0273 46.1036 26.647 45.7935 26.9568C45.4834 27.5766 45.1734 27.8864 44.8633 28.1963C44.2431 29.1259 43.933 30.3653 43.3129 30.985C42.3826 30.0554 40.8322 30.6752 40.8322 31.9146C39.2818 29.7456 37.4214 27.8864 34.0105 28.1963C31.2198 28.5061 29.0492 29.7456 27.1887 30.985C25.3282 32.2244 23.4678 33.4639 22.2274 35.0132C21.6073 35.9428 20.9871 36.8723 20.6771 37.4921C20.0569 38.4216 19.1267 39.0413 18.5065 39.6611C16.9561 41.2104 15.4057 42.4498 14.1654 43.9991C14.1654 44.309 14.1654 44.6188 14.1654 44.9287C13.8553 44.9287 13.8553 44.9287 13.5452 44.9287C11.0646 48.647 9.2041 52.3653 7.34362 56.0836C5.48315 56.7033 3.00251 57.9428 1.45211 59.1822C0.521869 59.8019 -0.71845 60.7315 0.521869 61.6611C0.831948 61.6611 1.14203 61.3512 1.45211 61.0413C1.45211 60.7315 1.45211 60.4216 1.45211 60.1118C3.31259 58.8723 5.48314 57.6329 7.96378 56.7033C10.4444 53.2949 12.3049 49.5766 14.7855 46.1681C14.7855 45.8582 14.7855 45.8582 14.7855 45.5484C16.3359 45.5484 17.2662 44.6188 18.1964 43.6892C18.8166 43.0695 19.4367 42.1399 20.367 41.8301C20.367 43.9991 20.0569 47.4075 21.9174 48.647C23.4678 49.8864 26.2585 48.9568 28.7391 48.647C28.7391 50.1963 27.1887 50.816 27.8089 52.985C27.4988 52.985 27.4988 53.2949 27.1887 53.2949C26.5686 56.7033 25.9484 60.4216 25.6383 64.1399C24.398 65.3794 23.4678 67.2385 22.2274 68.7878C21.6073 69.7174 20.367 70.3371 21.6073 71.2667C22.2274 70.9568 22.5375 70.647 22.2274 69.7174C23.4678 68.1681 24.398 66.3089 25.9484 64.7597C25.9484 63.8301 26.2585 62.9005 26.5686 61.9709C26.8786 60.1118 27.4988 58.2526 27.8089 56.3935C28.119 55.4639 28.429 53.6047 28.119 52.985C30.2895 52.0554 30.2895 49.2667 31.8399 47.7174C32.4601 47.0977 33.3903 46.7878 34.3206 46.1681C36.181 45.2385 37.7314 44.6188 38.9718 43.6892C39.5919 43.0695 40.2121 42.4498 40.8322 42.1399C41.4524 42.4498 41.4524 43.0695 42.0726 43.3794C43.3129 43.6892 45.1734 43.0695 45.4834 42.1399C46.1036 40.5906 44.2431 39.9709 43.933 38.7315C44.2431 38.4216 44.8633 38.1118 45.1734 37.8019C44.5532 40.9005 47.9641 41.2104 49.2044 39.0413C49.8245 38.1118 49.2044 37.1822 49.8246 36.2526C51.9951 36.8723 51.685 40.9005 53.8556 41.2104C53.5455 42.1399 53.8556 42.7597 54.1657 43.6892C55.0959 46.7878 56.9564 48.9568 58.5068 51.1259C59.437 52.3653 60.0572 53.6047 61.6076 53.6047C61.9177 52.6752 60.6773 52.0554 60.0572 51.4357C59.1269 50.5061 58.5068 49.2667 57.5765 48.647C57.5765 47.4075 56.6463 46.7878 56.3362 45.5484C55.7161 43.9991 55.406 42.1399 54.4757 41.2104C56.0261 40.9005 55.0959 38.4216 54.4757 37.1822C57.8866 36.8723 60.6773 35.323 62.2277 33.4639C62.5378 33.154 63.4681 31.9146 63.7781 31.9146C64.0882 31.9146 64.3983 32.5343 64.7084 32.8442C65.6386 33.4639 66.8789 34.0836 68.1193 34.0836C68.1193 34.0836 68.1193 34.3935 68.1193 34.7033C69.3596 35.9428 70.2898 37.4921 71.22 38.7315C72.4604 39.9709 73.7007 41.2104 74.6309 42.1399C75.5612 41.8301 76.4914 42.4498 77.4216 42.4498C78.0418 42.4498 78.972 42.1399 78.662 41.2104C77.4216 41.2104 76.4914 40.9005 75.2511 41.2104C73.0805 38.7315 71.22 35.9428 69.0495 33.4639C69.0495 33.4639 68.4293 33.7737 68.4293 33.4639C68.1193 32.2244 67.189 31.9146 66.5689 31.2949C65.9487 30.6752 65.0185 30.3653 65.0185 29.7456C65.0185 29.1259 65.6386 27.8864 66.2588 27.5766C67.4991 29.7456 70.2898 31.9146 73.3906 31.9146C74.3209 31.9146 75.2511 31.9146 76.1813 31.9146C77.7317 32.2244 80.2124 32.5343 81.7628 32.2244C83.6232 31.9146 84.5535 30.3653 83.9333 28.5061C83.3132 26.647 81.1426 25.0977 80.5224 23.2385C82.3829 22.6188 84.5535 20.7597 86.724 20.4498C87.6543 20.4498 88.5845 20.1399 89.5148 20.4498C90.1349 20.4498 90.445 21.0695 91.0652 20.7597C91.3752 20.7597 91.3752 20.1399 91.3752 19.8301C89.8248 19.2104 88.2744 18.9005 86.1039 19.5202C85.1736 19.8301 84.2434 20.4498 83.3132 20.7597C82.3829 21.3794 79.9023 22.309 79.2821 21.0695C78.972 20.1399 80.2124 18.5906 80.5224 17.9709C82.3829 15.8019 84.5535 13.9428 86.724 12.3935C87.3442 11.7737 88.2744 11.4639 88.5845 10.8442C90.445 9.60473 92.3055 8.67516 94.476 7.74558C98.5071 5.57657 103.158 3.40755 107.499 1.85826C108.43 1.5484 109.67 1.5484 109.98 0.618819C109.36 0.30896 109.05 0.30896 109.05 0.30896ZM45.4834 36.5625C45.7935 36.2526 45.4834 35.6329 45.4834 35.0132C46.1036 35.0132 45.7935 36.2526 45.4834 36.5625ZM57.8866 21.6892C57.8866 20.7597 58.1967 20.4498 58.1967 19.5202C59.1269 20.1399 59.7471 21.3794 60.6773 21.9991C59.437 21.9991 58.5068 21.9991 57.8866 21.6892Z" fill="#1D1D1D"/>
<path fill-rule="evenodd" clip-rule="evenodd" d="M109.05 119.916C105.329 121.156 101.918 122.705 98.197 124.254C95.7164 125.494 93.2357 126.733 90.7551 127.973C89.8248 128.282 88.8946 128.902 88.2744 129.212C87.9644 129.522 87.9644 129.522 87.6543 129.832C87.3442 129.832 87.0341 129.832 86.724 130.142C85.1736 130.451 84.2434 131.691 83.3132 132.62C82.693 133.24 81.7628 134.17 81.1426 134.789C79.5922 136.339 78.662 137.888 77.4216 139.437C74.941 139.128 73.0805 138.198 70.2898 138.508C68.7394 138.818 67.4991 139.128 66.8789 140.057C66.2588 140.677 65.6386 142.226 65.0185 142.536C64.0882 142.846 62.2277 141.916 61.9177 141.297C61.6076 140.987 61.6076 140.677 61.2975 140.367C60.9874 139.747 59.437 137.888 58.8169 137.888C58.1967 137.888 57.5765 138.508 57.2665 138.508C56.9564 138.818 56.6463 139.437 56.3362 140.057C56.0261 140.677 55.7161 141.297 55.406 141.606C54.7858 142.226 53.2354 142.226 52.3052 142.536C51.3749 142.846 50.7548 143.156 49.5145 143.466C49.2044 142.536 49.2044 140.987 47.9641 140.987C47.3439 140.987 47.3439 142.226 47.0338 142.846C47.0338 143.775 47.3439 144.705 47.0338 145.325C47.0338 145.635 46.4137 146.254 46.1036 146.564C45.7935 147.184 45.4834 147.494 45.1734 147.804C44.5532 148.733 44.2431 149.973 43.623 150.592C42.6927 149.663 41.1423 150.282 41.1423 151.522C39.2818 149.353 37.4214 147.494 33.7004 147.804C30.9097 148.113 28.7391 149.353 26.8786 150.592C25.0182 151.832 23.1577 153.071 21.9174 154.62C21.2972 155.55 20.6771 156.48 20.367 157.099C19.7468 158.029 18.8166 158.649 18.1964 159.268C16.646 160.818 15.0956 162.057 13.8553 163.606C13.8553 163.916 13.8553 164.226 13.8553 164.536C13.5452 164.536 13.5452 164.536 13.2351 164.536C11.0646 167.944 9.51418 171.663 7.34362 175.071C5.48315 175.691 3.00251 176.93 1.45211 178.17C0.521869 178.789 -0.71845 179.719 0.521869 180.649C0.831948 180.649 1.14203 180.339 1.45211 180.029C1.45211 179.719 1.45211 179.409 1.45211 179.099C3.31259 177.86 5.48314 176.62 7.96378 175.691C10.4444 172.282 12.3049 168.564 14.7855 165.156C14.7855 164.846 14.7855 164.846 14.7855 164.536C16.3359 164.536 17.2662 163.606 18.1964 162.677C18.5065 162.677 19.1267 161.747 19.7468 161.437C19.7468 163.606 19.4367 167.015 21.2972 168.254C22.8476 169.494 25.6383 168.564 28.119 168.254C28.119 169.804 26.5686 170.423 27.1887 172.592C26.8786 172.592 26.8786 172.902 26.5686 172.902C25.9484 176.311 25.3283 180.029 25.0182 183.747C23.7779 184.987 22.8476 186.846 21.6073 188.395C20.9871 189.325 19.7468 189.944 20.9871 190.874C21.6073 190.564 21.9174 190.254 21.6073 189.325C22.8476 187.775 23.7778 185.916 25.3282 184.367C25.3282 183.437 25.6383 182.508 25.9484 181.578C26.2585 179.719 26.8786 177.86 27.1887 176.001C27.4988 175.071 27.8089 173.212 27.4988 172.592C29.6694 171.663 29.6694 168.874 31.2198 167.325C31.8399 166.705 32.7702 166.395 33.7004 165.775C35.5609 164.846 37.1113 164.226 38.3516 163.297C38.9718 162.677 39.5919 162.057 40.2121 161.747C40.8322 162.057 40.8322 162.677 41.4524 162.987C42.6927 163.297 44.5532 162.677 44.8633 161.747C45.4834 160.198 43.623 159.578 43.3129 158.339C43.623 158.029 44.2431 157.719 44.5532 157.409C43.933 160.508 47.3439 160.818 48.5842 158.649C49.2044 157.719 48.5842 156.789 49.2044 155.86C51.3749 156.48 51.0649 160.508 53.2354 160.818C52.9254 161.747 53.2354 162.367 53.5455 163.297C54.4757 166.395 56.3362 168.564 57.8866 170.733C58.8169 171.973 59.437 173.212 60.9874 173.212C61.2975 172.282 60.0572 171.663 59.437 171.043C58.5068 170.113 57.8866 168.874 56.9564 168.254C56.9564 167.015 56.0261 166.395 55.7161 165.156C55.0959 163.606 54.7858 161.747 53.8556 160.818C55.406 160.508 54.4757 158.029 53.8556 156.789C57.2665 156.48 60.0572 154.93 61.6076 153.071C61.9177 152.761 62.8479 151.522 63.158 151.522C63.4681 151.522 63.7781 152.142 64.0882 152.451C65.0185 153.071 66.2588 153.691 67.4991 153.691C67.4991 153.691 67.4991 154.001 67.4991 154.311C68.7394 155.55 69.6696 157.099 70.5999 158.339C71.8402 159.578 73.0805 160.818 74.0108 161.747C74.941 161.437 75.8712 162.057 76.8015 162.057C77.4216 162.057 78.3519 161.747 78.0418 160.818C76.8015 160.818 75.8712 160.508 74.6309 160.818C72.4604 158.339 70.5999 155.55 68.4293 153.071C68.4293 153.071 67.8092 153.381 67.8092 153.071C67.4991 151.832 66.5689 151.522 65.9487 150.902C65.3285 150.282 64.3983 149.973 64.3983 149.353C64.3983 148.733 65.0185 147.494 65.6386 147.184C66.8789 149.353 69.6697 151.522 72.7704 151.522C73.7007 151.522 74.6309 151.522 75.5612 151.522C77.1116 151.832 79.5922 152.142 81.1426 151.832C83.0031 151.522 83.9333 149.973 83.3132 148.113C82.693 146.254 80.5224 144.705 79.9023 142.846C81.7628 142.226 83.9333 140.367 86.1039 140.057C87.0341 140.057 87.9644 139.747 88.8946 140.057C89.5148 140.057 89.8248 140.677 90.445 140.367C90.7551 140.367 90.7551 139.747 90.7551 139.437C89.2047 138.818 87.6543 138.508 85.4837 139.128C84.5535 139.437 83.6232 140.057 82.693 140.367C81.7628 140.987 79.2821 141.916 78.662 140.677C78.3519 139.747 79.5922 138.198 79.9023 137.578C81.7628 135.409 83.9333 133.55 86.1039 132.001C86.724 131.381 87.6543 131.071 87.9644 130.451C89.8248 129.212 91.6853 128.282 93.8559 127.353C97.8869 125.184 102.538 123.015 106.879 121.466C107.809 121.156 109.05 121.156 109.36 120.226C109.36 119.916 109.05 119.916 109.05 119.916ZM45.4834 155.86C45.7935 155.55 45.4834 154.93 45.4834 154.311C46.1036 154.62 45.7935 155.86 45.4834 155.86ZM57.8866 141.297C57.8866 140.367 58.1967 140.057 58.1967 139.128C59.1269 139.747 59.7471 140.987 60.6773 141.606C59.437 141.606 58.5068 141.606 57.8866 141.297Z" fill="#1D1D1D"/>
<path fill-rule="evenodd" clip-rule="evenodd" d="M109.05 717.944C105.639 718.873 101.918 720.423 98.197 722.282C95.7163 723.521 93.2357 724.761 90.7551 726C89.8248 726.31 88.8946 726.93 88.2744 727.24C87.9643 727.549 87.9643 727.549 87.6543 727.859C87.3442 727.859 87.0341 727.859 86.724 728.169C85.1736 728.479 84.2434 729.718 83.3132 730.648C82.693 731.268 81.7628 732.197 81.1426 732.817C79.5922 734.366 78.662 735.916 77.4216 737.465C74.941 737.155 73.0805 736.226 70.2898 736.535C68.7394 736.845 67.4991 737.155 66.8789 738.085C66.2588 738.704 65.6386 740.254 65.0184 740.564C64.0882 740.873 62.2277 739.944 61.9177 739.324C61.6076 739.014 61.6076 738.704 61.2975 738.395C60.9874 737.775 59.437 735.916 58.8169 735.916C58.1967 735.916 57.5765 736.535 57.2665 736.535C56.9564 736.845 56.6463 737.465 56.3362 738.085C56.0261 738.704 55.7161 739.324 55.406 739.634C54.7858 740.254 53.2354 740.254 52.3052 740.564C51.3749 740.873 50.7548 741.183 49.5145 741.493C49.2044 740.564 49.2044 739.014 47.9641 739.014C47.3439 739.014 47.3439 740.254 47.0338 740.873C47.0338 741.803 47.3439 742.733 47.0338 743.352C47.0338 743.662 46.4137 744.282 46.1036 744.592C45.7935 745.211 45.4834 745.521 45.1734 745.831C44.5532 746.761 44.2431 748 43.623 748.62C42.6927 747.69 41.1423 748.31 41.1423 749.55C39.2818 747.38 37.4214 745.521 33.7004 745.831C30.9097 746.141 28.7391 747.38 26.8786 748.62C25.0182 749.859 23.1577 751.099 21.9174 752.648C21.2972 753.578 20.677 754.507 20.367 755.127C19.7468 756.057 18.8166 756.676 18.1964 757.296C16.646 758.845 15.0956 760.085 13.8553 761.634C13.8553 761.944 13.8553 762.254 13.8553 762.564C13.5452 762.564 13.5452 762.564 13.2351 762.564C11.0646 765.972 9.51418 769.69 7.34362 773.099C5.48314 773.719 3.00251 774.958 1.45211 776.197C0.521869 776.817 -0.71845 777.747 0.521869 778.676C0.831948 778.676 1.14203 778.366 1.45211 778.057C1.45211 777.747 1.45211 777.437 1.45211 777.127C3.31259 775.888 5.48314 774.648 7.96378 773.719C10.4444 770.31 12.3049 766.592 14.7855 763.183C14.7855 762.873 14.7855 762.873 14.7855 762.564C16.3359 762.564 17.2662 761.634 18.1964 760.704C18.8166 760.085 19.4367 759.155 20.367 758.845C20.367 761.014 20.0569 764.423 21.9174 765.662C23.4678 766.902 26.2585 765.972 28.7391 765.662C28.7391 767.211 27.1887 767.831 27.8089 770C27.4988 770 27.4988 770.31 27.1887 770.31C26.5686 773.719 25.9484 777.437 25.6383 781.155C24.398 782.395 23.4678 784.254 22.2274 785.803C21.6073 786.733 20.367 787.352 21.6073 788.282C22.2274 787.972 22.5375 787.662 22.2274 786.733C23.4678 785.183 24.398 783.324 25.9484 781.775C25.9484 780.845 26.2585 779.916 26.5686 778.986C26.8786 777.127 27.4988 775.268 27.8089 773.409C28.119 772.479 28.429 770.62 28.119 770C30.2895 769.071 30.2895 766.282 31.8399 764.733C32.4601 764.113 33.3903 763.803 34.3206 763.183C36.181 762.254 37.7314 761.634 38.9718 760.704C39.5919 760.085 40.2121 759.465 40.8322 759.155C41.4524 759.465 41.4524 760.085 42.0726 760.395C43.3129 760.704 45.1733 760.085 45.4834 759.155C46.1036 757.606 44.2431 756.986 43.933 755.747C44.2431 755.437 44.8633 755.127 45.1734 754.817C44.5532 757.916 47.9641 758.226 49.2044 756.057C49.8245 755.127 49.2044 754.197 49.8245 753.268C51.9951 753.888 51.685 757.916 53.8556 758.226C53.5455 759.155 53.8556 759.775 54.1657 760.704C55.0959 763.803 56.9564 765.972 58.5068 768.141C59.437 769.381 60.0572 770.62 61.6076 770.62C61.9177 769.69 60.6773 769.071 60.0572 768.451C59.1269 767.521 58.5068 766.282 57.5765 765.662C57.5765 764.423 56.6463 763.803 56.3362 762.564C55.7161 761.014 55.406 759.155 54.4757 758.226C56.0261 757.916 55.0959 755.437 54.4757 754.197C57.8866 753.888 60.6773 752.338 62.2277 750.479C62.5378 750.169 63.4681 748.93 63.7781 748.93C64.0882 748.93 64.3983 749.549 64.7084 749.859C65.6386 750.479 66.8789 751.099 68.1192 751.099C68.1192 751.099 68.1192 751.409 68.1192 751.719C69.3596 752.958 70.2898 754.507 71.22 755.747C72.4604 756.986 73.7007 758.226 74.6309 759.155C75.5612 758.845 76.4914 759.465 77.4216 759.465C78.0418 759.465 78.972 759.155 78.662 758.226C77.4216 758.226 76.4914 757.916 75.2511 758.226C73.0805 755.747 71.22 752.958 69.0495 750.479C69.0495 750.479 68.4293 750.789 68.4293 750.479C68.1192 749.24 67.189 748.93 66.5688 748.31C65.9487 747.69 65.0184 747.38 65.0184 746.761C65.0184 746.141 65.6386 744.902 66.2588 744.592C67.4991 746.761 70.2898 748.93 73.3906 748.93C74.3208 748.93 75.2511 748.93 76.1813 748.93C77.7317 749.24 80.2124 749.549 81.7628 749.24C83.6232 748.93 84.5535 747.38 83.9333 745.521C83.3132 743.662 81.1426 742.113 80.5224 740.254C82.3829 739.634 84.5535 737.775 86.724 737.465C87.6543 737.465 88.5845 737.155 89.5147 737.465C90.1349 737.465 90.445 738.085 91.0651 737.775C91.3752 737.775 91.3752 737.155 91.3752 736.845C89.8248 736.226 88.2744 735.916 86.1039 736.535C85.1736 736.845 84.2434 737.465 83.3132 737.775C82.3829 738.395 79.9023 739.324 79.2821 738.085C78.972 737.155 80.2124 735.606 80.5224 734.986C82.3829 732.817 84.5535 730.958 86.724 729.409C87.3442 728.789 88.2744 728.479 88.5845 727.859C90.445 726.62 92.3055 725.69 94.476 724.761C98.5071 722.592 103.158 720.423 107.499 718.873C108.43 718.564 109.67 718.564 109.98 717.634C109.36 717.634 109.05 717.944 109.05 717.944ZM45.4834 753.888C45.7935 753.578 45.4834 752.958 45.4834 752.338C46.1036 752.648 45.7935 753.578 45.4834 753.888ZM57.8866 739.324C57.8866 738.395 58.1967 738.085 58.1967 737.155C59.1269 737.775 59.7471 739.014 60.6773 739.634C59.437 739.634 58.5068 739.634 57.8866 739.324Z" fill="#1D1D1D"/>
<path fill-rule="evenodd" clip-rule="evenodd" d="M109.05 837.55C105.639 838.479 101.918 840.029 98.197 841.888C95.7163 843.127 93.2357 844.367 90.7551 845.606C89.8248 845.916 88.8946 846.536 88.2744 846.846C87.9643 847.155 87.9643 847.155 87.6543 847.465C87.3442 847.465 87.0341 847.465 86.724 847.775C85.1736 848.085 84.2434 849.324 83.3132 850.254C82.693 850.874 81.7628 851.803 81.1426 852.423C79.5922 853.972 78.662 855.522 77.4216 857.071C74.941 856.761 73.0805 855.831 70.2898 856.141C68.7394 856.451 67.4991 856.761 66.8789 857.691C66.2588 858.31 65.6386 859.86 65.0184 860.169C64.0882 860.479 62.2277 859.55 61.9177 858.93C61.6076 858.62 61.6076 858.31 61.2975 858C60.9874 857.381 59.437 855.522 58.8169 855.522C58.1967 855.522 57.5765 856.141 57.2665 856.141C56.9564 856.451 56.6463 857.071 56.3362 857.691C56.0261 858.31 55.7161 858.93 55.406 859.24C54.7858 859.86 53.2354 859.86 52.3052 860.169C51.3749 860.479 50.7548 860.789 49.5145 861.099C49.2044 860.169 49.2044 858.62 47.9641 858.62C47.3439 858.62 47.3439 859.86 47.0338 860.479C47.0338 861.409 47.3439 862.338 47.0338 862.958C47.0338 863.268 46.4137 863.888 46.1036 864.198C45.7935 864.817 45.4834 865.127 45.1734 865.437C44.5532 866.367 44.2431 867.606 43.623 868.226C42.6927 867.296 41.1423 867.916 41.1423 869.155C39.2818 866.986 37.4214 865.127 33.7004 865.437C30.9097 865.747 28.7391 866.986 26.8786 868.226C25.0182 869.465 23.1577 870.705 21.9174 872.254C21.2972 873.183 20.677 874.113 20.367 874.733C19.7468 875.662 18.8166 876.282 18.1964 876.902C16.646 878.451 15.0956 879.69 13.8553 881.24C13.8553 881.55 13.8553 881.86 13.8553 882.169C13.5452 882.169 13.5452 882.169 13.2351 882.169C11.0646 885.578 9.51418 889.296 7.34362 892.705C5.48314 893.324 3.00251 894.564 1.45211 895.803C0.521869 896.423 -0.71845 897.352 0.521869 898.282C0.831948 898.282 1.14203 897.972 1.45211 897.662C1.45211 897.352 1.45211 897.043 1.45211 896.733C3.31259 895.493 5.48314 894.254 7.96378 893.324C10.4444 889.916 12.3049 886.197 14.7855 882.789C14.7855 882.479 14.7855 882.479 14.7855 882.169C16.3359 882.169 17.2662 881.24 18.1964 880.31C18.8166 879.69 19.4367 878.761 20.367 878.451C20.367 880.62 20.0569 884.029 21.9174 885.268C23.4678 886.507 26.2585 885.578 28.7391 885.268C28.7391 886.817 27.1887 887.437 27.8089 889.606C27.4988 889.606 27.4988 889.916 27.1887 889.916C26.5686 893.324 25.9484 897.043 25.6383 900.761C24.398 902 23.4678 903.859 22.2274 905.409C21.6073 906.338 20.367 906.958 21.6073 907.888C22.2274 907.578 22.5375 907.268 22.2274 906.338C23.4678 904.789 24.398 902.93 25.9484 901.381C25.9484 900.451 26.2585 899.521 26.5686 898.592C26.8786 896.733 27.4988 894.874 27.8089 893.014C28.119 892.085 28.429 890.226 28.119 889.606C30.2895 888.676 30.2895 885.888 31.8399 884.338C32.4601 883.719 33.3903 883.409 34.3206 882.789C36.181 881.859 37.7314 881.24 38.9718 880.31C39.5919 879.69 40.2121 879.071 40.8322 878.761C41.4524 879.071 41.4524 879.69 42.0726 880C43.3129 880.31 45.1733 879.69 45.4834 878.761C46.1036 877.212 44.2431 876.592 43.933 875.352C44.2431 875.043 44.8633 874.733 45.1734 874.423C44.5532 877.521 47.9641 877.831 49.2044 875.662C49.8245 874.733 49.2044 873.803 49.8245 872.874C51.9951 873.493 51.685 877.522 53.8556 877.831C53.5455 878.761 53.8556 879.381 54.1657 880.31C55.0959 883.409 56.9564 885.578 58.5068 887.747C59.437 888.986 60.0572 890.226 61.6076 890.226C61.9177 889.296 60.6773 888.676 60.0572 888.057C59.1269 887.127 58.5068 885.888 57.5765 885.268C57.5765 884.029 56.6463 883.409 56.3362 882.169C55.7161 880.62 55.406 878.761 54.4757 877.831C56.0261 877.522 55.0959 875.043 54.4757 873.803C57.8866 873.493 60.6773 871.944 62.2277 870.085C62.5378 869.775 63.4681 868.536 63.7781 868.536C64.0882 868.536 64.3983 869.155 64.7084 869.465C65.6386 870.085 66.8789 870.705 68.1192 870.705C68.1192 870.705 68.1192 871.014 68.1192 871.324C69.3596 872.564 70.2898 874.113 71.22 875.352C72.4604 876.592 73.7007 877.831 74.6309 878.761C75.5612 878.451 76.4914 879.071 77.4216 879.071C78.0418 879.071 78.972 878.761 78.662 877.831C77.4216 877.831 76.4914 877.522 75.2511 877.831C73.0805 875.353 71.22 872.564 69.0495 870.085C69.0495 870.085 68.4293 870.395 68.4293 870.085C68.1192 868.845 67.189 868.536 66.5688 867.916C65.9487 867.296 65.0184 866.986 65.0184 866.367C65.0184 865.747 65.6386 864.507 66.2588 864.198C67.4991 866.367 70.2898 868.536 73.3906 868.536C74.3208 868.536 75.2511 868.536 76.1813 868.536C77.7317 868.845 80.2124 869.155 81.7628 868.845C83.6232 868.536 84.5535 866.986 83.9333 865.127C83.3132 863.268 81.1426 861.719 80.5224 859.86C82.3829 859.24 84.5535 857.381 86.724 857.071C87.6543 857.071 88.5845 856.761 89.5147 857.071C90.1349 857.071 90.445 857.691 91.0651 857.381C91.3752 857.381 91.3752 856.761 91.3752 856.451C89.8248 855.831 88.2744 855.522 86.1039 856.141C85.1736 856.451 84.2434 857.071 83.3132 857.381C82.3829 858 79.9023 858.93 79.2821 857.691C78.972 856.761 80.2124 855.212 80.5224 854.592C82.3829 852.423 84.5535 850.564 86.724 849.014C87.3442 848.395 88.2744 848.085 88.5845 847.465C90.445 846.226 92.3055 845.296 94.476 844.367C98.5071 842.198 103.158 840.029 107.499 838.479C108.43 838.169 109.67 838.169 109.98 837.24C109.36 837.24 109.05 837.55 109.05 837.55ZM45.4834 873.493C45.7935 873.183 45.4834 872.564 45.4834 871.944C46.1036 872.254 45.7935 873.183 45.4834 873.493ZM57.8866 858.93C57.8866 858 58.1967 857.691 58.1967 856.761C59.1269 857.381 59.7471 858.62 60.6773 859.24C59.437 859.24 58.5068 859.24 57.8866 858.93Z" fill="#1D1D1D"/>
<path fill-rule="evenodd" clip-rule="evenodd" d="M109.05 478.733C105.639 479.662 101.918 481.212 98.197 483.071C95.7163 484.31 93.2357 485.55 90.7551 486.789C89.8248 487.099 88.8946 487.719 88.2744 488.029C87.9643 488.338 87.9643 488.338 87.6543 488.648C87.3442 488.648 87.0341 488.648 86.724 488.958C85.1736 489.268 84.2434 490.507 83.3132 491.437C82.693 492.057 81.7628 492.986 81.1426 493.606C79.5922 495.155 78.662 496.705 77.4216 498.254C74.941 497.944 73.0805 497.014 70.2898 497.324C68.7394 497.634 67.4991 497.944 66.8789 498.874C66.2588 499.493 65.6386 501.043 65.0184 501.353C64.0882 501.662 62.2277 500.733 61.9177 500.113C61.6076 499.803 61.6076 499.493 61.2975 499.184C60.9874 498.564 59.437 496.705 58.8169 496.705C58.1967 496.705 57.5765 497.324 57.2665 497.324C56.9564 497.634 56.6463 498.254 56.3362 498.874C56.0261 499.493 55.7161 500.113 55.406 500.423C54.7858 501.043 53.2354 501.043 52.3052 501.353C51.3749 501.662 50.7548 501.972 49.5145 502.282C49.2044 501.353 49.2044 499.803 47.9641 499.803C47.3439 499.803 47.3439 501.043 47.0338 501.662C47.0338 502.592 47.3439 503.522 47.0338 504.141C47.0338 504.451 46.4137 505.071 46.1036 505.381C45.7935 506 45.4834 506.31 45.1734 506.62C44.5532 507.55 44.2431 508.789 43.623 509.409C42.6927 508.479 41.1423 509.099 41.1423 510.338C39.2818 508.169 37.4214 506.31 33.7004 506.62C30.9097 506.93 28.7391 508.169 26.8786 509.409C25.0182 510.648 23.1577 511.888 21.9174 513.437C21.2972 514.367 20.677 515.296 20.367 515.916C19.7468 516.845 18.8166 517.465 18.1964 518.085C16.646 519.634 15.0956 520.874 13.8553 522.423C13.8553 522.733 13.8553 523.043 13.8553 523.353C13.5452 523.353 13.5452 523.353 13.2351 523.353C11.0646 526.761 9.51418 530.479 7.34362 533.888C5.48314 534.507 3.00251 535.747 1.45211 536.986C0.521869 537.606 -0.71845 538.536 0.521869 539.465C0.831948 539.465 1.14203 539.155 1.45211 538.845C1.45211 538.536 1.45211 538.226 1.45211 537.916C3.31259 536.676 5.48314 535.437 7.96378 534.507C10.4444 531.099 12.3049 527.381 14.7855 523.972C14.7855 523.662 14.7855 523.662 14.7855 523.353C16.3359 523.353 17.2662 522.423 18.1964 521.493C18.8166 520.874 19.4367 519.944 20.367 519.634C20.367 521.803 20.0569 525.212 21.9174 526.451C23.4678 527.691 26.2585 526.761 28.7391 526.451C28.7391 528 27.1887 528.62 27.8089 530.789C27.4988 530.789 27.4988 531.099 27.1887 531.099C26.5686 534.507 25.9484 538.226 25.6383 541.944C24.398 543.184 23.4678 545.043 22.2274 546.592C21.6073 547.522 20.367 548.141 21.6073 549.071C22.2274 548.761 22.5375 548.451 22.2274 547.522C23.4678 545.972 24.398 544.113 25.9484 542.564C25.9484 541.634 26.2585 540.705 26.5686 539.775C26.8786 537.916 27.4988 536.057 27.8089 534.198C28.119 533.268 28.429 531.409 28.119 530.789C30.2895 529.86 30.2895 527.071 31.8399 525.522C32.4601 524.902 33.3903 524.592 34.3206 523.972C36.181 523.043 37.7314 522.423 38.9718 521.493C39.5919 520.874 40.2121 520.254 40.8322 519.944C41.4524 520.254 41.4524 520.874 42.0726 521.184C43.3129 521.493 45.1733 520.874 45.4834 519.944C46.1036 518.395 44.2431 517.775 43.933 516.536C44.2431 516.226 44.8633 515.916 45.1734 515.606C44.5532 518.705 47.9641 519.014 49.2044 516.845C49.8245 515.916 49.2044 514.986 49.8245 514.057C51.9951 514.676 51.685 518.705 53.8556 519.014C53.5455 519.944 53.8556 520.564 54.1657 521.493C55.0959 524.592 56.9564 526.761 58.5068 528.93C59.437 530.169 60.0572 531.409 61.6076 531.409C61.9177 530.479 60.6773 529.86 60.0572 529.24C59.1269 528.31 58.5068 527.071 57.5765 526.451C57.5765 525.212 56.6463 524.592 56.3362 523.353C55.7161 521.803 55.406 519.944 54.4757 519.014C56.0261 518.705 55.0959 516.226 54.4757 514.986C57.8866 514.676 60.6773 513.127 62.2277 511.268C62.5378 510.958 63.4681 509.719 63.7781 509.719C64.0882 509.719 64.3983 510.338 64.7084 510.648C65.6386 511.268 66.8789 511.888 68.1192 511.888C68.1192 511.888 68.1192 512.198 68.1192 512.507C69.3596 513.747 70.2898 515.296 71.22 516.536C72.4604 517.775 73.7007 519.014 74.6309 519.944C75.5612 519.634 76.4914 520.254 77.4216 520.254C78.0418 520.254 78.972 519.944 78.662 519.014C77.4216 519.014 76.4914 518.705 75.2511 519.014C73.0805 516.536 71.22 513.747 69.0495 511.268C69.0495 511.268 68.4293 511.578 68.4293 511.268C68.1192 510.029 67.189 509.719 66.5688 509.099C65.9487 508.479 65.0184 508.169 65.0184 507.55C65.0184 506.93 65.6386 505.691 66.2588 505.381C67.4991 507.55 70.2898 509.719 73.3906 509.719C74.3208 509.719 75.2511 509.719 76.1813 509.719C77.7317 510.029 80.2124 510.338 81.7628 510.029C83.6232 509.719 84.5535 508.169 83.9333 506.31C83.3132 504.451 81.1426 502.902 80.5224 501.043C82.3829 500.423 84.5535 498.564 86.724 498.254C87.6543 498.254 88.5845 497.944 89.5147 498.254C90.1349 498.254 90.445 498.874 91.0651 498.564C91.3752 498.564 91.3752 497.944 91.3752 497.634C89.8248 497.014 88.2744 496.705 86.1039 497.324C85.1736 497.634 84.2434 498.254 83.3132 498.564C82.3829 499.184 79.9023 500.113 79.2821 498.874C78.972 497.944 80.2124 496.395 80.5224 495.775C82.3829 493.606 84.5535 491.747 86.724 490.198C87.3442 489.578 88.2744 489.268 88.5845 488.648C90.445 487.409 92.3055 486.479 94.476 485.55C98.5071 483.381 103.158 481.212 107.499 479.662C108.43 479.353 109.67 479.353 109.98 478.423C109.36 478.423 109.05 478.733 109.05 478.733ZM45.4834 514.676C45.7935 514.367 45.4834 513.747 45.4834 513.127C46.1036 513.437 45.7935 514.676 45.4834 514.676ZM57.8866 500.113C57.8866 499.184 58.1967 498.874 58.1967 497.944C59.1269 498.564 59.7471 499.803 60.6773 500.423C59.437 500.423 58.5068 500.423 57.8866 500.113Z" fill="#1D1D1D"/>
<path fill-rule="evenodd" clip-rule="evenodd" d="M109.05 598.339C105.639 599.268 101.918 600.817 98.197 602.677C95.7163 603.916 93.2357 605.155 90.7551 606.395C89.8248 606.705 88.8946 607.324 88.2744 607.634C87.9643 607.944 87.9643 607.944 87.6543 608.254C87.3442 608.254 87.0341 608.254 86.724 608.564C85.1736 608.874 84.2434 610.113 83.3132 611.043C82.693 611.662 81.7628 612.592 81.1426 613.212C79.5922 614.761 78.662 616.31 77.4216 617.86C74.941 617.55 73.0805 616.62 70.2898 616.93C68.7394 617.24 67.4991 617.55 66.8789 618.479C66.2588 619.099 65.6386 620.648 65.0184 620.958C64.0882 621.268 62.2277 620.338 61.9177 619.719C61.6076 619.409 61.6076 619.099 61.2975 618.789C60.9874 618.169 59.437 616.31 58.8169 616.31C58.1967 616.31 57.5765 616.93 57.2665 616.93C56.9564 617.24 56.6463 617.86 56.3362 618.479C56.0261 619.099 55.7161 619.719 55.406 620.029C54.7858 620.648 53.2354 620.648 52.3052 620.958C51.3749 621.268 50.7548 621.578 49.5145 621.888C49.2044 620.958 49.2044 619.409 47.9641 619.409C47.3439 619.409 47.3439 620.648 47.0338 621.268C47.0338 622.198 47.3439 623.127 47.0338 623.747C47.0338 624.057 46.4137 624.677 46.1036 624.986C45.7935 625.606 45.4834 625.916 45.1734 626.226C44.5532 627.155 44.2431 628.395 43.623 629.015C42.6927 628.085 41.1423 628.705 41.1423 629.944C39.2818 627.775 37.4214 625.916 33.7004 626.226C30.9097 626.536 28.7391 627.775 26.8786 629.015C25.0182 630.254 23.1577 631.493 21.9174 633.043C21.2972 633.972 20.677 634.902 20.367 635.522C19.7468 636.451 18.8166 637.071 18.1964 637.691C16.646 639.24 15.0956 640.479 13.8553 642.029C13.8553 642.338 13.8553 642.648 13.8553 642.958C13.5452 642.958 13.5452 642.958 13.2351 642.958C11.0646 646.367 9.51418 650.085 7.34362 653.493C5.48314 654.113 3.00251 655.353 1.45211 656.592C0.521869 657.212 -0.71845 658.141 0.521869 659.071C0.831948 659.071 1.14203 658.761 1.45211 658.451C1.45211 658.141 1.45211 657.831 1.45211 657.522C3.31259 656.282 5.48314 655.043 7.96378 654.113C10.4444 650.705 12.3049 646.986 14.7855 643.578C14.7855 643.268 14.7855 643.268 14.7855 642.958C16.3359 642.958 17.2662 642.029 18.1964 641.099C18.8166 640.479 19.4367 639.55 20.367 639.24C20.367 641.409 20.0569 644.817 21.9174 646.057C23.4678 647.296 26.2585 646.367 28.7391 646.057C28.7391 647.606 27.1887 648.226 27.8089 650.395C27.4988 650.395 27.4988 650.705 27.1887 650.705C26.5686 654.113 25.9484 657.831 25.6383 661.55C24.398 662.789 23.4678 664.648 22.2274 666.198C21.6073 667.127 20.367 667.747 21.6073 668.676C22.2274 668.367 22.5375 668.057 22.2274 667.127C23.4678 665.578 24.398 663.719 25.9484 662.169C25.9484 661.24 26.2585 660.31 26.5686 659.381C26.8786 657.522 27.4988 655.662 27.8089 653.803C28.119 652.874 28.429 651.015 28.119 650.395C30.2895 649.465 30.2895 646.677 31.8399 645.127C32.4601 644.508 33.3903 644.198 34.3206 643.578C36.181 642.648 37.7314 642.029 38.9718 641.099C39.5919 640.479 40.2121 639.86 40.8322 639.55C41.4524 639.86 41.4524 640.479 42.0726 640.789C43.3129 641.099 45.1733 640.479 45.4834 639.55C46.1036 638 44.2431 637.381 43.933 636.141C44.2431 635.831 44.8633 635.522 45.1734 635.212C44.5532 638.31 47.9641 638.62 49.2044 636.451C49.8245 635.522 49.2044 634.592 49.8245 633.662C51.9951 634.282 51.685 638.31 53.8556 638.62C53.5455 639.55 53.8556 640.169 54.1657 641.099C55.0959 644.198 56.9564 646.367 58.5068 648.536C59.437 649.775 60.0572 651.015 61.6076 651.015C61.9177 650.085 60.6773 649.465 60.0572 648.846C59.1269 647.916 58.5068 646.676 57.5765 646.057C57.5765 644.817 56.6463 644.198 56.3362 642.958C55.7161 641.409 55.406 639.55 54.4757 638.62C56.0261 638.31 55.0959 635.831 54.4757 634.592C57.8866 634.282 60.6773 632.733 62.2277 630.874C62.5378 630.564 63.4681 629.324 63.7781 629.324C64.0882 629.324 64.3983 629.944 64.7084 630.254C65.6386 630.874 66.8789 631.493 68.1192 631.493C68.1192 631.493 68.1192 631.803 68.1192 632.113C69.3596 633.353 70.2898 634.902 71.22 636.141C72.4604 637.381 73.7007 638.62 74.6309 639.55C75.5612 639.24 76.4914 639.86 77.4216 639.86C78.0418 639.86 78.972 639.55 78.662 638.62C77.4216 638.62 76.4914 638.31 75.2511 638.62C73.0805 636.141 71.22 633.353 69.0495 630.874C69.0495 630.874 68.4293 631.184 68.4293 630.874C68.1192 629.634 67.189 629.324 66.5688 628.705C65.9487 628.085 65.0184 627.775 65.0184 627.155C65.0184 626.536 65.6386 625.296 66.2588 624.986C67.4991 627.155 70.2898 629.324 73.3906 629.324C74.3208 629.324 75.2511 629.324 76.1813 629.324C77.7317 629.634 80.2124 629.944 81.7628 629.634C83.6232 629.324 84.5535 627.775 83.9333 625.916C83.3132 624.057 81.1426 622.507 80.5224 620.648C82.3829 620.029 84.5535 618.169 86.724 617.86C87.6543 617.86 88.5845 617.55 89.5147 617.86C90.1349 617.86 90.445 618.479 91.0651 618.169C91.3752 618.169 91.3752 617.55 91.3752 617.24C89.8248 616.62 88.2744 616.31 86.1039 616.93C85.1736 617.24 84.2434 617.86 83.3132 618.169C82.3829 618.789 79.9023 619.719 79.2821 618.479C78.972 617.55 80.2124 616 80.5224 615.381C82.3829 613.212 84.5535 611.353 86.724 609.803C87.3442 609.184 88.2744 608.874 88.5845 608.254C90.445 607.015 92.3055 606.085 94.476 605.155C98.5071 602.986 103.158 600.817 107.499 599.268C108.43 598.958 109.67 598.958 109.98 598.029C109.36 598.029 109.05 598.339 109.05 598.339ZM45.4834 634.282C45.7935 633.972 45.4834 633.353 45.4834 632.733C46.1036 633.043 45.7935 633.972 45.4834 634.282ZM57.8866 619.719C57.8866 618.789 58.1967 618.479 58.1967 617.55C59.1269 618.169 59.7471 619.409 60.6773 620.029C59.437 620.029 58.5068 620.029 57.8866 619.719Z" fill="#1D1D1D"/>
</svg>
