<svg width="111" height="908" viewBox="0 0 111 908" fill="none" xmlns="http://www.w3.org/2000/svg">
<path fill-rule="evenodd" clip-rule="evenodd" d="M0.628906 239.324C1.24907 240.253 2.1793 240.253 3.10954 240.563C7.45066 242.422 12.1019 244.282 16.1329 246.451C18.3035 247.38 20.1639 248.62 22.0244 249.549C22.3345 250.169 22.9547 250.479 23.8849 251.098C26.0555 252.648 28.5361 254.507 30.0865 256.676C30.7067 257.296 31.6369 258.845 31.3268 259.774C31.0167 261.014 28.5361 259.774 27.2958 259.465C26.3655 259.155 25.4353 258.535 24.5051 258.225C22.3345 257.605 20.7841 257.915 19.2337 258.535C19.2337 259.155 19.2337 259.465 19.5438 259.465C20.1639 259.774 20.474 259.155 21.0942 259.155C22.0244 258.845 22.9547 259.155 23.8849 259.155C26.0555 259.465 28.226 261.324 30.0865 261.943C29.4663 263.803 27.2958 265.042 26.6756 267.211C26.0555 269.07 26.9857 270.62 28.8462 270.929C30.7067 271.239 32.8772 270.929 34.4276 270.62C35.3579 270.31 36.2881 270.62 37.2183 270.62C40.3191 270.31 43.1098 268.45 44.3502 266.281C44.9703 266.591 45.5905 267.831 45.5905 268.451C45.5905 269.07 44.6603 269.69 44.0401 270C43.1099 270.62 42.1796 270.929 42.1796 272.169C42.1796 272.479 41.5595 272.169 41.5595 272.169C39.3889 274.648 37.5284 277.436 35.3579 279.915C34.1175 279.605 33.1873 279.915 31.947 279.915C31.947 280.845 32.5671 280.845 33.1873 281.155C34.1175 281.155 35.0478 280.535 35.978 280.845C37.2183 279.605 38.4587 278.676 39.3889 277.436C40.6292 276.197 41.5595 274.648 42.4897 273.408C42.4897 273.098 42.7998 273.098 42.4897 272.789C43.73 273.098 44.9703 272.169 45.9006 271.549C46.2106 271.239 46.5207 270.62 46.8308 270.62C47.1409 270.62 48.0711 271.549 48.3812 272.169C49.9316 274.028 52.7223 275.577 56.1332 275.887C55.5131 276.817 54.8929 279.296 56.1332 279.915C55.203 280.845 54.8929 282.704 54.2727 284.253C53.6526 285.493 53.0324 286.422 53.0324 287.352C52.1022 287.972 51.482 289.211 50.5518 290.141C49.9316 290.76 48.6913 291.38 49.0014 292.31C50.5518 292.31 51.1719 291.07 52.1022 289.831C53.6526 287.662 55.5131 285.493 56.4433 282.394C56.7534 281.774 57.0634 280.845 56.7534 279.915C58.9239 279.605 58.6139 275.577 60.7844 274.958C61.4046 275.887 60.7844 276.507 61.4046 277.746C62.6449 279.915 66.0558 279.605 65.4356 276.507C65.7457 276.507 66.3658 277.127 66.6759 277.436C66.6759 278.676 64.8154 279.296 65.1255 280.845C65.4356 281.774 67.2961 282.394 68.5364 282.084C69.1566 281.774 69.1566 281.155 69.7767 280.845C70.707 281.155 71.0171 281.774 71.6372 282.394C72.8775 283.324 74.738 284.253 76.2884 284.873C77.2187 285.183 78.459 285.803 78.769 286.422C80.3194 287.972 80.3195 291.07 82.49 291.69C82.1799 292.31 82.8001 294.169 82.8001 295.098C83.1102 296.958 83.4202 298.817 84.0404 300.676C84.3505 301.605 84.6606 302.535 84.6606 303.465C86.211 305.014 87.1412 306.873 88.3815 308.422C88.0714 309.352 88.6916 309.662 89.0017 309.972C90.242 309.352 89.3118 308.422 88.3815 307.493C87.1412 305.943 86.211 304.084 84.9706 302.845C84.3505 299.127 84.0404 295.408 83.4202 292C83.4202 292 83.1102 291.69 82.8001 291.69C83.4202 289.831 81.8698 288.901 81.8698 287.352C84.3505 287.662 87.1412 288.591 88.6916 287.352C90.242 286.112 90.242 282.704 90.242 280.535C90.8622 280.845 91.4823 281.774 92.4126 282.394C93.3428 283.324 94.273 284.253 95.8234 284.253C95.8234 284.563 95.8234 284.563 95.8234 284.873C97.994 288.281 100.165 292 102.645 295.408C105.126 296.338 107.296 297.267 109.157 298.817C109.157 299.127 109.157 299.436 109.157 299.746C109.467 300.056 109.467 300.366 110.087 300.366C111.327 299.436 110.087 298.507 109.157 297.887C107.606 296.648 105.126 295.408 103.265 294.789C101.095 291.38 99.5444 287.352 97.3738 284.253C97.0638 284.253 97.0638 284.253 96.7537 284.253C96.7537 283.943 96.7537 283.634 96.7537 283.324C95.5134 281.774 93.963 280.225 92.4126 278.986C91.4823 278.366 90.8622 277.436 90.242 276.817C89.6218 275.887 89.3118 274.958 88.6916 274.338C87.4513 272.789 85.9009 271.549 83.7303 270.31C81.8698 269.07 79.6993 267.831 76.9086 267.521C73.4977 267.211 71.3271 269.07 69.4667 271.239C69.4667 270 68.2263 269.38 66.986 270.31C66.3659 269.69 66.0558 268.451 65.4356 267.521C65.1255 267.211 64.8154 266.591 64.5054 266.281C64.1953 265.972 63.5751 265.352 63.5751 265.042C63.5751 264.422 63.5751 263.493 63.5751 262.563C63.5751 261.943 63.265 261.014 62.6449 260.704C61.7146 260.394 61.4046 262.253 61.0945 263.183C59.8542 262.873 59.234 262.563 58.3038 262.253C57.6836 261.943 56.1332 261.943 55.203 261.324C54.8929 261.014 54.5828 260.394 54.2727 259.774C53.9626 259.155 53.6526 258.535 53.3425 258.225C53.0324 257.915 52.1022 257.296 51.7921 257.605C51.1719 257.605 49.6215 259.465 49.3115 260.084C49.0014 260.394 49.0014 260.704 48.6913 261.014C48.3812 261.324 46.5207 262.563 45.5905 262.253C44.6603 261.943 44.3502 260.394 43.73 259.774C42.7998 258.845 41.5595 258.535 40.3191 258.225C37.2183 257.915 35.6679 258.845 33.1873 259.155C31.947 257.915 30.7067 256.056 29.4663 254.507C28.8462 253.887 27.9159 252.958 27.2958 252.338C26.3655 251.408 25.4353 250.169 23.8849 249.859C23.5748 249.859 23.2647 249.859 22.9547 249.549C22.6446 249.549 22.6446 249.239 22.3345 248.929C21.7143 248.31 20.7841 248 19.8539 247.69C17.3732 246.451 14.8926 245.211 12.4119 243.972C9.00106 242.422 5.2801 240.873 1.55914 239.634C1.24906 239.324 0.938986 239.014 0.628906 239.324ZM64.8155 274.028C64.8155 274.338 64.5054 275.267 64.8155 275.577C64.5054 275.267 64.1953 274.028 64.8155 274.028ZM49.9316 261.014C50.8619 260.394 51.482 259.155 52.4123 258.535C52.4123 259.465 52.7223 259.774 52.7223 260.704C51.7921 261.014 50.8619 261.014 49.9316 261.014Z" fill="#1D1D1D"/>
<path fill-rule="evenodd" clip-rule="evenodd" d="M0.628906 358.93C1.24907 359.86 2.1793 359.86 3.10954 360.17C7.45066 362.029 12.1019 363.888 16.1329 366.057C18.3035 366.986 20.1639 368.226 22.0244 369.155C22.3345 369.775 22.9547 370.085 23.8849 370.705C26.0555 372.254 28.5361 374.113 30.0865 376.282C30.7067 376.902 31.6369 378.451 31.3268 379.381C31.0167 380.62 28.5361 379.381 27.2958 379.071C26.3655 378.761 25.4353 378.141 24.5051 377.832C22.3345 377.212 20.7841 377.522 19.2337 378.141C19.2337 378.761 19.2337 379.071 19.5438 379.071C20.1639 379.381 20.474 378.761 21.0942 378.761C22.0244 378.451 22.9547 378.761 23.8849 378.761C26.0555 379.071 28.226 380.93 30.0865 381.55C29.4663 383.409 27.2958 384.648 26.6756 386.817C26.0555 388.677 26.9857 390.226 28.8462 390.536C30.7067 390.846 32.8772 390.536 34.4276 390.226C35.3579 389.916 36.2881 390.226 37.2183 390.226C40.3191 389.916 43.1098 388.057 44.3502 385.888C44.9703 386.198 45.5905 387.437 45.5905 388.057C45.5905 388.677 44.6603 389.296 44.0401 389.606C43.1099 390.226 42.1796 390.536 42.1796 391.775C42.1796 392.085 41.5595 391.775 41.5595 391.775C39.3889 394.254 37.5284 397.043 35.3579 399.522C34.1175 399.212 33.1873 399.522 31.947 399.522C31.947 400.451 32.5671 400.451 33.1873 400.761C34.1175 400.761 35.0478 400.141 35.978 400.451C37.2183 399.212 38.4587 398.282 39.3889 397.043C40.6292 395.803 41.5595 394.254 42.4897 393.015C42.4897 392.705 42.7998 392.705 42.4897 392.395C43.73 392.705 44.9703 391.775 45.9006 391.155C46.2106 390.846 46.5207 390.226 46.8308 390.226C47.1409 390.226 48.0711 391.155 48.3812 391.775C49.9316 393.634 52.7223 395.184 56.1332 395.494C55.5131 396.423 54.8929 398.902 56.1332 399.522C55.203 400.451 54.8929 402.31 54.2727 403.86C53.6526 405.099 53.0324 406.029 53.0324 406.958C52.1022 407.578 51.482 408.817 50.5518 409.747C49.9316 410.367 48.6913 410.986 49.0014 411.916C50.5518 411.916 51.1719 410.677 52.1022 409.437C53.6526 407.268 55.5131 405.099 56.4433 402.001C56.7534 401.381 57.0634 400.451 56.7534 399.522C58.9239 399.212 58.6139 395.184 60.7844 394.564C61.4046 395.494 60.7844 396.113 61.4046 397.353C62.6449 399.522 66.0558 399.212 65.4356 396.113C65.7457 396.113 66.3658 396.733 66.6759 397.043C66.6759 398.282 64.8154 398.902 65.1255 400.451C65.4356 401.381 67.2961 402.001 68.5364 401.691C69.1566 401.381 69.1566 400.761 69.7767 400.451C70.707 400.761 71.0171 401.381 71.6372 402.001C72.8775 402.93 74.738 403.86 76.2884 404.479C77.2187 404.789 78.459 405.409 78.769 406.029C80.3194 407.578 80.3195 410.677 82.49 411.296C82.1799 411.916 82.8001 413.775 82.8001 414.705C83.1102 416.564 83.4202 418.423 84.0404 420.282C84.3505 421.212 84.6606 422.141 84.6606 423.071C86.211 424.62 87.1412 426.479 88.3815 428.029C88.0714 428.958 88.6916 429.268 89.0017 429.578C90.242 428.958 89.3118 428.029 88.3815 427.099C87.1412 425.55 86.211 423.691 84.9706 422.451C84.3505 418.733 84.0404 415.015 83.4202 411.606C83.4202 411.606 83.1102 411.296 82.8001 411.296C83.4202 409.437 81.8698 408.508 81.8698 406.958C84.3505 407.268 87.1412 408.198 88.6916 406.958C90.242 405.719 90.242 402.31 90.242 400.141C90.8622 400.451 91.4823 401.381 92.4126 402.001C93.3428 402.93 94.273 403.86 95.8234 403.86C95.8234 404.17 95.8234 404.17 95.8234 404.479C97.994 407.888 100.165 411.606 102.645 415.015C105.126 415.944 107.296 416.874 109.157 418.423C109.157 418.733 109.157 419.043 109.157 419.353C109.467 419.663 109.467 419.972 110.087 419.972C111.327 419.043 110.087 418.113 109.157 417.494C107.606 416.254 105.126 415.015 103.265 414.395C101.095 410.986 99.5444 406.958 97.3738 403.86C97.0638 403.86 97.0638 403.86 96.7537 403.86C96.7537 403.55 96.7537 403.24 96.7537 402.93C95.5134 401.381 93.963 399.832 92.4126 398.592C91.4823 397.972 90.8622 397.043 90.242 396.423C89.6218 395.494 89.3118 394.564 88.6916 393.944C87.4513 392.395 85.9009 391.156 83.7303 389.916C81.8698 388.677 79.6993 387.437 76.9086 387.127C73.4977 386.817 71.3271 388.677 69.4667 390.846C69.4667 389.606 68.2263 388.986 66.986 389.916C66.3659 389.296 66.0558 388.057 65.4356 387.127C65.1255 386.817 64.8154 386.198 64.5054 385.888C64.1953 385.578 63.5751 384.958 63.5751 384.648C63.5751 384.029 63.5751 383.099 63.5751 382.17C63.5751 381.55 63.265 380.62 62.6449 380.31C61.7146 380.001 61.4046 381.86 61.0945 382.789C59.8542 382.479 59.234 382.17 58.3038 381.86C57.6836 381.55 56.1332 381.55 55.203 380.93C54.8929 380.62 54.5828 380.001 54.2727 379.381C53.9626 378.761 53.6526 378.141 53.3425 377.832C53.0324 377.522 52.1022 376.902 51.7921 377.212C51.1719 377.212 49.6215 379.071 49.3115 379.691C49.0014 380.001 49.0014 380.31 48.6913 380.62C48.3812 380.93 46.5207 382.17 45.5905 381.86C44.6603 381.55 44.3502 380.001 43.73 379.381C42.7998 378.451 41.5595 378.141 40.3191 377.832C37.2183 377.522 35.6679 378.451 33.1873 378.761C31.947 377.522 30.7067 375.663 29.4663 374.113C28.8462 373.494 27.9159 372.564 27.2958 371.944C26.3655 371.015 25.4353 369.775 23.8849 369.465C23.5748 369.465 23.2647 369.465 22.9547 369.155C22.6446 369.155 22.6446 368.846 22.3345 368.536C21.7143 367.916 20.7841 367.606 19.8539 367.296C17.3732 366.057 14.8926 364.817 12.4119 363.578C9.00106 362.029 5.2801 360.479 1.55914 359.24C1.24906 358.93 0.938986 358.62 0.628906 358.93ZM64.8155 393.325C64.8155 393.634 64.5054 394.564 64.8155 394.874C64.5054 394.874 64.1953 393.634 64.8155 393.325ZM49.9316 380.62C50.8619 380.001 51.482 378.761 52.4123 378.141C52.4123 379.071 52.7223 379.381 52.7223 380.31C51.7921 380.62 50.8619 380.62 49.9316 380.62Z" fill="#1D1D1D"/>
<path fill-rule="evenodd" clip-rule="evenodd" d="M0.628906 0.112549C1.24907 1.04213 2.1793 1.04213 3.10954 1.35199C7.45066 3.21114 12.1019 5.0703 16.1329 7.23931C18.3035 8.16889 20.1639 9.40832 22.0244 10.3379C22.3345 10.9576 22.9547 11.2675 23.8849 11.8872C26.0555 13.4365 28.5361 15.2956 30.0865 17.4647C30.7067 18.0844 31.6369 19.6337 31.3268 20.5632C31.0167 21.8027 28.5361 20.5632 27.2958 20.2534C26.3655 19.9435 25.4353 19.3238 24.5051 19.014C22.3345 18.3942 20.7841 18.7041 19.2337 19.3238C19.2337 19.9435 19.2337 20.2534 19.5438 20.2534C20.1639 20.5632 20.474 19.9435 21.0942 19.9435C22.0244 19.6337 22.9547 19.9435 23.8849 19.9435C26.0555 20.2534 28.226 22.1125 30.0865 22.7323C29.4663 24.5914 27.2958 25.8308 26.6756 27.9999C26.0555 29.859 26.9857 31.4083 28.8462 31.7182C30.7067 32.028 32.8772 31.7182 34.4276 31.4083C35.3579 31.0985 36.2881 31.4083 37.2183 31.4083C40.3191 31.0985 43.1098 29.2393 44.3502 27.0703C44.9703 27.3801 45.5905 28.6196 45.5905 29.2393C45.5905 29.859 44.6603 30.4787 44.0401 30.7886C43.1099 31.4083 42.1796 31.7182 42.1796 32.9576C42.1796 33.2675 41.5595 32.9576 41.5595 32.9576C39.3889 35.4365 37.5284 38.2252 35.3579 40.7041C34.1175 40.3942 33.1873 40.7041 31.947 40.7041C31.947 41.6337 32.5671 41.6337 33.1873 41.9435C34.1175 41.9435 35.0478 41.3238 35.978 41.6337C37.2183 40.3942 38.4587 39.4646 39.3889 38.2252C40.6292 36.9858 41.5595 35.4365 42.4897 34.197C42.4897 33.8872 42.7998 33.8872 42.4897 33.5773C43.73 33.8872 44.9703 32.9576 45.9006 32.3379C46.2106 32.028 46.5207 31.4083 46.8308 31.4083C47.1409 31.4083 48.0711 32.3379 48.3812 32.9576C49.9316 34.8168 52.7223 36.3661 56.1332 36.6759C55.5131 37.6055 54.8929 40.0844 56.1332 40.7041C55.203 41.6337 54.8929 43.4928 54.2727 45.0421C53.6526 46.2815 53.0324 47.2111 53.0324 48.1407C52.1022 48.7604 51.482 49.9999 50.5518 50.9294C49.9316 51.5491 48.6913 52.1689 49.0014 53.0984C50.5518 53.0984 51.1719 51.859 52.1022 50.6196C53.6526 48.4506 55.5131 46.2815 56.4433 43.183C56.7534 42.5632 57.0634 41.6337 56.7534 40.7041C58.9239 40.3942 58.6139 36.3661 60.7844 35.7463C61.4046 36.6759 60.7844 37.2956 61.4046 38.5351C62.6449 40.7041 66.0558 40.3942 65.4356 37.2956C65.7457 37.2956 66.3658 37.9154 66.6759 38.2252C66.6759 39.4646 64.8154 40.0844 65.1255 41.6337C65.4356 42.5632 67.2961 43.1829 68.5364 42.8731C69.1566 42.5632 69.1566 41.9435 69.7767 41.6337C70.707 41.9435 71.0171 42.5632 71.6372 43.183C72.8775 44.1125 74.738 45.0421 76.2884 45.6618C77.2187 45.9717 78.459 46.5914 78.769 47.2111C80.3194 48.7604 80.3195 51.859 82.49 52.4787C82.1799 53.0984 82.8001 54.9576 82.8001 55.8872C83.1102 57.7463 83.4202 59.6055 84.0404 61.4646C84.3505 62.3942 84.6606 63.3238 84.6606 64.2534C86.211 65.8027 87.1412 67.6618 88.3815 69.2111C88.0714 70.1407 88.6916 70.4505 89.0017 70.7604C90.242 70.1407 89.3118 69.2111 88.3815 68.2815C87.1412 66.7322 86.211 64.8731 84.9706 63.6336C84.3505 59.9153 84.0404 56.197 83.4202 52.7886C83.4202 52.7886 83.1102 52.4787 82.8001 52.4787C83.4202 50.6196 81.8698 49.69 81.8698 48.1407C84.3505 48.4506 87.1412 49.3801 88.6916 48.1407C90.242 46.9013 90.242 43.4928 90.242 41.3238C90.8622 41.6337 91.4823 42.5632 92.4126 43.183C93.3428 44.1125 94.273 45.0421 95.8234 45.0421C95.8234 45.352 95.8234 45.352 95.8234 45.6618C97.994 49.0703 100.165 52.7886 102.645 56.197C105.126 57.1266 107.296 58.0562 109.157 59.6055C109.157 59.9153 109.157 60.2252 109.157 60.5351C109.467 60.8449 109.467 61.1548 110.087 61.1548C111.327 60.2252 110.087 59.2956 109.157 58.6759C107.606 57.4365 105.126 56.197 103.265 55.5773C101.095 52.1689 99.5444 48.1407 97.3738 45.0421C97.0638 45.0421 97.0638 45.0421 96.7537 45.0421C96.7537 44.7322 96.7537 44.4224 96.7537 44.1125C95.5134 42.5632 93.963 41.0139 92.4126 39.7745C91.4823 39.1548 90.8622 38.2252 90.242 37.6055C89.6218 36.6759 89.3118 35.7463 88.6916 35.1266C87.4513 33.5773 85.9009 32.3379 83.7303 31.0984C81.8698 29.859 79.6993 28.6196 76.9086 28.3097C73.4977 27.9999 71.3271 29.859 69.4667 32.028C69.4667 30.7886 68.2263 30.1689 66.986 31.0984C66.3659 30.4787 66.0558 29.2393 65.4356 28.3097C65.1255 27.9999 64.8154 27.3801 64.5054 27.0703C64.1953 26.7604 63.5751 26.1407 63.5751 25.8309C63.5751 25.2111 63.5751 24.2816 63.5751 23.352C63.5751 22.7323 63.265 21.8027 62.6449 21.4928C61.7146 21.183 61.4046 23.0421 61.0945 23.9717C59.8542 23.6618 59.234 23.352 58.3038 23.0421C57.6836 22.7323 56.1332 22.7323 55.203 22.1125C54.8929 21.8027 54.5828 21.183 54.2727 20.5632C53.9626 19.9435 53.6526 19.3238 53.3425 19.014C53.0324 18.7041 52.1022 18.0844 51.7921 18.3942C51.1719 18.3942 49.6215 20.2534 49.3115 20.8731C49.0014 21.183 49.0014 21.4928 48.6913 21.8027C48.3812 22.1125 46.5207 23.352 45.5905 23.0421C44.6603 22.7323 44.3502 21.183 43.73 20.5632C42.7998 19.6337 41.5595 19.3238 40.3191 19.014C37.2183 18.7041 35.6679 19.6337 33.1873 19.9435C31.947 18.7041 30.7067 16.8449 29.4663 15.2956C28.8462 14.6759 27.9159 13.7463 27.2958 13.1266C26.3655 12.1971 25.4353 10.9576 23.8849 10.6478C23.5748 10.6478 23.2647 10.6478 22.9547 10.3379C22.6446 10.3379 22.6446 10.028 22.3345 9.71818C21.7143 9.09846 20.7841 8.7886 19.8539 8.47874C17.3732 7.23931 14.8926 5.99987 12.4119 4.76043C9.00106 3.21114 5.2801 1.66185 1.55914 0.422409C1.24906 0.11255 0.938986 0.112549 0.628906 0.112549ZM64.8155 34.8168C64.8155 35.1266 64.5054 36.0562 64.8155 36.3661C64.5054 36.0562 64.1953 34.8168 64.8155 34.8168ZM49.9316 21.8027C50.8619 21.183 51.482 19.9435 52.4123 19.3238C52.4123 20.2534 52.7223 20.5632 52.7223 21.4928C51.7921 21.8027 50.8619 21.8027 49.9316 21.8027Z" fill="#1D1D1D"/>
<path fill-rule="evenodd" clip-rule="evenodd" d="M0.628906 119.719C1.24907 120.648 2.1793 120.648 3.10954 120.958C7.45066 122.817 12.1019 124.676 16.1329 126.845C18.3035 127.775 20.1639 129.014 22.0244 129.944C22.3345 130.564 22.9547 130.874 23.8849 131.493C26.0555 133.043 28.5361 134.902 30.0865 137.071C30.7067 137.691 31.6369 139.24 31.3268 140.169C31.0167 141.409 28.5361 140.169 27.2958 139.86C26.3655 139.55 25.4353 138.93 24.5051 138.62C22.3345 138 20.7841 138.31 19.2337 138.93C19.2337 139.55 19.2337 139.86 19.5438 139.86C20.1639 140.169 20.474 139.55 21.0942 139.55C22.0244 139.24 22.9547 139.55 23.8849 139.55C26.0555 139.86 28.226 141.719 30.0865 142.338C29.4663 144.198 27.2958 145.437 26.6756 147.606C26.0555 149.465 26.9857 151.014 28.8462 151.324C30.7067 151.634 32.8772 151.324 34.4276 151.014C35.3579 150.705 36.2881 151.014 37.2183 151.014C40.3191 150.705 43.1098 148.845 44.3502 146.676C44.9703 146.986 45.5905 148.226 45.5905 148.845C45.5905 149.465 44.6603 150.085 44.0401 150.395C43.1099 151.014 42.1796 151.324 42.1796 152.564C42.1796 152.874 41.5595 152.564 41.5595 152.564C39.3889 155.043 37.5284 157.831 35.3579 160.31C34.1175 160 33.1873 160.31 31.947 160.31C31.947 161.24 32.5671 161.24 33.1873 161.55C34.1175 161.55 35.0478 160.93 35.978 161.24C37.2183 160 38.4587 159.071 39.3889 157.831C40.6292 156.592 41.5595 155.043 42.4897 153.803C42.4897 153.493 42.7998 153.493 42.4897 153.183C43.73 153.493 44.9703 152.564 45.9006 151.944C46.2106 151.634 46.5207 151.014 46.8308 151.014C47.1409 151.014 48.0711 151.944 48.3812 152.564C49.9316 154.423 52.7223 155.972 56.1332 156.282C55.5131 157.212 54.8929 159.691 56.1332 160.31C55.203 161.24 54.8929 163.099 54.2727 164.648C53.6526 165.888 53.0324 166.817 53.0324 167.747C52.1022 168.367 51.482 169.606 50.5518 170.536C49.9316 171.155 48.6913 171.775 49.0014 172.705C50.5518 172.705 51.1719 171.465 52.1022 170.226C53.6526 168.057 55.5131 165.888 56.4433 162.789C56.7534 162.169 57.0634 161.24 56.7534 160.31C58.9239 160 58.6139 155.972 60.7844 155.352C61.4046 156.282 60.7844 156.902 61.4046 158.141C62.6449 160.31 66.0558 160 65.4356 156.902C65.7457 156.902 66.3658 157.521 66.6759 157.831C66.6759 159.071 64.8154 159.691 65.1255 161.24C65.4356 162.169 67.2961 162.789 68.5364 162.479C69.1566 162.169 69.1566 161.55 69.7767 161.24C70.707 161.55 71.0171 162.169 71.6372 162.789C72.8775 163.719 74.738 164.648 76.2884 165.268C77.2187 165.578 78.459 166.198 78.769 166.817C80.3194 168.367 80.3195 171.465 82.49 172.085C82.1799 172.705 82.8001 174.564 82.8001 175.493C83.1102 177.352 83.4202 179.212 84.0404 181.071C84.3505 182 84.6606 182.93 84.6606 183.86C86.211 185.409 87.1412 187.268 88.3815 188.817C88.0714 189.747 88.6916 190.057 89.0017 190.367C90.242 189.747 89.3118 188.817 88.3815 187.888C87.1412 186.338 86.211 184.479 84.9706 183.24C84.3505 179.521 84.0404 175.803 83.4202 172.395C83.4202 172.395 83.1102 172.085 82.8001 172.085C83.4202 170.226 81.8698 169.296 81.8698 167.747C84.3505 168.057 87.1412 168.986 88.6916 167.747C90.242 166.507 90.242 163.099 90.242 160.93C90.8622 161.24 91.4823 162.169 92.4126 162.789C93.3428 163.719 94.273 164.648 95.8234 164.648C95.8234 164.958 95.8234 164.958 95.8234 165.268C97.994 168.676 100.165 172.395 102.645 175.803C105.126 176.733 107.296 177.662 109.157 179.212C109.157 179.521 109.157 179.831 109.157 180.141C109.467 180.451 109.467 180.761 110.087 180.761C111.327 179.831 110.087 178.902 109.157 178.282C107.606 177.043 105.126 175.803 103.265 175.183C101.095 171.775 99.5444 167.747 97.3738 164.648C97.0638 164.648 97.0638 164.648 96.7537 164.648C96.7537 164.338 96.7537 164.029 96.7537 163.719C95.5134 162.169 93.963 160.62 92.4126 159.381C91.4823 158.761 90.8622 157.831 90.242 157.212C89.6218 156.282 89.3118 155.352 88.6916 154.733C87.4513 153.183 85.9009 151.944 83.7303 150.705C81.8698 149.465 79.6993 148.226 76.9086 147.916C73.4977 147.606 71.3271 149.465 69.4667 151.634C69.4667 150.395 68.2263 149.775 66.986 150.705C66.3659 150.085 66.0558 148.845 65.4356 147.916C65.1255 147.606 64.8154 146.986 64.5054 146.676C64.1953 146.367 63.5751 145.747 63.5751 145.437C63.5751 144.817 63.5751 143.888 63.5751 142.958C63.5751 142.338 63.265 141.409 62.6449 141.099C61.7146 140.789 61.4046 142.648 61.0945 143.578C59.8542 143.268 59.234 142.958 58.3038 142.648C57.6836 142.338 56.1332 142.338 55.203 141.719C54.8929 141.409 54.5828 140.789 54.2727 140.169C53.9626 139.55 53.6526 138.93 53.3425 138.62C53.0324 138.31 52.1022 137.691 51.7921 138C51.1719 138 49.6215 139.86 49.3115 140.479C49.0014 140.789 49.0014 141.099 48.6913 141.409C48.3812 141.719 46.5207 142.958 45.5905 142.648C44.6603 142.338 44.3502 140.789 43.73 140.169C42.7998 139.24 41.5595 138.93 40.3191 138.62C37.2183 138.31 35.6679 139.24 33.1873 139.55C31.947 138.31 30.7067 136.451 29.4663 134.902C28.8462 134.282 27.9159 133.352 27.2958 132.733C26.3655 131.803 25.4353 130.564 23.8849 130.254C23.5748 130.254 23.2647 130.254 22.9547 129.944C22.6446 129.944 22.6446 129.634 22.3345 129.324C21.7143 128.705 20.7841 128.395 19.8539 128.085C17.3732 126.845 14.8926 125.606 12.4119 124.367C9.00106 122.817 5.2801 121.268 1.55914 120.029C1.24906 119.719 0.938986 119.719 0.628906 119.719ZM64.8155 154.423C64.8155 154.733 64.5054 155.662 64.8155 155.972C64.5054 155.662 64.1953 154.423 64.8155 154.423ZM49.9316 141.409C50.8619 140.789 51.482 139.55 52.4123 138.93C52.4123 139.86 52.7223 140.169 52.7223 141.099C51.7921 141.409 50.8619 141.409 49.9316 141.409Z" fill="#1D1D1D"/>
<path fill-rule="evenodd" clip-rule="evenodd" d="M0.628906 717.746C1.24907 718.676 2.1793 718.676 3.10954 718.986C7.45066 720.845 12.1019 722.704 16.1329 724.873C18.3035 725.802 20.1639 727.042 22.0244 727.971C22.3345 728.591 22.9547 728.901 23.8849 729.521C26.0555 731.07 28.5361 732.929 30.0865 735.098C30.7067 735.718 31.6369 737.267 31.3268 738.197C31.0167 739.436 28.5361 738.197 27.2958 737.887C26.3655 737.577 25.4353 736.957 24.5051 736.648C22.3345 736.028 20.7841 736.338 19.2337 736.957C19.2337 737.577 19.2337 737.887 19.5438 737.887C20.1639 738.197 20.474 737.577 21.0942 737.577C22.0244 737.267 22.9547 737.577 23.8849 737.577C26.0555 737.887 28.226 739.746 30.0865 740.366C29.4663 742.225 27.2958 743.464 26.6756 745.633C26.0555 747.493 26.9857 749.042 28.8462 749.352C30.7067 749.662 32.8772 749.352 34.4276 749.042C35.3579 748.732 36.2881 749.042 37.2183 749.042C40.3191 748.732 43.1098 746.873 44.3502 744.704C44.9703 745.014 45.5905 746.253 45.5905 746.873C45.5905 747.493 44.6603 748.112 44.0401 748.422C43.1099 749.042 42.1796 749.352 42.1796 750.591C42.1796 750.901 41.5595 750.591 41.5595 750.591C39.3889 753.07 37.5284 755.859 35.3579 758.338C34.1175 758.028 33.1873 758.338 31.947 758.338C31.947 759.267 32.5671 759.267 33.1873 759.577C34.1175 759.577 35.0478 758.957 35.978 759.267C37.2183 758.028 38.4587 757.098 39.3889 755.859C40.6292 754.619 41.5595 753.07 42.4897 751.831C42.4897 751.521 42.7998 751.521 42.4897 751.211C43.73 751.521 44.9703 750.591 45.9006 749.971C46.2106 749.662 46.5207 749.042 46.8308 749.042C47.1409 749.042 48.0711 749.972 48.3812 750.591C49.9316 752.45 52.7223 754 56.1332 754.31C55.5131 755.239 54.8929 757.718 56.1332 758.338C55.203 759.267 54.8929 761.126 54.2727 762.676C53.6526 763.915 53.0324 764.845 53.0324 765.774C52.1022 766.394 51.482 767.633 50.5518 768.563C49.9316 769.183 48.6913 769.803 49.0014 770.732C50.5518 770.732 51.1719 769.493 52.1022 768.253C53.6526 766.084 55.5131 763.915 56.4433 760.817C56.7534 760.197 57.0634 759.267 56.7534 758.338C58.9239 758.028 58.6139 754 60.7844 753.38C61.4046 754.31 60.7844 754.929 61.4046 756.169C62.6449 758.338 66.0558 758.028 65.4356 754.929C65.7457 754.929 66.3658 755.549 66.6759 755.859C66.6759 757.098 64.8154 757.718 65.1255 759.267C65.4356 760.197 67.2961 760.817 68.5364 760.507C69.1566 760.197 69.1566 759.577 69.7767 759.267C70.707 759.577 71.0171 760.197 71.6372 760.817C72.8775 761.746 74.738 762.676 76.2884 763.295C77.2187 763.605 78.459 764.225 78.769 764.845C80.3194 766.394 80.3195 769.493 82.49 770.112C82.1799 770.732 82.8001 772.591 82.8001 773.521C83.1102 775.38 83.4202 777.239 84.0404 779.098C84.3505 780.028 84.6606 780.957 84.6606 781.887C86.211 783.436 87.1412 785.296 88.3815 786.845C88.0714 787.774 88.6916 788.084 89.0017 788.394C90.242 787.774 89.3118 786.845 88.3815 785.915C87.1412 784.366 86.211 782.507 84.9706 781.267C84.3505 777.549 84.0404 773.831 83.4202 770.422C83.4202 770.422 83.1102 770.112 82.8001 770.112C83.4202 768.253 81.8698 767.324 81.8698 765.774C84.3505 766.084 87.1412 767.014 88.6916 765.774C90.242 764.535 90.242 761.126 90.242 758.957C90.8622 759.267 91.4823 760.197 92.4126 760.817C93.3428 761.746 94.273 762.676 95.8234 762.676C95.8234 762.986 95.8234 762.986 95.8234 763.295C97.994 766.704 100.165 770.422 102.645 773.831C105.126 774.76 107.296 775.69 109.157 777.239C109.157 777.549 109.157 777.859 109.157 778.169C109.467 778.479 109.467 778.788 110.087 778.788C111.327 777.859 110.087 776.929 109.157 776.31C107.606 775.07 105.126 773.831 103.265 773.211C101.095 769.802 99.5444 765.774 97.3738 762.676C97.0638 762.676 97.0638 762.676 96.7537 762.676C96.7537 762.366 96.7537 762.056 96.7537 761.746C95.5134 760.197 93.963 758.648 92.4126 757.408C91.4823 756.788 90.8622 755.859 90.242 755.239C89.6218 754.31 89.3118 753.38 88.6916 752.76C87.4513 751.211 85.9009 749.971 83.7303 748.732C81.8698 747.493 79.6993 746.253 76.9086 745.943C73.4977 745.633 71.3271 747.493 69.4667 749.662C69.4667 748.422 68.2263 747.802 66.986 748.732C66.3659 748.112 66.0558 746.873 65.4356 745.943C65.1255 745.633 64.8154 745.014 64.5054 744.704C64.1953 744.394 63.5751 743.774 63.5751 743.464C63.5751 742.845 63.5751 741.915 63.5751 740.986C63.5751 740.366 63.265 739.436 62.6449 739.126C61.7146 738.817 61.4046 740.676 61.0945 741.605C59.8542 741.295 59.234 740.986 58.3038 740.676C57.6836 740.366 56.1332 740.366 55.203 739.746C54.8929 739.436 54.5828 738.817 54.2727 738.197C53.9626 737.577 53.6526 736.957 53.3425 736.648C53.0324 736.338 52.1022 735.718 51.7921 736.028C51.1719 736.028 49.6215 737.887 49.3115 738.507C49.0014 738.817 49.0014 739.126 48.6913 739.436C48.3812 739.746 46.5207 740.986 45.5905 740.676C44.6603 740.366 44.3502 738.817 43.73 738.197C42.7998 737.267 41.5595 736.957 40.3191 736.648C37.2183 736.338 35.6679 737.267 33.1873 737.577C31.947 736.338 30.7067 734.479 29.4663 732.929C28.8462 732.31 27.9159 731.38 27.2958 730.76C26.3655 729.831 25.4353 728.591 23.8849 728.281C23.5748 728.281 23.2647 728.281 22.9547 727.971C22.6446 727.971 22.6446 727.662 22.3345 727.352C21.7143 726.732 20.7841 726.422 19.8539 726.112C17.3732 724.873 14.8926 723.633 12.4119 722.394C9.00106 720.845 5.2801 719.295 1.55914 718.056C1.24906 717.746 0.938986 717.436 0.628906 717.746ZM64.8155 752.141C64.8155 752.45 64.5054 753.38 64.8155 753.69C64.5054 753.38 64.1953 752.45 64.8155 752.141ZM49.9316 739.126C50.8619 738.507 51.482 737.267 52.4123 736.648C52.4123 737.577 52.7223 737.887 52.7223 738.817C51.7921 739.436 50.8619 739.436 49.9316 739.126Z" fill="#1D1D1D"/>
<path fill-rule="evenodd" clip-rule="evenodd" d="M0.628906 837.352C1.24907 838.281 2.1793 838.281 3.10954 838.591C7.45066 840.45 12.1019 842.309 16.1329 844.478C18.3035 845.408 20.1639 846.648 22.0244 847.577C22.3345 848.197 22.9547 848.507 23.8849 849.126C26.0555 850.676 28.5361 852.535 30.0865 854.704C30.7067 855.324 31.6369 856.873 31.3268 857.803C31.0167 859.042 28.5361 857.803 27.2958 857.493C26.3655 857.183 25.4353 856.563 24.5051 856.253C22.3345 855.634 20.7841 855.943 19.2337 856.563C19.2337 857.183 19.2337 857.493 19.5438 857.493C20.1639 857.803 20.474 857.183 21.0942 857.183C22.0244 856.873 22.9547 857.183 23.8849 857.183C26.0555 857.493 28.226 859.352 30.0865 859.971C29.4663 861.831 27.2958 863.07 26.6756 865.239C26.0555 867.098 26.9857 868.648 28.8462 868.958C30.7067 869.267 32.8772 868.957 34.4276 868.648C35.3579 868.338 36.2881 868.648 37.2183 868.648C40.3191 868.338 43.1098 866.479 44.3502 864.31C44.9703 864.619 45.5905 865.859 45.5905 866.479C45.5905 867.098 44.6603 867.718 44.0401 868.028C43.1099 868.648 42.1796 868.957 42.1796 870.197C42.1796 870.507 41.5595 870.197 41.5595 870.197C39.3889 872.676 37.5284 875.465 35.3579 877.943C34.1175 877.634 33.1873 877.943 31.947 877.943C31.947 878.873 32.5671 878.873 33.1873 879.183C34.1175 879.183 35.0478 878.563 35.978 878.873C37.2183 877.634 38.4587 876.704 39.3889 875.465C40.6292 874.225 41.5595 872.676 42.4897 871.436C42.4897 871.126 42.7998 871.126 42.4897 870.817C43.73 871.126 44.9703 870.197 45.9006 869.577C46.2106 869.267 46.5207 868.648 46.8308 868.648C47.1409 868.648 48.0711 869.577 48.3812 870.197C49.9316 872.056 52.7223 873.605 56.1332 873.915C55.5131 874.845 54.8929 877.324 56.1332 877.943C55.203 878.873 54.8929 880.732 54.2727 882.281C53.6526 883.521 53.0324 884.45 53.0324 885.38C52.1022 886 51.482 887.239 50.5518 888.169C49.9316 888.789 48.6913 889.408 49.0014 890.338C50.5518 890.338 51.1719 889.098 52.1022 887.859C53.6526 885.69 55.5131 883.521 56.4433 880.422C56.7534 879.803 57.0634 878.873 56.7534 877.943C58.9239 877.634 58.6139 873.605 60.7844 872.986C61.4046 873.915 60.7844 874.535 61.4046 875.774C62.6449 877.943 66.0558 877.634 65.4356 874.535C65.7457 874.535 66.3658 875.155 66.6759 875.465C66.6759 876.704 64.8154 877.324 65.1255 878.873C65.4356 879.803 67.2961 880.422 68.5364 880.112C69.1566 879.803 69.1566 879.183 69.7767 878.873C70.707 879.183 71.0171 879.803 71.6372 880.422C72.8775 881.352 74.738 882.282 76.2884 882.901C77.2187 883.211 78.459 883.831 78.769 884.451C80.3194 886 80.3195 889.098 82.49 889.718C82.1799 890.338 82.8001 892.197 82.8001 893.127C83.1102 894.986 83.4202 896.845 84.0404 898.704C84.3505 899.634 84.6606 900.563 84.6606 901.493C86.211 903.042 87.1412 904.901 88.3815 906.451C88.0714 907.38 88.6916 907.69 89.0017 908C90.242 907.38 89.3118 906.451 88.3815 905.521C87.1412 903.972 86.211 902.113 84.9706 900.873C84.3505 897.155 84.0404 893.436 83.4202 890.028C83.4202 890.028 83.1102 889.718 82.8001 889.718C83.4202 887.859 81.8698 886.929 81.8698 885.38C84.3505 885.69 87.1412 886.62 88.6916 885.38C90.242 884.141 90.242 880.732 90.242 878.563C90.8622 878.873 91.4823 879.803 92.4126 880.422C93.3428 881.352 94.273 882.281 95.8234 882.281C95.8234 882.591 95.8234 882.591 95.8234 882.901C97.994 886.31 100.165 890.028 102.645 893.436C105.126 894.366 107.296 895.296 109.157 896.845C109.157 897.155 109.157 897.465 109.157 897.774C109.467 898.084 109.467 898.394 110.087 898.394C111.327 897.465 110.087 896.535 109.157 895.915C107.606 894.676 105.126 893.436 103.265 892.817C101.095 889.408 99.5444 885.38 97.3738 882.281C97.0638 882.281 97.0638 882.281 96.7537 882.281C96.7537 881.972 96.7537 881.662 96.7537 881.352C95.5134 879.803 93.963 878.253 92.4126 877.014C91.4823 876.394 90.8622 875.465 90.242 874.845C89.6218 873.915 89.3118 872.986 88.6916 872.366C87.4513 870.817 85.9009 869.577 83.7303 868.338C81.8698 867.098 79.6993 865.859 76.9086 865.549C73.4977 865.239 71.3271 867.098 69.4667 869.267C69.4667 868.028 68.2263 867.408 66.986 868.338C66.3659 867.718 66.0558 866.479 65.4356 865.549C65.1255 865.239 64.8154 864.619 64.5054 864.31C64.1953 864 63.5751 863.38 63.5751 863.07C63.5751 862.45 63.5751 861.521 63.5751 860.591C63.5751 859.972 63.265 859.042 62.6449 858.732C61.7146 858.422 61.4046 860.281 61.0945 861.211C59.8542 860.901 59.234 860.591 58.3038 860.281C57.6836 859.972 56.1332 859.972 55.203 859.352C54.8929 859.042 54.5828 858.422 54.2727 857.803C53.9626 857.183 53.6526 856.563 53.3425 856.253C53.0324 855.943 52.1022 855.324 51.7921 855.633C51.1719 855.633 49.6215 857.493 49.3115 858.112C49.0014 858.422 49.0014 858.732 48.6913 859.042C48.3812 859.352 46.5207 860.591 45.5905 860.281C44.6603 859.972 44.3502 858.422 43.73 857.803C42.7998 856.873 41.5595 856.563 40.3191 856.253C37.2183 855.943 35.6679 856.873 33.1873 857.183C31.947 855.943 30.7067 854.084 29.4663 852.535C28.8462 851.915 27.9159 850.986 27.2958 850.366C26.3655 849.436 25.4353 848.197 23.8849 847.887C23.5748 847.887 23.2647 847.887 22.9547 847.577C22.6446 847.577 22.6446 847.267 22.3345 846.957C21.7143 846.338 20.7841 846.028 19.8539 845.718C17.3732 844.479 14.8926 843.239 12.4119 842C9.00106 840.45 5.2801 838.901 1.55914 837.662C1.24906 837.352 0.938986 837.042 0.628906 837.352ZM64.8155 871.746C64.8155 872.056 64.5054 872.986 64.8155 873.296C64.5054 872.986 64.1953 871.746 64.8155 871.746ZM49.9316 858.732C50.8619 858.112 51.482 856.873 52.4123 856.253C52.4123 857.183 52.7223 857.493 52.7223 858.422C51.7921 859.042 50.8619 859.042 49.9316 858.732Z" fill="#1D1D1D"/>
<path fill-rule="evenodd" clip-rule="evenodd" d="M0.628906 478.535C1.24907 479.464 2.1793 479.464 3.10954 479.774C7.45066 481.633 12.1019 483.493 16.1329 485.662C18.3035 486.591 20.1639 487.831 22.0244 488.76C22.3345 489.38 22.9547 489.69 23.8849 490.309C26.0555 491.859 28.5361 493.718 30.0865 495.887C30.7067 496.507 31.6369 498.056 31.3268 498.986C31.0167 500.225 28.5361 498.985 27.2958 498.676C26.3655 498.366 25.4353 497.746 24.5051 497.436C22.3345 496.816 20.7841 497.126 19.2337 497.746C19.2337 498.366 19.2337 498.676 19.5438 498.676C20.1639 498.985 20.474 498.366 21.0942 498.366C22.0244 498.056 22.9547 498.366 23.8849 498.366C26.0555 498.676 28.226 500.535 30.0865 501.155C29.4663 503.014 27.2958 504.253 26.6756 506.422C26.0555 508.281 26.9857 509.831 28.8462 510.14C30.7067 510.45 32.8772 510.14 34.4276 509.831C35.3579 509.521 36.2881 509.831 37.2183 509.831C40.3191 509.521 43.1098 507.662 44.3502 505.493C44.9703 505.802 45.5905 507.042 45.5905 507.662C45.5905 508.281 44.6603 508.901 44.0401 509.211C43.1099 509.831 42.1796 510.14 42.1796 511.38C42.1796 511.69 41.5595 511.38 41.5595 511.38C39.3889 513.859 37.5284 516.647 35.3579 519.126C34.1175 518.816 33.1873 519.126 31.947 519.126C31.947 520.056 32.5671 520.056 33.1873 520.366C34.1175 520.366 35.0478 519.746 35.978 520.056C37.2183 518.816 38.4587 517.887 39.3889 516.647C40.6292 515.408 41.5595 513.859 42.4897 512.619C42.4897 512.309 42.7998 512.309 42.4897 512C43.73 512.309 44.9703 511.38 45.9006 510.76C46.2106 510.45 46.5207 509.831 46.8308 509.831C47.1409 509.831 48.0711 510.76 48.3812 511.38C49.9316 513.239 52.7223 514.788 56.1332 515.098C55.5131 516.028 54.8929 518.507 56.1332 519.126C55.203 520.056 54.8929 521.915 54.2727 523.464C53.6526 524.704 53.0324 525.633 53.0324 526.563C52.1022 527.183 51.482 528.422 50.5518 529.352C49.9316 529.971 48.6913 530.591 49.0014 531.521C50.5518 531.521 51.1719 530.281 52.1022 529.042C53.6526 526.873 55.5131 524.704 56.4433 521.605C56.7534 520.986 57.0634 520.056 56.7534 519.126C58.9239 518.816 58.6139 514.788 60.7844 514.169C61.4046 515.098 60.7844 515.718 61.4046 516.957C62.6449 519.126 66.0558 518.816 65.4356 515.718C65.7457 515.718 66.3658 516.338 66.6759 516.647C66.6759 517.887 64.8154 518.507 65.1255 520.056C65.4356 520.986 67.2961 521.605 68.5364 521.295C69.1566 520.985 69.1566 520.366 69.7767 520.056C70.707 520.366 71.0171 520.986 71.6372 521.605C72.8775 522.535 74.738 523.464 76.2884 524.084C77.2187 524.394 78.459 525.014 78.769 525.633C80.3194 527.183 80.3195 530.281 82.49 530.901C82.1799 531.521 82.8001 533.38 82.8001 534.309C83.1102 536.169 83.4202 538.028 84.0404 539.887C84.3505 540.816 84.6606 541.746 84.6606 542.676C86.211 544.225 87.1412 546.084 88.3815 547.633C88.0714 548.563 88.6916 548.873 89.0017 549.183C90.242 548.563 89.3118 547.633 88.3815 546.704C87.1412 545.154 86.211 543.295 84.9706 542.056C84.3505 538.338 84.0404 534.619 83.4202 531.211C83.4202 531.211 83.1102 530.901 82.8001 530.901C83.4202 529.042 81.8698 528.112 81.8698 526.563C84.3505 526.873 87.1412 527.802 88.6916 526.563C90.242 525.323 90.242 521.915 90.242 519.746C90.8622 520.056 91.4823 520.986 92.4126 521.605C93.3428 522.535 94.273 523.464 95.8234 523.464C95.8234 523.774 95.8234 523.774 95.8234 524.084C97.994 527.493 100.165 531.211 102.645 534.619C105.126 535.549 107.296 536.478 109.157 538.028C109.157 538.338 109.157 538.647 109.157 538.957C109.467 539.267 109.467 539.577 110.087 539.577C111.327 538.647 110.087 537.718 109.157 537.098C107.606 535.859 105.126 534.619 103.265 534C101.095 530.591 99.5444 526.563 97.3738 523.464C97.0638 523.464 97.0638 523.464 96.7537 523.464C96.7537 523.154 96.7537 522.845 96.7537 522.535C95.5134 520.985 93.963 519.436 92.4126 518.197C91.4823 517.577 90.8622 516.647 90.242 516.028C89.6218 515.098 89.3118 514.169 88.6916 513.549C87.4513 512 85.9009 510.76 83.7303 509.521C81.8698 508.281 79.6993 507.042 76.9086 506.732C73.4977 506.422 71.3271 508.281 69.4667 510.45C69.4667 509.211 68.2263 508.591 66.986 509.521C66.3659 508.901 66.0558 507.662 65.4356 506.732C65.1255 506.422 64.8154 505.802 64.5054 505.493C64.1953 505.183 63.5751 504.563 63.5751 504.253C63.5751 503.633 63.5751 502.704 63.5751 501.774C63.5751 501.155 63.265 500.225 62.6449 499.915C61.7146 499.605 61.4046 501.464 61.0945 502.394C59.8542 502.084 59.234 501.774 58.3038 501.464C57.6836 501.155 56.1332 501.155 55.203 500.535C54.8929 500.225 54.5828 499.605 54.2727 498.986C53.9626 498.366 53.6526 497.746 53.3425 497.436C53.0324 497.126 52.1022 496.507 51.7921 496.817C51.1719 496.817 49.6215 498.676 49.3115 499.295C49.0014 499.605 49.0014 499.915 48.6913 500.225C48.3812 500.535 46.5207 501.774 45.5905 501.464C44.6603 501.155 44.3502 499.605 43.73 498.986C42.7998 498.056 41.5595 497.746 40.3191 497.436C37.2183 497.126 35.6679 498.056 33.1873 498.366C31.947 497.126 30.7067 495.267 29.4663 493.718C28.8462 493.098 27.9159 492.169 27.2958 491.549C26.3655 490.619 25.4353 489.38 23.8849 489.07C23.5748 489.07 23.2647 489.07 22.9547 488.76C22.6446 488.76 22.6446 488.45 22.3345 488.14C21.7143 487.521 20.7841 487.211 19.8539 486.901C17.3732 485.662 14.8926 484.422 12.4119 483.183C9.00106 481.633 5.2801 480.084 1.55914 478.845C1.24906 478.535 0.938986 478.225 0.628906 478.535ZM64.8155 512.929C64.8155 513.239 64.5054 514.169 64.8155 514.478C64.5054 514.169 64.1953 513.239 64.8155 512.929ZM49.9316 499.915C50.8619 499.295 51.482 498.056 52.4123 497.436C52.4123 498.366 52.7223 498.676 52.7223 499.605C51.7921 500.225 50.8619 500.225 49.9316 499.915Z" fill="#1D1D1D"/>
<path fill-rule="evenodd" clip-rule="evenodd" d="M0.628906 598.141C1.24907 599.07 2.1793 599.07 3.10954 599.38C7.45066 601.239 12.1019 603.098 16.1329 605.267C18.3035 606.197 20.1639 607.436 22.0244 608.366C22.3345 608.986 22.9547 609.296 23.8849 609.915C26.0555 611.465 28.5361 613.324 30.0865 615.493C30.7067 616.112 31.6369 617.662 31.3268 618.591C31.0167 619.831 28.5361 618.591 27.2958 618.282C26.3655 617.972 25.4353 617.352 24.5051 617.042C22.3345 616.422 20.7841 616.732 19.2337 617.352C19.2337 617.972 19.2337 618.282 19.5438 618.282C20.1639 618.591 20.474 617.972 21.0942 617.972C22.0244 617.662 22.9547 617.972 23.8849 617.972C26.0555 618.282 28.226 620.141 30.0865 620.76C29.4663 622.62 27.2958 623.859 26.6756 626.028C26.0555 627.887 26.9857 629.436 28.8462 629.746C30.7067 630.056 32.8772 629.746 34.4276 629.436C35.3579 629.127 36.2881 629.436 37.2183 629.436C40.3191 629.127 43.1098 627.267 44.3502 625.098C44.9703 625.408 45.5905 626.648 45.5905 627.267C45.5905 627.887 44.6603 628.507 44.0401 628.817C43.1099 629.436 42.1796 629.746 42.1796 630.986C42.1796 631.296 41.5595 630.986 41.5595 630.986C39.3889 633.465 37.5284 636.253 35.3579 638.732C34.1175 638.422 33.1873 638.732 31.947 638.732C31.947 639.662 32.5671 639.662 33.1873 639.972C34.1175 639.972 35.0478 639.352 35.978 639.662C37.2183 638.422 38.4587 637.493 39.3889 636.253C40.6292 635.014 41.5595 633.465 42.4897 632.225C42.4897 631.915 42.7998 631.915 42.4897 631.605C43.73 631.915 44.9703 630.986 45.9006 630.366C46.2106 630.056 46.5207 629.436 46.8308 629.436C47.1409 629.436 48.0711 630.366 48.3812 630.986C49.9316 632.845 52.7223 634.394 56.1332 634.704C55.5131 635.634 54.8929 638.112 56.1332 638.732C55.203 639.662 54.8929 641.521 54.2727 643.07C53.6526 644.31 53.0324 645.239 53.0324 646.169C52.1022 646.789 51.482 648.028 50.5518 648.958C49.9316 649.577 48.6913 650.197 49.0014 651.127C50.5518 651.127 51.1719 649.887 52.1022 648.648C53.6526 646.479 55.5131 644.31 56.4433 641.211C56.7534 640.591 57.0634 639.662 56.7534 638.732C58.9239 638.422 58.6139 634.394 60.7844 633.774C61.4046 634.704 60.7844 635.324 61.4046 636.563C62.6449 638.732 66.0558 638.422 65.4356 635.324C65.7457 635.324 66.3658 635.943 66.6759 636.253C66.6759 637.493 64.8154 638.112 65.1255 639.662C65.4356 640.591 67.2961 641.211 68.5364 640.901C69.1566 640.591 69.1566 639.972 69.7767 639.662C70.707 639.972 71.0171 640.591 71.6372 641.211C72.8775 642.141 74.738 643.07 76.2884 643.69C77.2187 644 78.459 644.62 78.769 645.239C80.3194 646.789 80.3195 649.887 82.49 650.507C82.1799 651.127 82.8001 652.986 82.8001 653.915C83.1102 655.774 83.4202 657.634 84.0404 659.493C84.3505 660.422 84.6606 661.352 84.6606 662.282C86.211 663.831 87.1412 665.69 88.3815 667.239C88.0714 668.169 88.6916 668.479 89.0017 668.789C90.242 668.169 89.3118 667.239 88.3815 666.31C87.1412 664.76 86.211 662.901 84.9706 661.662C84.3505 657.943 84.0404 654.225 83.4202 650.817C83.4202 650.817 83.1102 650.507 82.8001 650.507C83.4202 648.648 81.8698 647.718 81.8698 646.169C84.3505 646.479 87.1412 647.408 88.6916 646.169C90.242 644.929 90.242 641.521 90.242 639.352C90.8622 639.662 91.4823 640.591 92.4126 641.211C93.3428 642.141 94.273 643.07 95.8234 643.07C95.8234 643.38 95.8234 643.38 95.8234 643.69C97.994 647.098 100.165 650.817 102.645 654.225C105.126 655.155 107.296 656.084 109.157 657.634C109.157 657.943 109.157 658.253 109.157 658.563C109.467 658.873 109.467 659.183 110.087 659.183C111.327 658.253 110.087 657.324 109.157 656.704C107.606 655.465 105.126 654.225 103.265 653.605C101.095 650.197 99.5444 646.169 97.3738 643.07C97.0638 643.07 97.0638 643.07 96.7537 643.07C96.7537 642.76 96.7537 642.451 96.7537 642.141C95.5134 640.591 93.963 639.042 92.4126 637.803C91.4823 637.183 90.8622 636.253 90.242 635.634C89.6218 634.704 89.3118 633.774 88.6916 633.155C87.4513 631.605 85.9009 630.366 83.7303 629.127C81.8698 627.887 79.6993 626.648 76.9086 626.338C73.4977 626.028 71.3271 627.887 69.4667 630.056C69.4667 628.817 68.2263 628.197 66.986 629.127C66.3659 628.507 66.0558 627.267 65.4356 626.338C65.1255 626.028 64.8154 625.408 64.5054 625.098C64.1953 624.789 63.5751 624.169 63.5751 623.859C63.5751 623.239 63.5751 622.31 63.5751 621.38C63.5751 620.76 63.265 619.831 62.6449 619.521C61.7146 619.211 61.4046 621.07 61.0945 622C59.8542 621.69 59.234 621.38 58.3038 621.07C57.6836 620.76 56.1332 620.76 55.203 620.141C54.8929 619.831 54.5828 619.211 54.2727 618.591C53.9626 617.972 53.6526 617.352 53.3425 617.042C53.0324 616.732 52.1022 616.112 51.7921 616.422C51.1719 616.422 49.6215 618.282 49.3115 618.901C49.0014 619.211 49.0014 619.521 48.6913 619.831C48.3812 620.141 46.5207 621.38 45.5905 621.07C44.6603 620.76 44.3502 619.211 43.73 618.591C42.7998 617.662 41.5595 617.352 40.3191 617.042C37.2183 616.732 35.6679 617.662 33.1873 617.972C31.947 616.732 30.7067 614.873 29.4663 613.324C28.8462 612.704 27.9159 611.774 27.2958 611.155C26.3655 610.225 25.4353 608.986 23.8849 608.676C23.5748 608.676 23.2647 608.676 22.9547 608.366C22.6446 608.366 22.6446 608.056 22.3345 607.746C21.7143 607.127 20.7841 606.817 19.8539 606.507C17.3732 605.267 14.8926 604.028 12.4119 602.789C9.00106 601.239 5.2801 599.69 1.55914 598.451C1.24906 598.141 0.938986 597.831 0.628906 598.141ZM64.8155 632.535C64.8155 632.845 64.5054 633.774 64.8155 634.084C64.5054 633.774 64.1953 632.845 64.8155 632.535ZM49.9316 619.521C50.8619 618.901 51.482 617.662 52.4123 617.042C52.4123 617.972 52.7223 618.282 52.7223 619.211C51.7921 619.831 50.8619 619.831 49.9316 619.521Z" fill="#1D1D1D"/>
</svg>
