<svg width="52" height="50" viewBox="0 0 52 50" fill="none" xmlns="http://www.w3.org/2000/svg">
<path d="M52 7.16204H47.1794V1.79051H49.188V0H3.21373V1.79051H5.22232V7.16204H0V18.6661L5.22232 22.3366V49.9552H47.1794V22.068L52 18.6661V7.16204ZM45.394 5.23724C44.0103 6.71441 42.8498 7.47538 42.091 7.47538C41.4215 7.47538 40.8858 6.89347 40.0378 5.99821C39.0112 4.87914 37.7167 3.44673 35.5742 3.44673C33.3425 3.44673 31.5124 5.28201 31.5124 7.52014L31.6017 13.1155C31.6017 14.3688 30.5751 15.3984 29.3253 15.3984C28.0755 15.3984 27.0489 14.3688 27.0489 13.1155V7.96777C27.0489 6.26679 25.6652 4.87914 23.9691 4.87914C22.273 4.87914 20.8893 6.26679 20.8893 7.96777V10.7431C20.8893 12.5783 19.3717 14.1003 17.5416 14.1003C15.7116 14.1003 14.194 12.5783 14.194 10.7431V1.79051H45.4386V5.23724H45.394ZM12.3639 1.79051V10.7431C12.3639 13.5631 14.685 15.8908 17.497 15.8908C20.309 15.8908 22.63 13.6079 22.63 10.7431V7.96777C22.63 7.25157 23.2103 6.66965 23.9245 6.66965C24.6386 6.66965 25.2189 7.25157 25.2189 7.96777V13.1155C25.2189 15.3536 27.0489 17.1889 29.2807 17.1889C31.5124 17.1889 33.3425 15.3536 33.3425 13.1155L33.2532 7.52014C33.2532 6.26679 34.2798 5.23724 35.5296 5.23724C36.9133 5.23724 37.7614 6.17726 38.6987 7.2068C39.5914 8.19159 40.5734 9.26589 42.0464 9.26589C42.0464 9.26589 42.0464 9.26589 42.091 9.26589C43.073 9.26589 44.1888 8.7735 45.394 7.69919V21.128L38.7434 25.8281H37.2704V23.59H15.176V25.8281H13.2567L7.00773 21.4414V1.79051H12.3639ZM35.485 25.3805V28.0663H16.9614V25.3805H35.485ZM1.78541 17.7261V8.95255H5.22232V20.188L1.78541 17.7261ZM45.394 48.2095H7.00773V23.59L12.6764 27.5739H15.176V29.812H37.2704V27.5739H39.3236L45.4386 23.2766V48.2095H45.394ZM50.2146 17.7261L47.1794 19.8299V8.95255H50.2146V17.7261Z" fill="#7768D5"/>
</svg>
