<svg width="50" height="51" viewBox="0 0 50 51" fill="none" xmlns="http://www.w3.org/2000/svg">
<path d="M46.7857 41.0732H45V46.5375H46.7857V41.0732Z" fill="#7768D5"/>
<path d="M17.9018 36.8839V13.1143H18.6607V9.06161C18.6607 8.56071 18.7946 8.24196 19.0179 8.01429C19.8661 9.19821 21.2946 9.97232 22.7679 9.97232H26.1161V0.500893H22.7679C21.9643 0.500893 21.2054 0.683036 20.5357 1.09286C19.9107 0.6375 18.7946 0 17.3214 0H10.1786C6.65179 0 0 1.9125 0 9.06161V10.792L1.38393 9.79018C2.45536 9.01607 5.75893 7.0125 7.8125 7.0125C10.3125 7.0125 10.5357 8.05982 10.5357 9.01607V13.0688H11.3839V36.8839H0V45.217L3.30357 42.3937L5.53571 45.4902L8.61607 43.1679L10.8929 46.3098L11.4286 45.9V51H17.9464V45.7634L19.2857 44.7616L21.5625 47.9036L24.6429 45.5812L26.9196 48.7232L30 46.4009L32.2768 49.5429L35.3571 47.2205L37.6339 50.3625L40.625 48.0857L41.8304 50.0438V50.8634H50V36.8839H17.9018ZM7.8125 5.23661C5.89286 5.23661 3.52679 6.42054 1.96429 7.33125C3.16964 1.9125 9.86607 1.82143 10.1786 1.82143H17.3214C18.8393 1.82143 19.7321 2.77768 19.7768 2.82321L20.3125 3.46071L20.9821 2.95982C21.4732 2.55 22.0982 2.32232 22.7232 2.32232H24.2857V8.15089H22.7679C21.6518 8.15089 20.625 7.46786 20.1786 6.42054L19.8661 5.7375L19.1071 5.91964C18.3482 6.10179 16.8304 6.96696 16.8304 9.06161V11.2929H12.3214V9.06161C12.3214 7.33125 11.5625 5.23661 7.8125 5.23661ZM13.1696 13.1143H16.1161V36.8839H13.1696V13.1143ZM13.2143 49.1786V44.4884L13.9286 43.942L16.1607 46.9929V49.1786H13.2143ZM41.7857 46.5375L41.0268 45.3536L37.9018 47.7214L35.625 44.5795L32.5893 46.9018L30.3125 43.7598L27.2321 46.0821L25 42.9857L21.9196 45.308L19.6429 42.2116L16.5625 44.5339L14.2857 41.392L11.25 43.7143L8.97321 40.5723L5.89286 42.8946L3.57143 39.7527L1.78571 41.3009V38.7054H41.7857V46.5375ZM48.2143 48.9054H43.5714V38.7054H48.2143V48.9054Z" fill="#7768D5"/>
</svg>
