<svg width="26" height="20" viewBox="0 0 26 20" fill="none" xmlns="http://www.w3.org/2000/svg">
<path fill-rule="evenodd" clip-rule="evenodd" d="M8.85398 2.68303C5.44586 2.68303 2.68303 5.44586 2.68303 8.85398C2.68303 12.2621 5.44586 15.0249 8.85398 15.0249C12.2621 15.0249 15.0249 12.2621 15.0249 8.85398C15.0249 5.44586 12.2621 2.68303 8.85398 2.68303ZM0 8.85398C0 3.96406 3.96406 0 8.85398 0C13.7439 0 17.708 3.96406 17.708 8.85398C17.708 13.7439 13.7439 17.708 8.85398 17.708C3.96406 17.708 0 13.7439 0 8.85398Z" fill="#EECD96"/>
<path fill-rule="evenodd" clip-rule="evenodd" d="M24.5997 20L14.9408 14.2315L16.3165 11.928L25.9754 17.6965L24.5997 20Z" fill="#EECD96"/>
</svg>
