<svg width="34" height="34" viewBox="0 0 34 34" fill="none" xmlns="http://www.w3.org/2000/svg">
<path d="M33.6009 0H0.398438V33.5239H33.6009V0Z" fill="#EECD96"/>
<path d="M27.5775 12.3732C27.5251 11.2099 27.368 10.4167 27.0538 9.72935C26.7919 8.98907 26.3729 8.35455 25.7969 7.82579C25.2732 7.29702 24.5924 6.874 23.9116 6.55674C23.2308 6.29236 22.4452 6.08085 21.2931 6.02797C20.1409 5.9751 19.7744 5.9751 16.894 5.9751C14.0137 5.9751 13.6471 5.9751 12.4949 6.02797C11.3428 6.08085 10.5573 6.23948 9.87646 6.55674C9.14328 6.82113 8.51484 7.24414 7.99115 7.82579C7.46745 8.35455 7.04849 9.04195 6.73427 9.72935C6.47242 10.4167 6.26294 11.2099 6.21057 12.3732C6.1582 13.5365 6.1582 13.9066 6.1582 16.8148C6.1582 19.7759 6.1582 20.0932 6.21057 21.2565C6.26294 22.4198 6.42005 23.2129 6.73427 23.9003C6.99612 24.6406 7.41508 25.2751 7.99115 25.8039C8.51484 26.3327 9.19565 26.7557 9.87646 27.0729C10.5573 27.3373 11.3428 27.5488 12.4949 27.6017C13.6471 27.6546 14.0137 27.6546 16.894 27.6546C19.7744 27.6546 20.1409 27.6546 21.2931 27.6017C22.4452 27.5488 23.2308 27.3902 23.9116 27.0729C25.3256 26.4913 26.4777 25.3809 27.0538 23.9003C27.3156 23.2129 27.5251 22.4198 27.5775 21.2565C27.6298 20.0932 27.6298 19.7231 27.6298 16.8148C27.6298 13.9066 27.6298 13.5365 27.5775 12.3732ZM25.6398 21.2036C25.5874 22.2611 25.4303 22.8428 25.2732 23.2129C24.9066 24.1647 24.1734 24.905 23.2308 25.2751C22.8642 25.4338 22.2881 25.5924 21.2407 25.6453C20.0886 25.6981 19.7744 25.6981 16.894 25.6981C14.0137 25.6981 13.6995 25.6981 12.5473 25.6453C11.4999 25.5924 10.9239 25.4338 10.5573 25.2751C10.0859 25.1165 9.66698 24.8521 9.35276 24.482C8.98617 24.1118 8.72432 23.6888 8.56721 23.2658C8.4101 22.8957 8.25299 22.314 8.20062 21.2565C8.14826 20.0932 8.14826 19.7759 8.14826 16.8677C8.14826 13.9595 8.14826 13.6422 8.20062 12.4789C8.25299 11.4214 8.4101 10.8398 8.56721 10.4696C8.72432 9.99373 8.98617 9.57072 9.35276 9.25346C9.71935 8.88332 10.1383 8.61894 10.5573 8.4603C10.9239 8.30167 11.4999 8.14305 12.5473 8.09017C13.6995 8.03729 14.0137 8.03729 16.894 8.03729C19.7744 8.03729 20.0886 8.03729 21.2407 8.09017C22.2881 8.14305 22.8642 8.30167 23.2308 8.4603C23.7021 8.61894 24.121 8.88332 24.4353 9.25346C24.8019 9.62359 25.0637 10.0466 25.2208 10.4696C25.3779 10.8398 25.535 11.4214 25.5874 12.4789C25.6398 13.6422 25.6398 13.9595 25.6398 16.8677C25.6921 19.7231 25.6921 20.0932 25.6398 21.2036Z" fill="#1D1D1D"/>
<path d="M16.948 11.2627C13.9106 11.2627 11.4492 13.7479 11.4492 16.8148C11.4492 19.8816 13.9106 22.3668 16.948 22.3668C19.9855 22.3668 22.4469 19.8816 22.4469 16.8148C22.4469 13.7479 19.9855 11.2627 16.948 11.2627ZM16.948 20.4633C14.958 20.4633 13.3869 18.8241 13.3869 16.8676C13.3869 14.9112 15.0104 13.272 16.948 13.272C18.9381 13.272 20.5092 14.9112 20.5092 16.8676C20.5092 18.8241 18.8857 20.4633 16.948 20.4633Z" fill="#1D1D1D"/>
<path d="M23.9115 11.0512C23.9115 11.7914 23.3354 12.3731 22.6022 12.3731C21.869 12.3731 21.293 11.7914 21.293 11.0512C21.293 10.3109 21.869 9.72925 22.6022 9.72925C23.3878 9.78212 23.9115 10.3638 23.9115 11.0512Z" fill="#1D1D1D"/>
</svg>
