<svg width="149" height="43" viewBox="0 0 149 43" fill="none" xmlns="http://www.w3.org/2000/svg">
<path d="M149 5.98047H0V43H149V5.98047Z" fill="#F0AB00"/>
<path d="M149 0H0V5.98046H149V0Z" fill="#D52B1E"/>
<path d="M21.059 38.6011C13.162 38.6011 6.80469 33.8562 6.80469 29.1114C6.80469 22.9827 13.2117 18.9298 21.059 18.9298C28.9064 18.9298 35.3134 22.9827 35.3134 29.1114C35.3134 33.8562 28.956 38.6011 21.059 38.6011Z" fill="white"/>
<path d="M39.0879 33.461C40.9256 33.8069 43.3592 33.9552 44.6506 32.3736C45.8922 30.9403 45.6936 28.9138 45.7432 27.0357C45.7929 22.2414 45.6936 17.3978 45.5446 12.5541H51.8026C51.6039 17.5955 51.5542 22.3403 51.6039 27.3817C51.6039 30.0506 51.7032 32.8184 49.9649 34.7955C47.7796 37.3161 44.6009 37.9092 41.2236 37.8598L40.5282 37.8104L39.0879 33.461Z" fill="#002664"/>
<path d="M137.379 36.4759C134.448 31.9782 131.071 27.6288 127.694 23.2794C127.644 27.6288 127.743 32.1265 127.892 36.4759H122.23C122.528 28.5679 122.479 20.5115 122.23 12.5541H127.296C130.276 17.0518 133.654 21.4506 136.932 25.8001C136.981 21.4012 136.932 16.9035 136.733 12.5541H142.345C142.296 15.1736 142.196 17.8426 142.196 20.4621C142.147 25.7506 142.196 31.1874 142.345 36.4759H137.379Z" fill="#002664"/>
<path d="M90.7911 36.4759C90.5924 30.0506 90.5428 23.4771 90.6918 17.0024C92.7281 17.0024 94.8141 17.1012 96.8008 17.2001V12.5541H78.5234V17.2001C80.5101 17.1012 82.6458 16.9529 84.6324 17.0024C84.7318 23.4771 84.7318 30.0506 84.5331 36.4759H90.7911Z" fill="#002664"/>
<path d="M108.67 37.1677C107.23 37.2172 105.74 37.0195 104.349 36.5746C102.164 35.9321 100.227 34.2022 99.4322 32.0769C98.5879 30.0999 98.8362 27.5792 98.7866 25.4045C98.8362 21.1045 98.7369 16.8045 98.5879 12.5045H104.796C104.647 17.3482 104.598 22.2907 104.647 27.0356C104.697 28.8149 104.697 30.5942 105.939 31.8298C106.584 32.5218 107.627 32.8677 108.621 32.8183C109.664 32.8183 110.657 32.5218 111.303 31.8298C112.544 30.5942 112.544 28.7654 112.594 27.0356C112.644 22.2907 112.594 17.2988 112.445 12.5045H118.703C118.554 16.8045 118.504 21.1045 118.504 25.4045C118.455 27.5792 118.703 30.0999 117.859 32.0769C117.064 34.2022 115.127 35.8827 112.942 36.5746C111.601 37.0195 110.16 37.2172 108.67 37.1677Z" fill="#002664"/>
<path d="M78.6218 20.7586C77.8272 17.8425 75.7908 15.0253 72.9102 13.4437C71.1718 12.4552 68.9368 11.9609 66.7018 11.9609C64.4668 11.9609 62.2815 12.4552 60.4935 13.4437C57.6128 14.9759 55.5765 17.8425 54.7818 20.7586C53.8878 24.4161 54.1858 28.6667 56.2718 31.6816C57.6625 33.9552 59.8478 35.6356 62.3808 36.5253C63.7715 36.9701 65.2118 37.2173 66.6522 37.2173C68.0925 37.2173 69.5328 36.9701 70.9235 36.5253C73.4565 35.6851 75.6418 33.9552 77.0325 31.6816C79.2178 28.6173 79.5158 24.4161 78.6218 20.7586ZM72.8605 26.0471C72.7115 27.9747 72.1652 29.8035 70.9235 31.2862C69.8805 32.5219 68.3408 33.0655 66.7515 33.0655C65.1621 33.0655 63.6225 32.5219 62.5795 31.2862C61.3378 29.8035 60.7915 27.9747 60.6425 26.0471C60.4935 22.9828 60.6425 19.8196 62.7782 17.5954C63.8212 16.4586 65.2615 16.0138 66.7515 16.0138C68.2415 16.0138 69.6818 16.5081 70.7248 17.5954C72.8605 19.8196 73.0095 22.9828 72.8605 26.0471Z" fill="#002664"/>
<path d="M26.0243 19.3746V10.1815C23.4913 10.1815 20.114 10.5769 17.8293 13.9378C16.7863 15.6183 16.1406 17.4965 15.8923 19.4735C15.644 19.5229 15.4453 19.5723 15.197 19.6712C10.131 21.1539 6.6543 24.6137 6.6543 29.1608C6.6543 32.8677 10.429 36.5252 15.6936 38.0574V38.947H26.372V38.0574C31.6863 36.5252 35.461 32.8677 35.461 29.1608C35.461 24.2677 31.5373 20.7091 26.0243 19.3746ZM8.93896 24.2677H12.1176C11.4223 25.3551 10.9753 26.6401 10.7766 27.9252H7.34963C7.59796 26.5907 8.1443 25.3057 8.93896 24.2677ZM7.29996 29.062C7.29996 28.8643 7.29996 28.716 7.34963 28.5677H10.7766C10.7766 28.716 10.727 28.9137 10.727 29.062C10.727 30.1493 10.9256 31.1873 11.323 32.2252H8.2933C7.64763 31.2861 7.29996 30.1988 7.29996 29.062ZM15.6936 37.316C12.664 36.4263 10.1806 34.7953 8.7403 32.9172H11.5713C12.4653 34.7459 13.9056 36.2781 15.6936 37.316ZM15.6936 36.5252C14.2533 35.6355 13.111 34.3505 12.366 32.8677H15.6936V36.5252ZM15.6936 32.2252H12.068C11.6706 31.2367 11.472 30.1493 11.4223 29.062C11.4223 28.8643 11.4223 28.716 11.472 28.5677H15.6936V32.2252ZM15.6936 27.8758H11.5216C11.7203 26.5413 12.217 25.3057 12.962 24.2183H15.6936V27.8758ZM21.0576 37.9091C17.9783 37.9091 16.8856 33.7574 16.8856 28.6172C16.8856 23.4769 17.9286 19.3252 21.0576 19.3252C24.1866 19.3252 25.2296 23.4769 25.2296 28.6172C25.2296 33.7574 24.137 37.9091 21.0576 37.9091ZM33.1763 24.2677C33.971 25.3551 34.5173 26.5907 34.716 27.9252H31.289C31.14 26.6401 30.6433 25.4045 29.948 24.2677H33.1763ZM26.4216 24.2677H29.203C29.948 25.3551 30.4446 26.5907 30.6433 27.9252H26.4216V24.2677ZM26.4216 28.5677H30.693C30.693 28.716 30.7426 28.9137 30.7426 29.062C30.7426 30.1493 30.544 31.1873 30.097 32.2252H26.4216V28.5677ZM26.4216 32.9172H29.799C29.0043 34.4493 27.862 35.685 26.4216 36.5746V32.9172ZM26.4216 37.316C28.2096 36.3275 29.6996 34.7459 30.544 32.9172H33.375C31.9346 34.7953 29.4513 36.4263 26.4216 37.316ZM30.842 32.2252C31.2393 31.2367 31.3883 30.1493 31.438 29.062C31.438 28.8643 31.438 28.716 31.3883 28.5677H34.8153C34.8153 28.716 34.8153 28.9137 34.8153 29.062C34.8153 30.1988 34.4676 31.2861 33.8716 32.2252H30.842Z" fill="#002664"/>
<path d="M21.4565 12.6528C20.9598 12.6528 20.5625 13.0482 20.5625 13.5425C20.5625 14.0367 20.9598 14.4321 21.4565 14.4321C21.9532 14.4321 22.3505 14.0367 22.3505 13.5425C22.3505 13.0482 21.9532 12.6528 21.4565 12.6528ZM21.4565 13.7896C21.3075 13.7896 21.1585 13.6413 21.1585 13.4931C21.1585 13.3448 21.3075 13.1965 21.4565 13.1965C21.6055 13.1965 21.7545 13.3448 21.7545 13.4931C21.7545 13.6413 21.6552 13.7896 21.4565 13.7896Z" fill="white"/>
</svg>
