<svg width="34" height="34" viewBox="0 0 34 34" fill="none" xmlns="http://www.w3.org/2000/svg">
<path d="M33.9993 0H0.796875V33.5239H33.9993V0Z" fill="#EECD96"/>
<path d="M22.9503 12.8491C20.5937 12.8491 19.4939 14.171 18.9179 15.1228V13.2193H14.4141C14.4664 14.4883 14.4141 26.8615 14.4141 26.8615H18.9179V19.2472C18.9179 18.8242 18.9702 18.4541 19.075 18.1368C19.3892 17.3436 20.1224 16.4976 21.3792 16.4976C23.0027 16.4976 23.6311 17.7667 23.6311 19.5645V26.8615H28.1349V19.0357C28.0826 14.8056 25.883 12.8491 22.9503 12.8491Z" fill="#1D1D1D"/>
<path d="M11.9511 13.1663H7.44727V26.8085H11.9511V13.1663Z" fill="#1D1D1D"/>
<path d="M9.6993 6.60938C8.18057 6.60938 7.18555 7.61404 7.18555 8.93596C7.18555 10.2579 8.18057 11.2625 9.64693 11.2625H9.6993C11.2704 11.2625 12.213 10.205 12.213 8.93596C12.213 7.61404 11.2704 6.60938 9.6993 6.60938Z" fill="#1D1D1D"/>
</svg>
