<svg width="219" height="17" viewBox="0 0 219 17" fill="none" xmlns="http://www.w3.org/2000/svg">
<g clip-path="url(#clip0)">
<path d="M0 1.94604H4.86V13.3939H10.2V16.6565H0V1.94604Z" fill="#EECD96"/>
<path d="M15.1795 16.1986C14.0395 15.6834 13.1395 14.8821 12.4795 13.909C11.8195 12.9359 11.5195 11.7912 11.5195 10.5319V1.94604H16.6195V10.5891C16.6195 11.4477 16.8595 12.0774 17.2795 12.5353C17.6995 12.9359 18.3595 13.1649 19.1995 13.1649C20.0395 13.1649 20.6995 12.9359 21.1195 12.5353C21.5395 12.0774 21.7795 11.4477 21.7795 10.6464V1.94604H26.8195V10.5891C26.8195 11.8484 26.5195 12.9359 25.8595 13.9662C25.1995 14.9393 24.2995 15.6834 23.1595 16.2558C22.0195 16.771 20.6995 17.0572 19.1995 17.0572C17.6995 17.0572 16.3195 16.7137 15.1795 16.1986Z" fill="#EECD96"/>
<path d="M29.5801 1.94604H34.0801L40.2001 9.90227V1.94604H44.2201V16.6565H39.7201L33.6001 8.98645V16.6565H29.5801V1.94604Z" fill="#EECD96"/>
<path d="M47.2207 1.94604H53.9407C55.5607 1.94604 57.0007 2.23224 58.2007 2.86187C59.4007 3.4915 60.4207 4.35009 61.1407 5.43763C61.8607 6.52517 62.1607 7.78443 62.1607 9.21541C62.1607 10.7036 61.8007 12.0201 61.1407 13.1077C60.4807 14.2524 59.5207 15.111 58.2607 15.7407C57.0007 16.3703 55.5607 16.6565 53.9407 16.6565H47.2207V1.94604ZM53.7007 12.8215C54.8407 12.8215 55.6807 12.478 56.2807 11.7912C56.8807 11.1043 57.1807 10.2457 57.1807 9.15817C57.1807 8.12786 56.8807 7.32652 56.3407 6.69689C55.7407 6.06726 54.9007 5.78106 53.7607 5.78106H52.2007V12.8215H53.7007Z" fill="#EECD96"/>
<path d="M69.2407 15.6835C68.5207 14.9394 68.2207 13.8519 68.2207 12.5354V2.57578L72.9607 1.88892V12.2492C72.9607 12.6499 73.0807 12.9361 73.2607 13.1078C73.4407 13.2795 73.8007 13.394 74.3407 13.394C74.7007 13.394 75.0607 13.3367 75.4207 13.165L75.6007 16.1414C74.5807 16.5994 73.5007 16.8855 72.2407 16.8855C70.9207 16.8283 69.9007 16.4849 69.2407 15.6835Z" fill="#EECD96"/>
<path d="M79.3192 16.1414C78.3592 15.6835 77.5792 14.9966 77.0392 14.1953C76.4992 13.3367 76.1992 12.4209 76.1992 11.3333C76.1992 10.2458 76.4992 9.27272 77.0392 8.47138C77.5792 7.61279 78.3592 6.98316 79.3192 6.52525C80.2792 6.06734 81.4192 5.83838 82.6792 5.83838C83.9392 5.83838 85.0792 6.06734 86.0392 6.52525C86.9992 6.98316 87.7792 7.61279 88.3192 8.47138C88.8592 9.27272 89.0992 10.2458 89.0992 11.3333C89.0992 12.4209 88.7992 13.3939 88.2592 14.2525C87.7192 15.1111 86.9392 15.7407 85.9792 16.1986C85.0192 16.6566 83.8792 16.8855 82.6192 16.8855C81.4192 16.8283 80.2792 16.5993 79.3192 16.1414ZM84.2392 12.9933C84.6592 12.5353 84.8392 12.0202 84.8392 11.3333C84.8392 10.6465 84.6592 10.0741 84.2392 9.6734C83.8192 9.21548 83.3392 9.04377 82.7392 9.04377C82.1392 9.04377 81.5992 9.27272 81.2392 9.6734C80.8192 10.1313 80.6392 10.6465 80.6392 11.3333C80.6392 12.0202 80.8192 12.5926 81.2392 12.9933C81.6592 13.4512 82.1392 13.6229 82.7392 13.6229C83.3392 13.6229 83.8192 13.3939 84.2392 12.9933Z" fill="#EECD96"/>
<path d="M89.4004 5.95288H94.6204L96.3604 12.3637L98.0404 5.95288H102.12L98.5804 16.6566H93.1204L89.4004 5.95288Z" fill="#EECD96"/>
<path d="M105.419 16.1414C104.459 15.6835 103.679 14.9966 103.139 14.1953C102.599 13.3367 102.359 12.4209 102.359 11.3333C102.359 10.2458 102.659 9.27272 103.199 8.47138C103.739 7.61279 104.519 6.98316 105.419 6.52525C106.379 6.06733 107.399 5.83838 108.539 5.83838C109.619 5.83838 110.579 6.06733 111.359 6.52525C112.139 6.98316 112.739 7.61279 113.099 8.41414C113.459 9.21548 113.699 10.0741 113.699 11.1044C113.699 11.3906 113.699 11.5623 113.639 11.6768L106.919 12.5353C107.099 13.0505 107.399 13.3939 107.819 13.6229C108.239 13.8518 108.779 13.9663 109.439 13.9663C110.459 13.9663 111.539 13.7374 112.739 13.2222L113.279 16.0842C111.899 16.6566 110.339 16.9428 108.719 16.9428C107.459 16.8283 106.379 16.5993 105.419 16.1414ZM110.279 9.73063C110.039 8.81481 109.499 8.3569 108.599 8.3569C108.059 8.3569 107.639 8.52861 107.339 8.92929C107.039 9.32996 106.859 9.78787 106.859 10.4175L110.279 9.73063Z" fill="#EECD96"/>
<path d="M115.5 6.12444H120.24V8.29952C120.6 7.44094 121.08 6.81131 121.62 6.41064C122.22 6.00996 122.88 5.78101 123.72 5.78101L124.38 9.27259C122.94 9.27259 121.92 9.44431 121.26 9.7305C120.6 10.0167 120.24 10.4746 120.24 11.1042V16.6564H115.5V6.12444Z" fill="#EECD96"/>
<path d="M138.359 16.4848C137.759 16.2558 137.279 15.7979 136.859 15.2255C136.499 14.6531 136.139 13.7945 135.839 12.707L134.519 13.7373V16.7137H129.779V2.63291L134.519 1.94604V9.27264L140.279 4.75076L142.859 8.12786L139.259 10.5319C139.439 11.6194 139.679 12.3636 140.039 12.8215C140.399 13.2221 140.879 13.4511 141.539 13.4511C141.779 13.4511 142.139 13.3939 142.499 13.3366L142.079 16.8282C141.599 16.8854 141.239 16.8854 140.819 16.8854C139.799 16.8282 138.959 16.7137 138.359 16.4848Z" fill="#EECD96"/>
<path d="M143.221 5.95288H148.441L150.181 12.3637L151.861 5.95288H155.941L152.401 16.6566H146.941L143.221 5.95288Z" fill="#EECD96"/>
<path d="M159 16.084C158.16 15.5689 157.5 14.9393 156.96 14.0807C156.48 13.2221 156.18 12.3063 156.18 11.2187C156.18 10.1884 156.42 9.27259 156.96 8.414C157.44 7.55542 158.16 6.92579 159 6.46787C159.84 6.00996 160.74 5.78101 161.7 5.78101C162.48 5.78101 163.2 6.00996 163.86 6.41064C164.52 6.81131 165 7.44094 165.36 8.29952V5.83824H170.1V16.7137H165.36V14.7103C164.64 16.1413 163.38 16.8854 161.7 16.8854C160.74 16.8281 159.84 16.5992 159 16.084ZM164.76 12.8786C165.18 12.478 165.42 11.9628 165.42 11.4477V11.276C165.42 10.7036 165.18 10.2457 164.7 9.84498C164.28 9.44431 163.74 9.27259 163.2 9.27259C162.6 9.27259 162.06 9.50154 161.58 9.90222C161.16 10.3029 160.92 10.818 160.92 11.3904C160.92 11.9628 161.16 12.478 161.58 12.9359C162 13.3366 162.54 13.5655 163.2 13.5655C163.8 13.451 164.28 13.2793 164.76 12.8786Z" fill="#EECD96"/>
<path d="M173.52 15.6835C172.8 14.9394 172.5 13.8519 172.5 12.5354V2.57578L177.24 1.88892V12.2492C177.24 12.6499 177.36 12.9361 177.54 13.1078C177.72 13.2795 178.08 13.394 178.62 13.394C178.98 13.394 179.34 13.3367 179.7 13.165L179.88 16.1414C178.86 16.5994 177.78 16.8855 176.52 16.8855C175.2 16.8283 174.18 16.4849 173.52 15.6835Z" fill="#EECD96"/>
<path d="M181.441 3.72054C180.961 3.31987 180.721 2.80471 180.721 2.17508C180.721 1.54545 180.961 1.0303 181.501 0.62963C182.041 0.228956 182.581 0 183.241 0C183.901 0 184.501 0.228956 185.041 0.62963C185.521 1.0303 185.821 1.54545 185.821 2.17508C185.821 2.80471 185.581 3.31987 185.041 3.72054C184.501 4.12121 183.961 4.35017 183.241 4.35017C182.521 4.35017 181.921 4.12121 181.441 3.72054ZM181.921 15.6835C181.201 14.9394 180.841 13.8519 180.841 12.5354V5.95286H185.581V12.3636C185.581 12.7071 185.701 12.936 185.881 13.1077C186.061 13.2795 186.301 13.3939 186.601 13.3939C186.901 13.3939 187.201 13.3367 187.501 13.165L187.741 16.1414C187.441 16.3704 186.961 16.5421 186.481 16.7138C185.941 16.8283 185.401 16.8855 184.861 16.8855C183.601 16.8283 182.641 16.4848 181.921 15.6835Z" fill="#EECD96"/>
<path d="M190.62 15.7408C189.9 14.9967 189.54 14.0236 189.54 12.7643V8.58589H188.1V5.95289H189.9L192 1.88892H194.28V5.95289H196.86V8.58589H194.28V12.2492C194.28 12.5926 194.4 12.8788 194.64 13.1078C194.88 13.3367 195.24 13.394 195.66 13.394C196.08 13.394 196.44 13.3367 196.74 13.165L196.92 16.1414C196.56 16.3704 196.08 16.5421 195.48 16.6566C194.88 16.7711 194.34 16.8855 193.74 16.8855C192.42 16.8283 191.4 16.4849 190.62 15.7408Z" fill="#EECD96"/>
<path d="M201.06 16.1414C200.1 15.6835 199.32 14.9966 198.78 14.1953C198.24 13.3367 198 12.4209 198 11.3333C198 10.2458 198.3 9.27272 198.84 8.47138C199.38 7.61279 200.16 6.98316 201.06 6.52525C202.02 6.06733 203.04 5.83838 204.18 5.83838C205.26 5.83838 206.22 6.06733 207 6.52525C207.78 6.98316 208.38 7.61279 208.74 8.41414C209.1 9.21548 209.34 10.0741 209.34 11.1044C209.34 11.3906 209.34 11.5623 209.28 11.6768L202.56 12.5353C202.74 13.0505 203.04 13.3939 203.46 13.6229C203.88 13.8518 204.42 13.9663 205.08 13.9663C206.1 13.9663 207.18 13.7374 208.38 13.2222L208.92 16.0842C207.54 16.6566 205.98 16.9428 204.36 16.9428C203.1 16.8283 202.02 16.5993 201.06 16.1414ZM205.92 9.73063C205.68 8.81481 205.14 8.3569 204.24 8.3569C203.7 8.3569 203.28 8.52861 202.98 8.92929C202.68 9.32996 202.5 9.78787 202.5 10.4175L205.92 9.73063Z" fill="#EECD96"/>
<path d="M212.76 15.7408C212.04 14.9967 211.68 14.0236 211.68 12.7643V8.58589H210.24V5.95289H212.04L214.14 1.88892H216.42V5.95289H219V8.58589H216.42V12.2492C216.42 12.5926 216.54 12.8788 216.78 13.1078C217.02 13.3367 217.38 13.394 217.8 13.394C218.22 13.394 218.58 13.3367 218.88 13.165L219.06 16.1414C218.7 16.3704 218.22 16.5421 217.62 16.6566C217.02 16.7711 216.48 16.8855 215.88 16.8855C214.5 16.8283 213.48 16.4849 212.76 15.7408Z" fill="#EECD96"/>
</g>
<defs>
<clipPath id="clip0">
<rect width="219" height="17" fill="white"/>
</clipPath>
</defs>
</svg>
