<svg width="83" height="83" viewBox="0 0 83 83" fill="none" xmlns="http://www.w3.org/2000/svg">
<circle cx="41.5" cy="41.5" r="41.5" fill="#FFF8ED"/>
<g clip-path="url(#clip0)">
<path fill-rule="evenodd" clip-rule="evenodd" d="M32.9808 24.7931H20.62L26.2707 30.5086L24.9463 31.8276L17.0883 23.9138L24.9463 16L26.2707 17.319L20.62 23.0345H33.1574C33.4403 22.0377 34.0674 21.1725 34.9282 20.5912C35.789 20.0099 36.8282 19.75 37.8626 19.8572C38.8971 19.9644 39.8603 20.4319 40.5824 21.1773C41.3046 21.9226 41.7393 22.898 41.81 23.9314V32.7245C42.361 32.3154 42.9998 32.0396 43.6762 31.9187C44.3526 31.7978 45.048 31.8352 45.7073 32.028C46.3667 32.2207 46.9721 32.5635 47.4756 33.0293C47.9791 33.495 48.3669 34.071 48.6085 34.7117C49.2416 34.1478 50.0252 33.7785 50.8645 33.6486C51.7038 33.5187 52.563 33.6337 53.3381 33.9796C54.1132 34.3256 54.7711 34.8878 55.2323 35.5982C55.6934 36.3086 55.9381 37.1368 55.9367 37.9828C56.7026 37.4154 57.6309 37.1072 58.5854 37.1034C59.1658 37.1011 59.7409 37.2133 60.2776 37.4334C60.8142 37.6535 61.3018 37.9773 61.7122 38.386C62.1226 38.7947 62.4477 39.2803 62.6687 39.8148C62.8898 40.3492 63.0024 40.922 63 41.5V52.0517C62.9954 56.0148 61.4125 59.8143 58.5987 62.6166C55.7848 65.4189 51.9698 66.9953 47.9904 67C42.4987 67 36.6891 64.45 32.6983 57.2045C26.9417 46.7407 19.5605 39.8821 23.0745 36.4C25.582 33.8852 29.4492 36.2945 32.9808 39.5128V24.7931ZM47.9904 65.2414C51.4817 65.1738 54.811 63.7625 57.2802 61.3035C59.7493 58.8444 61.1664 55.5287 61.2342 52.0517V41.5C61.2342 40.8004 60.9551 40.1294 60.4584 39.6347C59.9617 39.14 59.2879 38.8621 58.5854 38.8621C57.8829 38.8621 57.2092 39.14 56.7125 39.6347C56.2158 40.1294 55.9367 40.8004 55.9367 41.5V42.3793H54.1709V38.0003C54.1709 37.6539 54.1023 37.3109 53.9692 36.9909C53.8361 36.6708 53.641 36.38 53.3951 36.135C53.1491 35.8901 52.8571 35.6958 52.5357 35.5632C52.2144 35.4306 51.8699 35.3624 51.5221 35.3624C51.1743 35.3624 50.8298 35.4306 50.5085 35.5632C50.1871 35.6958 49.8951 35.8901 49.6492 36.135C49.4032 36.38 49.2081 36.6708 49.075 36.9909C48.9419 37.3109 48.8733 37.6539 48.8733 38.0003V40.6207H47.1075V36.2417C47.1075 35.5421 46.8284 34.8711 46.3317 34.3764C45.835 33.8817 45.1613 33.6038 44.4588 33.6038C43.7563 33.6038 43.0825 33.8817 42.5858 34.3764C42.0891 34.8711 41.81 35.5421 41.81 36.2417V42.3793H40.0442V23.9314C40.0442 23.2318 39.7651 22.5608 39.2684 22.0661C38.7716 21.5714 38.0979 21.2934 37.3954 21.2934C36.6929 21.2934 36.0192 21.5714 35.5225 22.0661C35.0257 22.5608 34.7467 23.2318 34.7467 23.9314V43.7862C31.109 39.9172 26.3236 35.6614 24.3636 37.631C22.4035 39.6007 27.4008 44.8414 34.3052 56.4483C37.4131 61.7241 41.3685 65.2414 47.9904 65.2414Z" fill="#7768D5"/>
</g>
<defs>
<clipPath id="clip0">
<rect width="46" height="51" fill="white" transform="translate(17 16)"/>
</clipPath>
</defs>
</svg>
